<svg width="24" height="24" viewBox="0 0 24 24" fill="none" xmlns="http://www.w3.org/2000/svg">
<g clip-path="url(#clip0_11054_838)">
<path d="M12 23.75C18.4893 23.75 23.75 18.4893 23.75 12C23.75 5.51065 18.4893 0.25 12 0.25C5.51065 0.25 0.25 5.51065 0.25 12C0.25 18.4893 5.51065 23.75 12 23.75Z" fill="#F4F4F4"/>
<path d="M6.86865 12.1521L12.0579 15.1648L12.9235 8.77002L6.86865 12.1521Z" fill="#393939"/>
<path d="M12.0578 3.69482L9.59912 12.3622L17.2464 12.1521L12.0578 3.69482Z" fill="#343434"/>
<path d="M12.0579 3.69482L6.86865 12.1521L12.0579 9.83365V3.69482Z" fill="#8C8C8C"/>
<path d="M12.0579 20.3019L12.1855 16.2004L6.86865 13.1187L12.0579 20.3019Z" fill="#8C8C8C"/>
<path d="M12.0586 16.1306V20.3019L17.2507 13.1187L12.0586 16.1306Z" fill="#3C3C3B"/>
<path d="M12.0586 15.165L17.2472 12.1523L12.0586 9.83521V15.165Z" fill="#141414"/>
</g>
<defs>
<clipPath id="clip0_11054_838">
<rect width="24" height="24" rx="12" fill="white"/>
</clipPath>
</defs>
</svg>
