<?xml version="1.0" encoding="UTF-8"?>
<svg id="Layer_1" data-name="Layer 1" xmlns="http://www.w3.org/2000/svg" version="1.1" viewBox="0 0 200 200">

  <rect stroke-width="0" fill="#4ee59a" x="0" y="0" width="200" height="200" rx="100" ry="100"/>
  <g>
    <path stroke-width="0" fill="#1c1c1c" d="M68.3,72.3c-2.4,0-4.8,3.1-7.6,9.5-3.2,8.4-6.9,17.9-6.9,17.9,0,0,4,12,6.2,17.9h0c2.2,5.9,3.5,9.5,9.1,9.5h0c2.4,0,4.8-3.1,7.6-9.5,3.2-8.4,6.9-17.9,6.9-17.9,0,0-4-12-6.2-17.9-2.2-5.9-3.5-9.5-9.1-9.5Z"/>
    <path stroke-width="0"   fill="#1c1c1c" d="M115.4,53.8c-7.7,0-10.9,7.5-12.9,11.6-2,4.1-18.9,34.4-18.9,34.4h0s15.9,29.6,18.2,34.4h0c2.4,4.8,6.2,11.6,13.9,11.6s10.9-7.5,12.9-11.6,18.9-34.4,18.9-34.4h0s-15.9-29.6-18.2-34.4-6.2-11.6-13.9-11.6Z"/>
    <path stroke-width="0" fill="#1c1c1c"  d="M100.4,21.4c-43.3,0-78.4,35.1-78.4,78.4s35.1,78.4,78.4,78.4,78.4-35.1,78.4-78.4S143.7,21.4,100.4,21.4ZM100.4,162.7c-34.8,0-63-28.2-63-63h0c0-34.8,28.2-63,63-63s63,28.2,63,63-28.2,63-63,63Z"/>
  </g>
</svg>