<svg width="16" height="16" viewBox="0 0 16 16" fill="none" xmlns="http://www.w3.org/2000/svg">
<path d="M5.13775 2.19526C4.8774 1.93491 4.45529 1.93491 4.19494 2.19526L1.52827 4.86193C1.26792 5.12228 1.26792 5.54439 1.52827 5.80474C1.78862 6.06509 2.21073 6.06509 2.47108 5.80474L3.99967 4.27614L3.99967 13.3333C3.99968 13.7015 4.29815 14 4.66634 14C5.03453 14 5.33301 13.7015 5.33301 13.3333L5.33301 4.27614L6.8616 5.80474C7.12195 6.06509 7.54406 6.06509 7.80441 5.80474C8.06476 5.54439 8.06476 5.12228 7.80441 4.86193L5.13775 2.19526Z" />
<path d="M11.9997 11.7239V2.66667C11.9997 2.29848 11.7012 2 11.333 2C10.9648 2 10.6663 2.29848 10.6663 2.66667V11.7239L9.13775 10.1953C8.8774 9.93491 8.45529 9.93491 8.19494 10.1953C7.93459 10.4556 7.93459 10.8777 8.19494 11.1381L10.8616 13.8047C11.122 14.0651 11.5441 14.0651 11.8044 13.8047L14.4711 11.1381C14.7314 10.8777 14.7314 10.4556 14.4711 10.1953C14.2107 9.93491 13.7886 9.93491 13.5283 10.1953L11.9997 11.7239Z"/>
</svg>
