<svg width="64" height="64" viewBox="0 0 64 64" fill="none" xmlns="http://www.w3.org/2000/svg">
<g clip-path="url(#clip0_121_276)">
<circle cx="32" cy="32" r="32" fill="#FFFEFE"/>
<path d="M28.0836 0.166161C16.248 1.77099 6.39339 9.5193 2.10549 20.6026C-1.53045 30.0059 -0.326826 41.0642 5.23992 49.5146C16.223 66.1898 39.5431 68.9481 53.9866 55.282C66.9004 43.0452 67.5022 22.9096 55.3406 10.0459C49.3476 3.72687 41.6494 0.291538 32.9232 0.0157086C31.2682 -0.0344422 29.0867 0.0407841 28.0836 0.166161ZM37.8129 9.04286C46.2884 11.3247 52.6826 17.719 54.9896 26.2195C55.6415 28.6769 55.792 33.8926 55.2403 36.5255C53.46 45.4022 46.8401 52.4484 38.0386 54.8557C34.9794 55.6832 29.1117 55.6832 26.0275 54.8557C15.6964 52.0723 8.47465 42.669 8.47465 31.9869C8.47465 20.6779 16.2731 11.1492 27.532 8.76704C29.7637 8.31568 35.6063 8.46613 37.8129 9.04286Z" fill="#7B2BF9"/>
<path d="M27.9332 10.8232C25.6011 11.2495 22.7927 12.3278 20.887 13.5565C20.1347 14.0329 19.5078 14.4592 19.5078 14.4843C19.5078 14.5344 21.238 14.5595 23.3444 14.5846C26.0274 14.5846 27.7075 14.7099 29.0365 15.0108C30.0646 15.2616 31.218 15.5124 31.5691 15.5876C32.1458 15.713 32.3464 15.5625 33.3996 13.9577C34.0516 12.9797 34.854 11.9767 35.205 11.7009C35.531 11.4501 35.8068 11.1242 35.8068 10.9737C35.8068 10.3468 31.0676 10.2465 27.9332 10.8232Z" fill="#7B2BF9"/>
<path d="M37.8631 12.3528C36.4338 13.0549 34.0517 16.1141 34.5783 16.5404C34.6284 16.5655 36.0326 17.2425 37.6625 18.0449C41.2985 19.7751 44.7087 21.9818 45.3607 23.06C45.9876 24.0881 46.0127 25.9938 45.4109 26.5204C45.1601 26.721 44.0568 27.1473 42.9535 27.4482C40.3707 28.2005 36.9855 29.5044 34.2774 30.8836C33.0737 31.4854 32.0456 31.8866 31.9453 31.8113C31.8701 31.711 31.7949 31.2346 31.7949 30.7331C31.7949 29.8053 31.7949 29.8053 34.2523 28.6518C37.2363 27.2476 40.6214 25.9437 42.8782 25.3419C44.9093 24.7902 44.9344 24.8153 41.7248 22.6839C38.6656 20.6277 36.0577 19.3489 32.497 18.1703C24.8239 15.5875 18.1288 16.0389 14.8188 19.3238C11.9352 22.2325 12.1107 26.1694 15.3705 31.1092C16.6243 32.9899 20.1599 36.7512 20.6865 36.7512C20.8369 36.7512 21.865 36.0742 22.9934 35.2718C24.1469 34.4443 25.9022 33.2406 26.9052 32.6138C28.9864 31.3349 28.8861 31.5355 29.162 27.8494C29.3626 25.392 29.8892 22.4582 30.5662 20.2766C31.0677 18.6467 31.0928 18.6467 31.8701 18.7972C32.2964 18.8724 32.7227 19.073 32.7979 19.2235C32.8982 19.3489 32.6976 20.3519 32.3967 21.4552C31.0176 26.1945 30.6163 34.0932 31.4689 39.4844C32.1209 43.6219 32.1209 43.5467 30.6916 44.1234L29.488 44.65L26.4287 43.0702C19.1067 39.3089 13.6654 33.8675 11.4838 28.1002C11.208 27.373 11.1829 27.373 10.9071 27.8494C10.7065 28.1754 10.6062 29.6047 10.6312 31.9869C10.6312 34.8956 10.7566 36.024 11.1829 37.6288C11.8599 40.0612 13.7155 43.8726 14.2922 43.9729C14.5681 44.0231 14.8941 43.7222 15.22 43.0451C15.5209 42.4935 16.3484 41.3902 17.1007 40.5877C18.3545 39.2337 18.4798 39.1584 19.1067 39.4594C20.0345 39.8606 19.9342 40.3621 18.6303 41.8415C17.4517 43.1956 16.2481 45.3019 16.2481 46.0542C16.2481 46.3049 16.524 46.7062 16.875 46.982C19.1067 48.7623 27.3064 46.9318 35.6816 42.7944C39.2423 41.0391 44.4078 37.8545 46.4139 36.1995L47.116 35.6228V31.4854C47.0909 23.386 45.3858 16.8915 42.477 13.732C40.8722 11.9767 39.468 11.5504 37.8631 12.3528Z" fill="#7B2BF9"/>
<path d="M46.5894 16.4903C46.5894 16.5404 46.815 17.1673 47.1159 17.9196C47.3918 18.6718 47.8431 20.2516 48.119 21.4301C48.4199 22.6087 48.7458 23.7371 48.8963 23.8875C49.0467 24.0881 49.7489 24.2135 50.6516 24.2135C52.0809 24.2135 52.131 24.1884 51.9806 23.6368C51.7298 22.8344 50.4008 20.4773 49.5232 19.3238C48.144 17.4933 46.5894 16.0138 46.5894 16.4903Z" fill="#7B2BF9"/>
<path d="M49.5986 26.5455C49.5986 26.7712 49.724 27.0219 49.8494 27.0972C49.9998 27.1975 50.5515 27.8745 51.1282 28.6268C51.6799 29.379 52.2065 29.9808 52.3319 29.9808C52.6578 29.9808 53.1092 28.7772 53.1092 27.8996C53.1092 26.8966 52.5325 26.4954 50.8273 26.2947C49.8243 26.1694 49.5986 26.2195 49.5986 26.5455Z" fill="#7B2BF9"/>
<path d="M49.3477 31.7863V33.6168L50.1501 32.8144L50.9274 32.012L50.2754 31.009C49.8993 30.4322 49.5483 29.9809 49.473 29.9809C49.3978 29.9809 49.3477 30.8084 49.3477 31.7863Z" fill="#7B2BF9"/>
<path d="M26.1275 35.5727C23.6199 37.2778 22.5166 38.1304 22.5166 38.331C22.5166 38.5316 26.303 40.7884 28.2589 41.7663L29.8637 42.5687L29.7133 41.8415C29.5377 41.0893 29.1365 37.7793 28.8858 35.4222C28.8105 34.6449 28.6852 33.9929 28.5849 33.9929C28.4846 33.9929 27.3812 34.695 26.1275 35.5727Z" fill="#7B2BF9"/>
<path d="M50.1753 35.7231C49.2725 36.5255 48.8463 37.1274 48.8463 37.5286C48.8463 37.8545 48.5955 39.4092 48.2946 40.9388C47.9937 42.4935 47.8182 43.8476 47.9185 43.9228C48.1191 44.1234 50.075 42.9699 50.7771 42.2177C51.8052 41.1394 52.4571 39.2838 52.432 37.5035C52.407 35.8987 52.0559 34.4944 51.6798 34.4944C51.5544 34.4944 50.8774 35.0461 50.1753 35.7231Z" fill="#7B2BF9"/>
<path d="M44.7086 39.8857C43.9062 40.4624 41.85 41.7412 40.1449 42.669C38.4648 43.6219 37.0857 44.4745 37.0606 44.5748C37.0355 45.1766 44.3576 45.3521 44.9594 44.7503C45.3104 44.4243 46.5893 39.9358 46.5893 39.1083C46.5893 38.6068 46.3636 38.682 44.7086 39.8857Z" fill="#7B2BF9"/>
<path d="M33.2993 46.3802C33.2993 47.6089 35.5561 50.8687 36.9603 51.6962C38.5902 52.649 39.9945 52.4233 41.5491 50.969C42.4518 50.0913 43.831 48.1104 43.831 47.659C43.831 47.4584 42.8781 47.308 41.0225 47.1826C39.4679 47.1074 37.4117 46.8566 36.4337 46.656C35.4809 46.4303 34.3776 46.2046 34.0014 46.1043C33.4498 46.004 33.2993 46.0542 33.2993 46.3802Z" fill="#7B2BF9"/>
<path d="M46.4386 47.1575C45.8117 48.1354 46.263 48.2357 47.1658 47.333C47.918 46.5808 47.918 46.5306 47.4165 46.5306C47.0905 46.5306 46.6643 46.8064 46.4386 47.1575Z" fill="#7B2BF9"/>
<path d="M29.0363 47.7844C27.7825 48.311 23.2689 49.4143 21.4384 49.6651C19.9088 49.8657 20.1094 50.1666 22.617 51.3702C25.4756 52.7744 27.7324 53.3261 31.2931 53.4515C35.255 53.627 35.5057 53.4765 34.1015 51.972C33.5499 51.3451 32.6722 50.0412 32.1707 49.0633C31.1677 47.0572 30.9922 47.0071 29.0363 47.7844Z" fill="#7B2BF9"/>
</g>
<defs>
<clipPath id="clip0_121_276">
<rect width="64" height="64" fill="white"/>
</clipPath>
</defs>
</svg>
