<svg width="276" height="276" viewBox="0 0 276 276" fill="none" xmlns="http://www.w3.org/2000/svg">
<path d="M275.999 137.391C276.119 164.685 268.143 191.402 253.079 214.163C238.016 236.923 216.541 254.706 191.371 265.262C166.2 275.818 138.465 278.673 111.672 273.465C84.8793 268.258 60.2324 255.223 40.8481 236.008C21.4638 216.793 8.21279 192.261 2.77084 165.515C-2.67112 138.769 -0.0596228 111.009 10.2751 85.7475C20.6098 60.4856 38.2035 38.8556 60.8313 23.5929C83.4592 8.33018 110.105 0.120248 137.399 0.00131204C173.997 -0.158168 209.16 14.227 235.152 39.9924C261.144 65.7578 275.837 100.793 275.999 137.391Z" fill="#8DC63F"/>
<path d="M265.648 137.441C265.763 162.684 258.389 187.394 244.46 208.446C230.531 229.499 210.672 245.947 187.394 255.713C164.116 265.478 138.466 268.122 113.685 263.309C88.9054 258.496 66.109 246.443 48.1792 228.674C30.2493 210.905 17.9913 188.218 12.9553 163.482C7.91933 138.747 10.3315 113.073 19.8868 89.7082C29.4421 66.3435 45.7114 46.3369 66.6372 32.2186C87.563 18.1003 112.205 10.5044 137.448 10.3914C171.296 10.2425 203.816 23.5436 227.857 47.3693C251.899 71.195 265.492 103.594 265.648 137.441Z" fill="#F9E988"/>
<path d="M140.349 18.6614C148.462 17.2213 156.766 17.2213 164.879 18.6614C173.071 19.9585 180.989 22.6115 188.309 26.5114C195.589 30.5114 201.879 35.9414 208.139 41.0314C214.399 46.1214 220.629 51.3314 226.559 57.0314C232.612 62.6425 237.895 69.0315 242.269 76.0314C246.772 82.9757 250.463 90.4145 253.269 98.2014C258.599 113.861 260.449 130.731 257.789 146.821H256.999C254.329 130.871 250.709 115.671 244.999 101.211C242.319 93.9298 239.165 86.8314 235.559 79.9614C231.796 73.0903 227.649 66.4364 223.139 60.0314C218.552 53.5561 212.93 47.8802 206.499 43.2314C200.019 38.6114 192.569 35.6214 185.359 32.7814C178.149 29.9414 170.999 27.0014 163.479 24.8414C155.959 22.6814 148.319 21.0614 140.339 19.4914L140.349 18.6614Z" fill="white"/>
<path d="M202.739 92.3913C193.479 89.7113 183.879 85.9113 174.159 82.0713C173.599 79.6313 171.439 76.5913 167.069 72.8813C160.719 67.3713 148.789 67.5113 138.479 69.9513C127.099 67.2713 115.859 66.3213 105.069 68.9513C16.819 93.2613 66.859 152.571 34.459 212.191C39.069 221.971 88.759 279.031 160.659 263.721C160.659 263.721 136.069 204.631 191.559 176.271C236.569 153.181 269.089 110.461 202.739 92.3913Z" fill="#8BC53F"/>
<path d="M213.638 131.201C213.644 132.259 213.336 133.296 212.753 134.179C212.17 135.062 211.339 135.752 210.363 136.163C209.388 136.573 208.313 136.685 207.274 136.484C206.235 136.284 205.279 135.779 204.527 135.035C203.774 134.291 203.259 133.341 203.047 132.304C202.835 131.268 202.935 130.192 203.334 129.212C203.734 128.232 204.415 127.393 205.291 126.8C206.168 126.207 207.2 125.887 208.258 125.881C209.677 125.876 211.039 126.433 212.047 127.43C213.056 128.427 213.628 129.783 213.638 131.201Z" fill="white"/>
<path d="M138.479 69.9112C144.909 70.3712 168.159 77.9112 174.159 82.0312C169.159 67.5312 152.329 65.6012 138.479 69.9112Z" fill="#009345"/>
<path d="M144.598 106.581C144.6 111.463 143.154 116.236 140.444 120.296C137.733 124.355 133.879 127.52 129.37 129.39C124.86 131.259 119.898 131.75 115.11 130.798C110.321 129.847 105.923 127.497 102.47 124.046C99.0179 120.595 96.6663 116.198 95.7132 111.41C94.7601 106.622 95.2483 101.659 97.116 97.1491C98.9837 92.6388 102.147 88.7837 106.206 86.0714C110.265 83.3591 115.037 81.9114 119.918 81.9114C123.159 81.9101 126.368 82.5472 129.362 83.7864C132.356 85.0256 135.077 86.8426 137.369 89.1335C139.661 91.4245 141.479 94.1445 142.719 97.1383C143.96 100.132 144.598 103.341 144.598 106.581Z" fill="white"/>
<path d="M137.279 106.801C137.279 110.235 136.26 113.591 134.353 116.446C132.445 119.301 129.734 121.526 126.562 122.84C123.39 124.154 119.899 124.498 116.532 123.828C113.164 123.158 110.071 121.505 107.643 119.077C105.215 116.649 103.562 113.556 102.892 110.188C102.222 106.821 102.566 103.33 103.88 100.158C105.194 96.9859 107.419 94.2746 110.274 92.3671C113.129 90.4595 116.485 89.4414 119.919 89.4414C124.523 89.4414 128.938 91.2704 132.194 94.526C135.45 97.7817 137.279 102.197 137.279 106.801Z" fill="#58595B"/>
<path d="M233.629 142.081C213.629 156.171 190.889 166.861 158.629 166.861C143.529 166.861 140.469 150.861 130.489 158.681C125.339 162.741 107.179 171.821 92.7691 171.131C78.3591 170.441 54.9991 161.991 48.4891 131.231C45.9091 161.991 44.5891 184.651 33.0391 210.621C56.0391 247.451 110.879 275.861 160.659 263.621C155.309 226.271 187.949 189.691 206.339 170.971C213.339 163.881 226.639 152.311 233.629 142.061V142.081Z" fill="#8BC53F"/>
<path d="M232.849 143.001C226.639 148.661 219.249 152.851 211.729 156.551C204.117 160.166 196.182 163.055 188.029 165.181C179.869 167.291 171.359 168.881 162.739 168.101C154.119 167.321 145.309 164.391 139.599 157.931L139.869 157.621C146.869 162.161 154.949 163.761 162.989 163.991C171.138 164.239 179.289 163.568 187.289 161.991C195.369 160.3 203.274 157.856 210.899 154.691C218.529 151.541 226.079 147.891 232.579 142.691L232.849 143.001Z" fill="#58595B"/>
</svg>
