<svg width="24" height="24" viewBox="0 0 24 24" fill="none" xmlns="http://www.w3.org/2000/svg">
<g clip-path="url(#clip0_2323_13945)">
<path fill-rule="evenodd" clip-rule="evenodd" d="M12 0C18.6274 0 24 5.37257 24 12C24 18.6274 18.6274 24 12 24C5.37257 24 0 18.6274 0 12C0 5.37257 5.37257 0 12 0Z" fill="#2E3148"/>
<path fill-rule="evenodd" clip-rule="evenodd" d="M11.9776 5.0791C15.8023 5.0791 18.8981 8.17491 18.8981 11.9996C18.8981 15.8242 15.8023 18.9201 11.9776 18.9201C8.15293 18.9201 5.05713 15.8242 5.05713 11.9996C5.05713 8.17491 8.15293 5.0791 11.9776 5.0791Z" fill="#1B1E36"/>
<path fill-rule="evenodd" clip-rule="evenodd" d="M12.188 2.05116C12.0904 1.96099 12.0453 1.96099 12.0378 1.96099C12.0303 1.96099 11.9777 1.96099 11.8875 2.05116C11.7898 2.14133 11.6696 2.29912 11.5494 2.53958C11.3014 3.02048 11.0534 3.74183 10.8505 4.67358C10.6176 5.72555 10.4298 7.00295 10.317 8.43814C10.8806 8.70864 11.4592 9.00921 12.0453 9.3248C12.6314 9.00921 13.21 8.70864 13.7735 8.43814C13.6608 7.00295 13.473 5.71804 13.24 4.67358C13.0296 3.74183 12.7892 3.02048 12.5412 2.53958C12.406 2.29912 12.2857 2.14133 12.188 2.05116ZM11.5418 9.59531C11.1135 9.36237 10.6852 9.15197 10.272 8.94158C10.2419 9.40745 10.2194 9.88084 10.1968 10.3693C10.4147 10.234 10.6401 10.1063 10.8656 9.97853C11.091 9.85079 11.3164 9.71553 11.5418 9.59531ZM9.85117 8.22774C10.1893 4.29036 11.0384 1.49512 12.0303 1.49512C13.0221 1.49512 13.8712 4.29036 14.2093 8.22774C17.7936 6.5521 20.6339 5.89086 21.1298 6.74747C21.6257 7.61159 19.627 9.73807 16.3884 11.9998C19.6345 14.2616 21.6257 16.3956 21.1298 17.2522C20.6339 18.1163 17.786 17.4475 14.2093 15.7719C13.8712 19.7093 13.0221 22.5045 12.0303 22.5045C11.0384 22.5045 10.1893 19.7093 9.85117 15.7719C6.26695 17.4475 3.42662 18.1088 2.93069 17.2522C2.43476 16.388 4.43351 14.2616 7.67208 11.9998C4.43351 9.73807 2.43476 7.60407 2.93069 6.74747C3.42662 5.88335 6.27446 6.54459 9.85117 8.22774ZM8.08536 11.7143C6.89813 10.8952 5.87621 10.0912 5.08723 9.36988C4.38091 8.72367 3.87747 8.1526 3.58442 7.69424C3.44165 7.46882 3.36651 7.28848 3.33645 7.15323C3.3064 7.02549 3.32894 6.9804 3.33645 6.9804C3.34397 6.97289 3.36651 6.93532 3.48673 6.89023C3.61447 6.85266 3.80984 6.83012 4.08035 6.83764C4.62136 6.86018 5.36526 7.01046 6.28197 7.29599C7.31141 7.6191 8.51366 8.1 9.8136 8.71616C9.76851 9.33983 9.73846 9.98604 9.71591 10.6548C9.15236 11.0155 8.60383 11.3611 8.08536 11.7143ZM8.08536 12.2854C6.89813 13.1044 5.87621 13.9084 5.08723 14.6297C4.38091 15.276 3.87747 15.847 3.58442 16.3054C3.44165 16.5308 3.36651 16.7112 3.33645 16.8464C3.3064 16.9741 3.32894 17.0192 3.33645 17.0192C3.34397 17.0267 3.36651 17.0643 3.48673 17.1094C3.61447 17.147 3.80984 17.1695 4.08035 17.162C4.62136 17.1395 5.36526 16.9892 6.28197 16.7036C7.31141 16.3805 8.51366 15.8996 9.8136 15.2835C9.76851 14.6598 9.73846 14.0136 9.71591 13.3448C9.15236 12.9842 8.60383 12.631 8.08536 12.2854ZM9.7084 12.7738C9.29512 12.5183 8.88936 12.2553 8.50615 11.9998C8.88936 11.7443 9.29512 11.4813 9.7084 11.2259C9.70089 11.4813 9.70089 11.7443 9.70089 11.9998C9.70089 12.2628 9.70089 12.5183 9.7084 12.7738ZM10.1818 13.0668C10.1743 12.7137 10.1668 12.3605 10.1668 11.9998C10.1668 11.6391 10.1743 11.2785 10.1818 10.9328C10.4824 10.7525 10.7904 10.5646 11.106 10.3843C11.4216 10.2039 11.7297 10.0311 12.0378 9.8583C12.3458 10.0236 12.6614 10.2039 12.9695 10.3843C13.2851 10.5646 13.5932 10.745 13.8937 10.9328C13.9013 11.286 13.9088 11.6391 13.9088 11.9998C13.9088 12.3605 13.9013 12.7212 13.8937 13.0668C13.5932 13.2472 13.2851 13.435 12.9695 13.6153C12.6539 13.7957 12.3458 13.9685 12.0378 14.1413C11.7297 13.976 11.4141 13.7957 11.106 13.6153C10.7904 13.435 10.4824 13.2547 10.1818 13.0668ZM10.1968 13.6304C10.2118 14.1188 10.2419 14.5922 10.272 15.0581C10.6852 14.8552 11.1135 14.6373 11.5418 14.4043C11.3164 14.2766 11.091 14.1488 10.8656 14.0211C10.6401 13.8934 10.4147 13.7581 10.1968 13.6304ZM12.0378 14.6748C11.4517 14.9904 10.8731 15.291 10.3095 15.5615C10.4222 16.9967 10.6101 18.2816 10.843 19.3261C11.0534 20.2578 11.2939 20.9792 11.5418 21.4601C11.6696 21.7005 11.7823 21.8583 11.88 21.9485C11.9777 22.0386 12.0227 22.0386 12.0303 22.0386C12.0378 22.0386 12.0904 22.0386 12.1805 21.9485C12.2782 21.8583 12.3984 21.7005 12.5187 21.4601C12.7666 20.9792 13.0146 20.2578 13.2175 19.3261C13.4504 18.2741 13.6383 16.9967 13.751 15.5615C13.2025 15.2835 12.6239 14.9904 12.0378 14.6748ZM14.2544 15.276C15.5544 15.8921 16.7566 16.373 17.786 16.6961C18.6953 16.9817 19.4467 17.1395 19.9877 17.1545C20.2582 17.162 20.4535 17.1395 20.5813 17.1019C20.7015 17.0643 20.7316 17.0192 20.7316 17.0117C20.7391 17.0042 20.7616 16.9591 20.7316 16.8389C20.7015 16.7112 20.6264 16.5308 20.4836 16.2979C20.1981 15.8395 19.6871 15.2684 18.9808 14.6222C18.1843 13.8934 17.1699 13.0969 15.9827 12.2778C15.4642 12.631 14.9232 12.9766 14.3521 13.3298C14.3371 14.0061 14.2995 14.6523 14.2544 15.276ZM15.9827 11.7143C17.1699 10.8952 18.1918 10.0912 18.9808 9.36988C19.6871 8.72367 20.1906 8.1526 20.4836 7.69424C20.6264 7.46882 20.7015 7.28848 20.7316 7.15323C20.7616 7.02549 20.7391 6.9804 20.7316 6.9804C20.7241 6.97289 20.7015 6.93532 20.5813 6.89023C20.4535 6.85266 20.2582 6.83012 19.9877 6.83764C19.4467 6.86018 18.7028 7.01046 17.786 7.29599C16.7566 7.6191 15.5544 8.1 14.2544 8.71616C14.2995 9.33983 14.3296 9.98604 14.3521 10.6548C14.9232 11.0155 15.4642 11.3611 15.9827 11.7143ZM14.3671 11.2259C14.7804 11.4813 15.1787 11.7443 15.5694 11.9998C15.1862 12.2553 14.7804 12.5183 14.3671 12.7738C14.3746 12.5183 14.3746 12.2553 14.3746 11.9998C14.3746 11.7443 14.3671 11.4813 14.3671 11.2259ZM13.8712 10.3693C13.8562 9.88084 13.8261 9.40745 13.7961 8.94158C13.3828 9.14446 12.9545 9.36237 12.5262 9.59531C12.7516 9.72305 12.977 9.85079 13.2025 9.97853C13.4279 10.1063 13.6533 10.2415 13.8712 10.3693ZM13.8036 15.0581C13.3903 14.8552 12.962 14.6373 12.5337 14.4043C12.7591 14.2766 12.9845 14.1488 13.21 14.0211C13.4354 13.8934 13.6608 13.7581 13.8787 13.6304C13.8562 14.1188 13.8336 14.5922 13.8036 15.0581Z" fill="#6F738F"/>
<path fill-rule="evenodd" clip-rule="evenodd" d="M5.31988 9.05469C5.72564 9.05469 6.05626 9.38531 6.05626 9.79107C6.05626 10.1968 5.72564 10.5274 5.31988 10.5274C4.91412 10.5274 4.5835 10.1968 4.5835 9.79107C4.5835 9.38531 4.91412 9.05469 5.31988 9.05469Z" fill="#B7B9C8"/>
<path fill-rule="evenodd" clip-rule="evenodd" d="M17.0646 6.5293C17.4704 6.5293 17.801 6.85992 17.801 7.26568C17.801 7.67144 17.4704 8.00206 17.0646 8.00206C16.6589 8.00206 16.3283 7.67144 16.3283 7.26568C16.3207 6.85992 16.6514 6.5293 17.0646 6.5293Z" fill="#B7B9C8"/>
<path fill-rule="evenodd" clip-rule="evenodd" d="M10.55 18.124C10.9557 18.124 11.2864 18.4546 11.2864 18.8604C11.2864 19.2662 10.9557 19.5968 10.55 19.5968C10.1442 19.5968 9.8136 19.2662 9.8136 18.8604C9.80609 18.4546 10.1367 18.124 10.55 18.124Z" fill="#B7B9C8"/>
<path fill-rule="evenodd" clip-rule="evenodd" d="M11.9926 10.7451C12.6839 10.7451 13.2475 11.3087 13.2475 12C13.2475 12.6913 12.6839 13.2548 11.9926 13.2548C11.3014 13.2548 10.7378 12.6913 10.7378 12C10.7378 11.3087 11.3014 10.7451 11.9926 10.7451Z" fill="#B7B9C8"/>
</g>
<defs>
<clipPath id="clip0_2323_13945">
<rect width="24" height="24" fill="white"/>
</clipPath>
</defs>
</svg>
