<svg width="32" height="32" viewBox="0 0 32 32" fill="none" xmlns="http://www.w3.org/2000/svg">
<circle cx="16" cy="16" r="13" fill="#FF5C28"/>
<path d="M10.6002 19.5716C10.6981 19.4738 10.8309 19.4189 10.9692 19.4189H23.7384C23.971 19.4189 24.0875 19.7002 23.9229 19.8646L21.3998 22.3857C21.3019 22.4836 21.1691 22.5385 21.0308 22.5385H8.26157C8.02895 22.5385 7.91251 22.2572 8.07705 22.0928L10.6002 19.5716Z" fill="white"/>
<path d="M10.6002 10.1528C10.6981 10.0549 10.8309 10 10.9692 10H23.7384C23.971 10 24.0875 10.2813 23.9229 10.4457L21.3998 12.9669C21.3019 13.0647 21.1691 13.1196 21.0308 13.1196H8.26157C8.02895 13.1196 7.91251 12.8383 8.07705 12.6739L10.6002 10.1528Z" fill="white"/>
<path d="M21.3998 14.8322C21.3019 14.7344 21.1691 14.6794 21.0308 14.6794H8.26157C8.02895 14.6794 7.91251 14.9607 8.07705 15.1251L10.6002 17.6463C10.6981 17.7441 10.8309 17.7991 10.9692 17.7991H23.7384C23.971 17.7991 24.0875 17.5178 23.9229 17.3534L21.3998 14.8322Z" fill="white"/>
<path d="M16 31.5C15.6588 31.5 15.3203 31.489 14.9848 31.4673L14.9203 32.4652C15.2773 32.4883 15.6373 32.5 16 32.5V31.5ZM13.9749 31.369C13.2973 31.2806 12.6335 31.1484 11.9865 30.9755L11.7283 31.9416C12.4174 32.1258 13.1242 32.2665 13.8456 32.3606L13.9749 31.369ZM11.0158 30.6814C10.3716 30.4627 9.74639 30.2029 9.14333 29.9049L8.70036 30.8015C9.3425 31.1187 10.0083 31.3955 10.6944 31.6283L11.0158 30.6814ZM8.24913 29.426C7.66207 29.0863 7.09931 28.7092 6.56412 28.2979L5.95479 29.0908C6.52436 29.5285 7.12335 29.9299 7.74832 30.2915L8.24913 29.426ZM5.78021 27.6539C5.27163 27.2075 4.79251 26.7284 4.34614 26.2198L3.59456 26.8794C4.06954 27.4206 4.57938 27.9305 5.12057 28.4054L5.78021 27.6539ZM3.70207 25.4359C3.29079 24.9007 2.9137 24.3379 2.57403 23.7509L1.70847 24.2517C2.07007 24.8766 2.47146 25.4756 2.90915 26.0452L3.70207 25.4359ZM2.09508 22.8567C1.79712 22.2536 1.53726 21.6284 1.31864 20.9842L0.371686 21.3056C0.604537 21.9917 0.881277 22.6575 1.19855 23.2996L2.09508 22.8567ZM1.02452 20.0135C0.851571 19.3665 0.719427 18.7027 0.631036 18.0251L-0.360563 18.1544C-0.266467 18.8758 -0.125765 19.5826 0.0584412 20.2717L1.02452 20.0135ZM0.532697 17.0152C0.511014 16.6797 0.5 16.3412 0.5 16H-0.5C-0.5 16.3627 -0.488291 16.7227 -0.465221 17.0797L0.532697 17.0152ZM0.5 16C0.5 15.6588 0.511014 15.3203 0.532697 14.9848L-0.465221 14.9203C-0.488291 15.2773 -0.5 15.6373 -0.5 16H0.5ZM0.631036 13.9749C0.719427 13.2973 0.851571 12.6335 1.02452 11.9865L0.0584416 11.7283C-0.125764 12.4174 -0.266467 13.1242 -0.360563 13.8456L0.631036 13.9749ZM1.31864 11.0158C1.53726 10.3716 1.79712 9.74639 2.09509 9.14333L1.19855 8.70036C0.881278 9.3425 0.604538 10.0083 0.371687 10.6944L1.31864 11.0158ZM2.57403 8.24913C2.9137 7.66207 3.29079 7.09931 3.70207 6.56412L2.90915 5.95479C2.47146 6.52436 2.07007 7.12335 1.70847 7.74832L2.57403 8.24913ZM4.34614 5.78021C4.79251 5.27163 5.27163 4.79251 5.78021 4.34614L5.12057 3.59456C4.57938 4.06954 4.06955 4.57938 3.59456 5.12057L4.34614 5.78021ZM6.56412 3.70207C7.09931 3.29079 7.66207 2.9137 8.24913 2.57403L7.74832 1.70847C7.12336 2.07007 6.52436 2.47146 5.95479 2.90915L6.56412 3.70207ZM9.14333 2.09508C9.74639 1.79712 10.3716 1.53726 11.0158 1.31864L10.6944 0.371686C10.0083 0.604537 9.3425 0.881277 8.70036 1.19855L9.14333 2.09508ZM11.9865 1.02452C12.6335 0.851571 13.2973 0.719427 13.9749 0.631036L13.8456 -0.360563C13.1242 -0.266467 12.4174 -0.125765 11.7283 0.0584412L11.9865 1.02452ZM14.9848 0.532697C15.3203 0.511014 15.6588 0.5 16 0.5V-0.5C15.6373 -0.5 15.2773 -0.488291 14.9203 -0.465221L14.9848 0.532697ZM16 0.5C16.3412 0.5 16.6797 0.511014 17.0152 0.532697L17.0797 -0.465221C16.7227 -0.488291 16.3627 -0.5 16 -0.5V0.5ZM18.0251 0.631036C18.7027 0.719427 19.3665 0.851571 20.0135 1.02452L20.2717 0.0584416C19.5826 -0.125764 18.8758 -0.266467 18.1544 -0.360563L18.0251 0.631036ZM20.9842 1.31864C21.6284 1.53726 22.2536 1.79712 22.8567 2.09509L23.2996 1.19855C22.6575 0.881278 21.9917 0.604538 21.3056 0.371687L20.9842 1.31864ZM23.7509 2.57403C24.3379 2.9137 24.9007 3.29079 25.4359 3.70207L26.0452 2.90915C25.4756 2.47146 24.8766 2.07007 24.2517 1.70847L23.7509 2.57403ZM26.2198 4.34614C26.7284 4.79251 27.2075 5.27163 27.6539 5.78021L28.4054 5.12057C27.9305 4.57938 27.4206 4.06955 26.8794 3.59456L26.2198 4.34614ZM28.2979 6.56412C28.7092 7.09931 29.0863 7.66207 29.426 8.24913L30.2915 7.74832C29.9299 7.12336 29.5285 6.52436 29.0909 5.95479L28.2979 6.56412ZM29.9049 9.14333C30.2029 9.74639 30.4627 10.3716 30.6814 11.0158L31.6283 10.6944C31.3955 10.0083 31.1187 9.3425 30.8015 8.70036L29.9049 9.14333ZM30.9755 11.9865C31.1484 12.6335 31.2806 13.2973 31.369 13.9749L32.3606 13.8456C32.2665 13.1242 32.1258 12.4174 31.9416 11.7283L30.9755 11.9865ZM31.4673 14.9848C31.489 15.3203 31.5 15.6588 31.5 16H32.5C32.5 15.6373 32.4883 15.2773 32.4652 14.9203L31.4673 14.9848ZM31.5 16C31.5 16.3412 31.489 16.6797 31.4673 17.0152L32.4652 17.0797C32.4883 16.7227 32.5 16.3627 32.5 16H31.5ZM31.369 18.0251C31.2806 18.7027 31.1484 19.3665 30.9755 20.0135L31.9416 20.2717C32.1258 19.5826 32.2665 18.8758 32.3606 18.1544L31.369 18.0251ZM30.6814 20.9842C30.4627 21.6284 30.2029 22.2536 29.9049 22.8567L30.8015 23.2996C31.1187 22.6575 31.3955 21.9917 31.6283 21.3056L30.6814 20.9842ZM29.426 23.7509C29.0863 24.3379 28.7092 24.9007 28.2979 25.4359L29.0908 26.0452C29.5285 25.4756 29.9299 24.8766 30.2915 24.2517L29.426 23.7509ZM27.6539 26.2198C27.2075 26.7284 26.7284 27.2075 26.2198 27.6539L26.8794 28.4054C27.4206 27.9305 27.9305 27.4206 28.4054 26.8794L27.6539 26.2198ZM25.4359 28.2979C24.9007 28.7092 24.3379 29.0863 23.7509 29.426L24.2517 30.2915C24.8766 29.9299 25.4756 29.5285 26.0452 29.0909L25.4359 28.2979ZM22.8567 29.9049C22.2536 30.2029 21.6284 30.4627 20.9842 30.6814L21.3056 31.6283C21.9917 31.3955 22.6575 31.1187 23.2996 30.8015L22.8567 29.9049ZM20.0135 30.9755C19.3665 31.1484 18.7027 31.2806 18.0251 31.369L18.1544 32.3606C18.8758 32.2665 19.5826 32.1258 20.2717 31.9416L20.0135 30.9755ZM17.0152 31.4673C16.6797 31.489 16.3412 31.5 16 31.5V32.5C16.3627 32.5 16.7227 32.4883 17.0797 32.4652L17.0152 31.4673ZM16 31C15.6696 31 15.3419 30.9893 15.017 30.9683L14.8881 32.9642C15.2558 32.9879 15.6266 33 16 33V31ZM14.0396 30.8732C13.3838 30.7876 12.7416 30.6598 12.1156 30.4924L11.5992 32.4246C12.3093 32.6144 13.0377 32.7594 13.7809 32.8564L14.0396 30.8732ZM11.1765 30.2079C10.5532 29.9964 9.94833 29.745 9.36481 29.4566L8.47888 31.2497C9.14055 31.5766 9.82665 31.8618 10.5337 32.1018L11.1765 30.2079ZM8.49953 28.9932C7.93143 28.6645 7.38679 28.2995 6.86878 27.9015L5.65013 29.4873C6.23688 29.9382 6.854 30.3517 7.49792 30.7243L8.49953 28.9932ZM6.11003 27.2781C5.61775 26.846 5.15399 26.3822 4.72193 25.89L3.21877 27.2092C3.70806 27.7667 4.23325 28.2919 4.79075 28.7812L6.11003 27.2781ZM4.09853 25.1312C3.70046 24.6132 3.33551 24.0686 3.00681 23.5005L1.27569 24.5021C1.64826 25.146 2.06179 25.7631 2.51269 26.3499L4.09853 25.1312ZM2.54335 22.6352C2.25504 22.0517 2.00363 21.4468 1.79211 20.8235L-0.101789 21.4663C0.138174 22.1733 0.423355 22.8594 0.750276 23.5211L2.54335 22.6352ZM1.50756 19.8844C1.34024 19.2584 1.21237 18.6162 1.12684 17.9604L-0.856363 18.2191C-0.759414 18.9623 -0.614432 19.6907 -0.424599 20.4008L1.50756 19.8844ZM1.03166 16.983C1.01067 16.6581 1 16.3304 1 16H-1C-1 16.3734 -0.987943 16.7442 -0.96418 17.1119L1.03166 16.983ZM1 16C1 15.6696 1.01067 15.3419 1.03166 15.017L-0.96418 14.8881C-0.987943 15.2558 -1 15.6266 -1 16H1ZM1.12684 14.0396C1.21237 13.3838 1.34024 12.7416 1.50756 12.1156L-0.424599 11.5992C-0.614432 12.3093 -0.759414 13.0377 -0.856363 13.7809L1.12684 14.0396ZM1.79211 11.1765C2.00363 10.5532 2.25505 9.94833 2.54336 9.36481L0.750277 8.47888C0.423355 9.14055 0.138174 9.82665 -0.101789 10.5337L1.79211 11.1765ZM3.00681 8.49953C3.33551 7.93143 3.70046 7.38679 4.09853 6.86878L2.51269 5.65013C2.06179 6.23688 1.64826 6.854 1.27569 7.49792L3.00681 8.49953ZM4.72193 6.11003C5.15399 5.61775 5.61776 5.15399 6.11003 4.72193L4.79075 3.21877C4.23326 3.70806 3.70807 4.23325 3.21877 4.79075L4.72193 6.11003ZM6.86878 4.09853C7.38679 3.70046 7.93143 3.33551 8.49953 3.00681L7.49792 1.27569C6.854 1.64826 6.23689 2.06179 5.65013 2.51269L6.86878 4.09853ZM9.36481 2.54335C9.94834 2.25504 10.5532 2.00363 11.1765 1.79211L10.5337 -0.101789C9.82665 0.138174 9.14055 0.423355 8.47888 0.750276L9.36481 2.54335ZM12.1156 1.50756C12.7416 1.34024 13.3838 1.21237 14.0396 1.12684L13.7809 -0.856363C13.0377 -0.759414 12.3093 -0.614432 11.5992 -0.424599L12.1156 1.50756ZM15.017 1.03166C15.3419 1.01067 15.6696 1 16 1V-1C15.6266 -1 15.2558 -0.987943 14.8881 -0.96418L15.017 1.03166ZM16 1C16.3304 1 16.6581 1.01067 16.983 1.03166L17.1119 -0.96418C16.7442 -0.987943 16.3734 -1 16 -1V1ZM17.9604 1.12684C18.6162 1.21237 19.2584 1.34024 19.8844 1.50756L20.4008 -0.424599C19.6907 -0.614432 18.9623 -0.759414 18.2191 -0.856363L17.9604 1.12684ZM20.8235 1.79211C21.4468 2.00363 22.0517 2.25505 22.6352 2.54336L23.5211 0.750277C22.8594 0.423355 22.1734 0.138174 21.4663 -0.101789L20.8235 1.79211ZM23.5005 3.00681C24.0686 3.33551 24.6132 3.70046 25.1312 4.09853L26.3499 2.51269C25.7631 2.06179 25.146 1.64826 24.5021 1.27569L23.5005 3.00681ZM25.89 4.72193C26.3822 5.15399 26.846 5.61776 27.2781 6.11003L28.7812 4.79075C28.2919 4.23326 27.7667 3.70807 27.2093 3.21877L25.89 4.72193ZM27.9015 6.86878C28.2995 7.38679 28.6645 7.93143 28.9932 8.49953L30.7243 7.49792C30.3517 6.854 29.9382 6.23689 29.4873 5.65013L27.9015 6.86878ZM29.4566 9.36481C29.745 9.94834 29.9964 10.5532 30.2079 11.1765L32.1018 10.5337C31.8618 9.82665 31.5766 9.14055 31.2497 8.47888L29.4566 9.36481ZM30.4924 12.1156C30.6598 12.7416 30.7876 13.3838 30.8732 14.0396L32.8564 13.7809C32.7594 13.0377 32.6144 12.3093 32.4246 11.5992L30.4924 12.1156ZM30.9683 15.017C30.9893 15.3419 31 15.6696 31 16H33C33 15.6266 32.9879 15.2558 32.9642 14.8881L30.9683 15.017ZM31 16C31 16.3304 30.9893 16.6581 30.9683 16.983L32.9642 17.1119C32.9879 16.7442 33 16.3734 33 16H31ZM30.8732 17.9604C30.7876 18.6162 30.6598 19.2584 30.4924 19.8844L32.4246 20.4008C32.6144 19.6907 32.7594 18.9623 32.8564 18.2191L30.8732 17.9604ZM30.2079 20.8235C29.9964 21.4468 29.745 22.0517 29.4566 22.6352L31.2497 23.5211C31.5766 22.8594 31.8618 22.1734 32.1018 21.4663L30.2079 20.8235ZM28.9932 23.5005C28.6645 24.0686 28.2995 24.6132 27.9015 25.1312L29.4873 26.3499C29.9382 25.7631 30.3517 25.146 30.7243 24.5021L28.9932 23.5005ZM27.2781 25.89C26.846 26.3822 26.3822 26.846 25.89 27.2781L27.2092 28.7812C27.7667 28.2919 28.2919 27.7667 28.7812 27.2093L27.2781 25.89ZM25.1312 27.9015C24.6132 28.2995 24.0686 28.6645 23.5005 28.9932L24.5021 30.7243C25.146 30.3517 25.7631 29.9382 26.3499 29.4873L25.1312 27.9015ZM22.6352 29.4566C22.0517 29.745 21.4468 29.9964 20.8235 30.2079L21.4663 32.1018C22.1733 31.8618 22.8594 31.5766 23.5211 31.2497L22.6352 29.4566ZM19.8844 30.4924C19.2584 30.6598 18.6162 30.7876 17.9604 30.8732L18.2191 32.8564C18.9623 32.7594 19.6907 32.6144 20.4008 32.4246L19.8844 30.4924ZM16.983 30.9683C16.6581 30.9893 16.3304 31 16 31V33C16.3734 33 16.7442 32.9879 17.1119 32.9642L16.983 30.9683Z" fill="#FF5C28"/>
</svg>
