<svg width="1008" height="1008" fill="none" xmlns="http://www.w3.org/2000/svg"><g clip-path="url(#clip0_546_146)" filter="url(#filter0_d_546_146)"><path d="M346.751 23.498c194.45-9.708 324.225 79.42 445.978 284.001 149.818 251.738 71.839 506.122-88.594 656.414 101.443-212.625 80.191-298.247-143.6-481.027-223.792-182.78-238.764-336.067-213.784-459.388z" fill="url(#paint0_linear_546_146)"/><path fill-rule="evenodd" clip-rule="evenodd" d="M1004 503.525c0 205.448-123.293 382.158-300.064 460.456 113.276-104.686 250.347-377.22 94.235-634.367C660.128 102.23 456.119 45.019 346.674 23.5 394.868 8.235 446.2 0 499.459 0 778.11 0 1004 225.436 1004 503.525z" fill="url(#paint1_linear_546_146)"/><path d="M661.249 976.403C528.366 999.575 368.46 915.97 215.271 692.401 49.666 450.712 143.432 186.28 303.866 35.986c-101.442 212.624-80.192 298.25 143.599 481.03 223.794 182.78 238.765 336.067 213.784 459.387z" fill="url(#paint2_linear_546_146)"/><path fill-rule="evenodd" clip-rule="evenodd" d="M4 496.375C4 290.928 127.292 114.218 304.064 35.918 190.789 140.604 53.716 413.139 209.829 670.285 347.872 897.67 551.881 954.881 661.326 976.401c-48.194 15.264-99.526 23.498-152.785 23.498C229.891 999.899 4 774.464 4 496.375z" fill="url(#paint3_linear_546_146)"/></g><defs><linearGradient id="paint0_linear_546_146" x1="347.088" y1="23.498" x2="709.066" y2="964.242" gradientUnits="userSpaceOnUse"><stop stop-color="#3A447C"/><stop offset=".524" stop-color="#252945"/><stop offset="1" stop-color="#121114"/></linearGradient><linearGradient id="paint1_linear_546_146" x1="346.751" y1="25.848" x2="713.11" y2="964.583" gradientUnits="userSpaceOnUse"><stop stop-color="#7387F6"/><stop offset=".474" stop-color="#4B548D"/><stop offset="1" stop-color="#1F1D23"/></linearGradient><linearGradient id="paint2_linear_546_146" x1="660.913" y1="976.403" x2="298.934" y2="35.657" gradientUnits="userSpaceOnUse"><stop stop-color="#53347A"/><stop offset=".524" stop-color="#37244D"/><stop offset="1" stop-color="#16141B"/></linearGradient><linearGradient id="paint3_linear_546_146" x1="661.249" y1="974.052" x2="294.891" y2="35.317" gradientUnits="userSpaceOnUse"><stop stop-color="#A868F5"/><stop offset=".474" stop-color="#684692"/><stop offset="1" stop-color="#25222A"/></linearGradient><clipPath id="clip0_546_146"><path fill="#fff" transform="translate(4)" d="M0 0h1000v1000H0z"/></clipPath><filter id="filter0_d_546_146" x="0" y="0" width="1008" height="1008" filterUnits="userSpaceOnUse" color-interpolation-filters="sRGB"><feFlood flood-opacity="0" result="BackgroundImageFix"/><feColorMatrix in="SourceAlpha" values="0 0 0 0 0 0 0 0 0 0 0 0 0 0 0 0 0 0 127 0" result="hardAlpha"/><feOffset dy="4"/><feGaussianBlur stdDeviation="2"/><feComposite in2="hardAlpha" operator="out"/><feColorMatrix values="0 0 0 0 0 0 0 0 0 0 0 0 0 0 0 0 0 0 0.25 0"/><feBlend in2="BackgroundImageFix" result="effect1_dropShadow_546_146"/><feBlend in="SourceGraphic" in2="effect1_dropShadow_546_146" result="shape"/></filter></defs></svg>