<svg width="48" height="48" viewBox="0 0 48 48" fill="none" xmlns="http://www.w3.org/2000/svg">
<g clip-path="url(#clip0_173_8443)">
<circle cx="24" cy="24" r="24" fill="#E6007A"/>
<path d="M24.0008 14.7123C27.0463 14.7123 29.5152 13.2097 29.5152 11.3561C29.5152 9.50259 27.0463 8 24.0008 8C20.9552 8 18.4863 9.50259 18.4863 11.3561C18.4863 13.2097 20.9552 14.7123 24.0008 14.7123Z" fill="white"/>
<path d="M24.0008 40.0001C27.0463 40.0001 29.5152 38.4975 29.5152 36.644C29.5152 34.7904 27.0463 33.2878 24.0008 33.2878C20.9552 33.2878 18.4863 34.7904 18.4863 36.644C18.4863 38.4975 20.9552 40.0001 24.0008 40.0001Z" fill="white"/>
<path d="M16.3158 19.3579C17.8386 16.598 17.8287 13.6088 16.2937 12.6814C14.7588 11.754 12.28 13.2396 10.7572 15.9995C9.23445 18.7595 9.24433 21.7486 10.7793 22.676C12.3143 23.6034 14.793 22.1179 16.3158 19.3579Z" fill="white"/>
<path d="M37.2398 32.0004C38.7625 29.2405 38.7535 26.2518 37.2196 25.3251C35.6857 24.3983 33.2077 25.8844 31.685 28.6443C30.1622 31.4042 30.1712 34.3929 31.7051 35.3197C33.2391 36.2464 35.717 34.7604 37.2398 32.0004Z" fill="white"/>
<path d="M16.2957 35.3191C17.8306 34.3917 17.8405 31.4025 16.3178 28.6426C14.795 25.8826 12.3162 24.3971 10.7812 25.3245C9.24628 26.2519 9.2364 29.241 10.7592 32.001C12.2819 34.7609 14.7607 36.2465 16.2957 35.3191Z" fill="white"/>
<path d="M37.2215 22.6769C38.7555 21.7501 38.7645 18.7615 37.2417 16.0015C35.719 13.2416 33.241 11.7555 31.7071 12.6823C30.1732 13.6091 30.1641 16.5977 31.6869 19.3577C33.2097 22.1176 35.6876 23.6037 37.2215 22.6769Z" fill="white"/>
</g>
<defs>
<clipPath id="clip0_173_8443">
<rect width="48" height="48" fill="white"/>
</clipPath>
</defs>
</svg>
