<svg width="256" height="256" viewBox="0 0 256 256" fill="none" xmlns="http://www.w3.org/2000/svg">
<rect width="256" height="256" rx="128" fill="url(#paint0_linear_1158_1919)"/>
<path d="M204.885 136.611L198.986 113.618C198.817 112.942 198.272 112.416 197.596 112.246L174.81 106.63C174.64 106.592 174.453 106.573 174.283 106.573C173.739 106.517 173.175 106.686 172.762 107.099L134.308 145.553L129.218 125.678C129.049 125.002 128.504 124.476 127.828 124.307L108.253 119.479L146.688 81.0442C146.914 80.8188 147.045 80.5371 147.139 80.2551C147.308 79.8796 147.364 79.4475 147.252 79.0342L141.353 56.0411C141.184 55.3648 140.639 54.8388 139.963 54.6697L117.176 49.053C116.725 48.9402 116.275 49.0154 115.88 49.2032H115.861C115.749 49.2596 115.655 49.3347 115.542 49.4099C115.448 49.485 115.317 49.5226 115.242 49.6165L49.6435 115.177C49.6435 115.177 49.5308 115.365 49.4557 115.459C49.0424 115.947 48.8921 116.586 49.08 117.206L55.4482 139.429C55.636 140.068 56.1244 140.556 56.7443 140.725L78.0844 146.849L84.2085 168.17C84.3963 168.809 84.8845 169.297 85.5044 169.466L106.92 175.609L113.062 197.024C113.25 197.663 113.739 198.151 114.359 198.321L136.675 204.726C136.845 204.783 137.032 204.801 137.201 204.801C137.239 204.801 137.277 204.783 137.333 204.783C137.333 204.783 137.352 204.783 137.371 204.783C137.859 204.783 138.347 204.595 138.723 204.219L204.34 138.602C204.565 138.377 204.697 138.095 204.791 137.813C204.96 137.437 205.016 137.005 204.903 136.592L204.885 136.611ZM175.467 162.102L170.677 143.411L181.29 132.816L199.531 138.057L175.486 162.121L175.467 162.102ZM138.254 199.316L133.463 180.625L152.662 161.426L170.902 166.667L138.254 199.316ZM153.056 155.659L148.473 139.692L164.947 143.749L153.056 155.641V155.659ZM167.558 146.529L171.766 162.929L155.742 158.327L167.558 146.511V146.529ZM168.103 140.612L149.431 136.01L173.42 112.021L178.604 130.111L168.103 140.612ZM144.791 140.631L149.975 158.721L130.871 177.826L112.198 173.224L144.791 140.631ZM195.586 115.628L200.376 134.319L182.267 129.116L177.082 111.063L195.586 115.628ZM109.381 170.443L104.59 151.752L111.503 144.839L129.744 150.08L109.381 170.443ZM111.898 139.072L107.314 123.104L123.789 127.162L111.898 139.053V139.072ZM130.608 146.361L114.584 141.758L126.4 129.942L130.608 146.342V146.361ZM108.836 142.153L102.017 148.972L83.3443 144.369L103.651 124.062L108.836 142.153ZM87.3454 82.8476L92.5302 100.938L73.2566 120.212L54.584 115.609L87.3454 82.8476ZM115.805 54.388L120.99 72.4782L110.658 82.8102L91.9854 78.2077L115.805 54.388ZM118.022 104.3L113.232 85.6277L123.676 75.1832L141.916 80.4055L118.022 104.3ZM95.6109 97.8758L91.0274 81.9084L107.502 85.9659L95.6109 97.8569V97.8758ZM110.113 88.7461L114.321 105.146L98.3161 100.543L110.132 88.7273L110.113 88.7461ZM95.2354 103.624L113.476 108.846L80.658 141.664L75.8677 122.992L95.2354 103.624ZM137.972 58.0323L142.762 76.7236L124.653 71.5201L119.468 53.4675L137.972 58.0323ZM53.6448 119.31L70.1194 123.367L58.2284 135.259L53.6448 119.291V119.31ZM60.9147 137.963L72.7306 126.147L76.9384 142.547L60.9334 137.945L60.9147 137.963ZM87.5708 166.123L82.3863 148.07L100.89 152.635L105.68 171.326L87.5708 166.123ZM111.259 176.924L127.734 180.982L115.843 192.873L111.259 176.905V176.924ZM118.529 195.578L130.345 183.762L134.553 200.161L118.529 195.559V195.578Z" fill="url(#paint1_linear_1158_1919)"/>
<defs>
<linearGradient id="paint0_linear_1158_1919" x1="256" y1="128" x2="0" y2="128" gradientUnits="userSpaceOnUse">
<stop stop-color="#0E1665"/>
<stop offset="1" stop-color="#40247B"/>
</linearGradient>
<linearGradient id="paint1_linear_1158_1919" x1="59.8063" y1="151.357" x2="194.853" y2="102.196" gradientUnits="userSpaceOnUse">
<stop stop-color="#29BCFA"/>
<stop offset="0.43" stop-color="#6464E4"/>
<stop offset="1" stop-color="#B45AFA"/>
</linearGradient>
</defs>
</svg>
