<svg width="256" height="256" viewBox="0 0 256 256" fill="none" xmlns="http://www.w3.org/2000/svg">
<path d="M127.998 0.838597H128.002C198.23 0.838597 255.161 57.7696 255.161 127.998V128.002C255.161 198.23 198.23 255.161 128.002 255.161H127.998C57.7696 255.161 0.838597 198.23 0.838597 128.002V127.998C0.838597 57.7696 57.7696 0.838597 127.998 0.838597Z" fill="black" stroke="black" stroke-width="1.67719"/>
<path fill-rule="evenodd" clip-rule="evenodd" d="M90.706 30.7368C51.6305 45.7062 23.8867 83.5674 23.8867 127.909C23.8867 172.25 51.6305 210.111 90.706 225.08V221.252C53.6425 206.467 27.4516 170.246 27.4516 127.909C27.4516 85.5709 53.6425 49.3504 90.706 34.5655V30.7368ZM165.114 34.5667V30.738C204.188 45.7081 231.93 83.5685 231.93 127.909C231.93 172.249 204.188 210.109 165.114 225.079V221.25C202.176 206.465 228.365 170.245 228.365 127.909C228.365 85.572 202.176 49.3523 165.114 34.5667Z" fill="white"/>
<path fill-rule="evenodd" clip-rule="evenodd" d="M127.916 46.1782L129.949 49.6716L164.918 109.751H189.609V113.316H66.2656V109.751H90.9058L125.882 49.6714L127.916 46.1782ZM127.915 55.5321L159.473 109.751H96.3509L127.915 55.5321ZM164.979 145.464H189.609V141.899H66.2656V145.464H90.845L125.882 205.648L127.916 209.141L129.949 205.648L164.979 145.464ZM159.534 145.464H96.29L127.915 199.788L159.534 145.464Z" fill="white"/>
</svg>
