<svg width="256" height="256" viewBox="0 0 256 256" fill="none" xmlns="http://www.w3.org/2000/svg">
<g clip-path="url(#clip0_1162_1966)">
<path d="M256 0H0V256H256V0Z" fill="white"/>
<path d="M128.14 51.8252L127.137 55.2391V154.294L128.14 155.296L174.051 128.118L128.14 51.8252Z" fill="#6B6B6B"/>
<path d="M128.139 51.8252L82.2266 128.118L128.139 155.296V107.218V51.8252Z" fill="#A2A2A2"/>
<path d="M128.14 164.001L127.574 164.692V199.977L128.14 201.631L174.079 136.837L128.14 164.001Z" fill="#4F4E4E"/>
<path d="M128.139 201.631V164.001L82.2266 136.837L128.139 201.631Z" fill="#A2A2A2"/>
<path d="M128.141 155.296L174.052 128.118L128.141 107.218V155.296Z" fill="#797979"/>
<path d="M82.2266 128.118L128.139 155.296V107.218L82.2266 128.118Z" fill="#D4D4D4"/>
<g style="mix-blend-mode:overlay">
<path d="M127.914 51.8252L126.91 55.2391V154.294L127.914 155.296L173.825 128.118L127.914 51.8252Z" fill="#ACE730"/>
<path d="M127.913 51.8252L82 128.118L127.913 155.296V107.218V51.8252Z" fill="#ACE730"/>
<path d="M127.913 164.001L127.348 164.692V199.977L127.913 201.631L173.852 136.837L127.913 164.001Z" fill="#ACE730"/>
<path d="M127.913 201.631V164.001L82 136.837L127.913 201.631Z" fill="#ACE730"/>
<path d="M127.914 155.296L173.825 128.117L127.914 107.218V155.296Z" fill="#ACE730"/>
<path d="M82 128.117L127.913 155.296V107.218L82 128.117Z" fill="#ACE730"/>
</g>
</g>
<defs>
<clipPath id="clip0_1162_1966">
<rect width="256" height="256" rx="128" fill="white"/>
</clipPath>
</defs>
</svg>
