<svg width="16" height="16" viewBox="0 0 16 16" fill="none" xmlns="http://www.w3.org/2000/svg">
<g clipPath="url(#clip0_2433_62238)">
<path d="M7.69495 0.666641L1.33331 4.37651V11.7701L7.66882 15.3624L14 11.6787V4.37651L7.69495 0.666641ZM13.5645 11.4261L7.66447 14.8617L1.76874 11.5176V4.62906L7.69495 1.17609L13.5645 4.62906V11.4261Z" fill="#9880E3"/>
<path d="M6.89697 4.68602C6.89697 5.13451 7.26273 5.50027 7.71123 5.50027C8.15972 5.50027 8.52548 5.13451 8.52548 4.68602C8.52548 4.23753 8.15972 3.87177 7.71123 3.87177C7.26273 3.87177 6.89697 4.23753 6.89697 4.68602ZM7.71558 4.3072C7.92459 4.3072 8.09441 4.47701 8.09441 4.68602C8.09441 4.89503 7.92459 5.06484 7.71558 5.06484C7.50658 5.06484 7.33676 4.89503 7.33676 4.68602C7.33676 4.47701 7.50658 4.3072 7.71558 4.3072Z" fill="#9880E3"/>
<path d="M4.76994 9.03134C4.32145 9.03134 3.95569 9.3971 3.95569 9.8456C3.95569 10.2941 4.32145 10.6599 4.76994 10.6599C5.21844 10.6599 5.5842 10.2941 5.5842 9.8456C5.5842 9.40146 5.21844 9.03134 4.76994 9.03134ZM4.76994 10.2288C4.56094 10.2288 4.39112 10.059 4.39112 9.84995C4.39112 9.64094 4.56094 9.47113 4.76994 9.47113C4.97895 9.47113 5.14877 9.64094 5.14877 9.84995C5.14877 10.059 4.97895 10.2288 4.76994 10.2288Z" fill="#9880E3"/>
<path d="M9.75024 9.85114C9.75024 10.2996 10.116 10.6654 10.5645 10.6654C11.013 10.6654 11.3788 10.2996 11.3788 9.85114C11.3788 9.40265 11.013 9.03689 10.5645 9.03689C10.116 9.03253 9.75024 9.40265 9.75024 9.85114ZM10.5645 9.46796C10.7735 9.46796 10.9433 9.63778 10.9433 9.84679C10.9433 10.0558 10.7735 10.2256 10.5645 10.2256C10.3555 10.2256 10.1857 10.0558 10.1857 9.84679C10.1857 9.63778 10.3555 9.46796 10.5645 9.46796Z" fill="#9880E3"/>
<path d="M6.91739 5.51907L5.17621 8.88841L5.56304 9.08832L7.30423 5.71897L6.91739 5.51907Z" fill="#9880E3"/>
<path d="M8.358 5.52754L7.98004 5.74373L9.92144 9.13775L10.2994 8.92156L8.358 5.52754Z" fill="#9880E3"/>
<path d="M9.62969 9.66809L5.73694 9.68558L5.73889 10.121L9.63164 10.1035L9.62969 9.66809Z" fill="#9880E3"/>
</g>
<defs>
<clipPath id="clip0_2433_62238">
<rect width="12.6667" height="14.6958" fill="white" transform="translate(1.33331 0.666641)"/>
</clipPath>
</defs>
</svg>
