	<svg width="24" height="24" viewBox="0 0 24 24" fill="none" xmlns="http://www.w3.org/2000/svg" >
		<g clip-path="url(#clip0_9826_14382)">
			<path d="M23.9729 0.0270996H0.0273438V23.9727H23.9729V0.0270996Z" fill="black" />
			<path
				d="M19.4594 7.53588C19.2124 7.34109 18.9178 7.07504 18.381 7.00853C17.8774 6.94202 17.3643 7.27933 17.0175 7.50263C16.6707 7.72592 16.015 8.38154 15.7442 8.58108C15.4734 8.78062 14.7798 8.96591 13.6633 9.63579C12.5469 10.3057 8.16654 13.1182 8.16654 13.1182L9.30676 13.1325L4.22329 15.7502H4.73164L4 16.3061C4 16.3061 4.64612 16.4771 5.18773 16.135V16.2918C5.18773 16.2918 11.2404 13.9069 12.4091 14.5245L11.6965 14.7335C11.7582 14.7335 12.9079 14.8095 12.9079 14.8095C12.9359 15.0476 13.0159 15.2766 13.1423 15.4803C13.2688 15.6839 13.4386 15.8572 13.6396 15.9878C14.3332 16.4438 14.3475 16.6956 14.3475 16.6956C14.3475 16.6956 13.9864 16.8429 13.9864 17.0282C13.9864 17.0282 14.5185 16.8667 15.0126 16.8809C15.3262 16.8928 15.6372 16.9423 15.939 17.0282C15.939 17.0282 15.901 16.8287 15.4212 16.6956C14.9413 16.5626 14.4662 16.04 14.2334 15.755C14.0909 15.5735 13.9979 15.3581 13.9638 15.1299C13.9296 14.9016 13.9554 14.6684 14.0387 14.4532C14.2049 14.0209 14.7846 13.7833 15.9818 13.1657C17.3928 12.4341 17.7159 11.8925 17.9154 11.4696C18.1149 11.0468 18.4095 10.2059 18.5758 9.81157C18.7848 9.30322 19.0414 9.03242 19.2552 8.87089C19.4689 8.70936 20.4191 8.35304 20.4191 8.35304C20.4191 8.35304 19.6922 7.72117 19.4594 7.53588Z"
				fill="white"
			/>
		</g>
		<defs>
			<clipPath id="clip0_9826_14382">
				<rect width="24" height="24" rx="12" fill="white" />
			</clipPath>
		</defs>
	</svg>