<svg width="24" height="24" viewBox="0 0 24 24" fill="none" xmlns="http://www.w3.org/2000/svg">
<g clip-path="url(#clip0_8894_6708)">
<rect y="3.78906" width="20.2105" height="20.2105" fill="#1F6D51"/>
<rect x="3.78906" width="20.2105" height="20.2105" fill="#39B387"/>
<rect x="3.78906" y="3.78906" width="16.4211" height="16.4211" fill="#52F2B9"/>
<rect width="14" height="14" transform="translate(10 10)" fill="#0F0F0F"/>
<g clip-path="url(#clip1_8894_6708)">
<path fill-rule="evenodd" clip-rule="evenodd" d="M17 10C20.866 10 24 13.134 24 17C24 20.866 20.866 24 17 24C13.134 24 10 20.866 10 17C10 13.134 13.134 10 17 10Z" fill="#0F0F0F"/>
<path fill-rule="evenodd" clip-rule="evenodd" d="M17.1081 11.1955C17.0511 11.1429 17.0248 11.1429 17.0204 11.1429C17.016 11.1429 16.9853 11.1429 16.9327 11.1955C16.8758 11.2481 16.8056 11.3401 16.7355 11.4804C16.5908 11.7609 16.4462 12.1817 16.3279 12.7252C16.192 13.3388 16.0824 14.084 16.0166 14.9212C16.3454 15.079 16.6829 15.2543 17.0248 15.4384C17.3667 15.2543 17.7042 15.079 18.0329 14.9212C17.9672 14.084 17.8576 13.3345 17.7217 12.7252C17.599 12.1817 17.4587 11.7609 17.3141 11.4804C17.2352 11.3401 17.165 11.2481 17.1081 11.1955ZM16.7311 15.5962C16.4813 15.4603 16.2314 15.3376 15.9903 15.2149C15.9728 15.4866 15.9597 15.7628 15.9465 16.0477C16.0736 15.9688 16.2051 15.8943 16.3366 15.8197C16.4681 15.7452 16.5996 15.6663 16.7311 15.5962ZM15.7449 14.7985C15.9421 12.5017 16.4374 10.8711 17.016 10.8711C17.5946 10.8711 18.0899 12.5017 18.2872 14.7985C20.3779 13.821 22.0348 13.4353 22.3241 13.935C22.6134 14.439 21.4475 15.6795 19.5583 16.9988C21.4518 18.3182 22.6134 19.563 22.3241 20.0627C22.0348 20.5668 20.3736 20.1767 18.2872 19.1992C18.0899 21.496 17.5946 23.1266 17.016 23.1266C16.4374 23.1266 15.9421 21.496 15.7449 19.1992C13.6541 20.1767 11.9972 20.5624 11.7079 20.0627C11.4186 19.5586 12.5846 18.3182 14.4738 16.9988C12.5846 15.6795 11.4186 14.4347 11.7079 13.935C11.9972 13.4309 13.6585 13.8166 15.7449 14.7985ZM14.7148 16.8323C14.0223 16.3545 13.4262 15.8855 12.9659 15.4647C12.5539 15.0878 12.2602 14.7546 12.0893 14.4872C12.006 14.3558 11.9622 14.2506 11.9446 14.1717C11.9271 14.0971 11.9403 14.0708 11.9446 14.0708C11.949 14.0665 11.9622 14.0445 12.0323 14.0182C12.1068 13.9963 12.2208 13.9832 12.3786 13.9876C12.6942 14.0007 13.1281 14.0884 13.6629 14.2549C14.2634 14.4434 14.9647 14.7239 15.723 15.0834C15.6967 15.4472 15.6791 15.8241 15.666 16.2142C15.3372 16.4246 15.0173 16.6263 14.7148 16.8323ZM14.7148 17.1654C14.0223 17.6432 13.4262 18.1122 12.9659 18.533C12.5539 18.9099 12.2602 19.243 12.0893 19.5104C12.006 19.6419 11.9622 19.7471 11.9446 19.826C11.9271 19.9005 11.9403 19.9268 11.9446 19.9268C11.949 19.9312 11.9622 19.9531 12.0323 19.9794C12.1068 20.0013 12.2208 20.0145 12.3786 20.0101C12.6942 19.997 13.1281 19.9093 13.6629 19.7427C14.2634 19.5543 14.9647 19.2737 15.723 18.9143C15.6967 18.5505 15.6791 18.1735 15.666 17.7834C15.3372 17.573 15.0173 17.367 14.7148 17.1654ZM15.6616 17.4503C15.4205 17.3013 15.1838 17.1479 14.9603 16.9988C15.1838 16.8498 15.4205 16.6964 15.6616 16.5474C15.6572 16.6964 15.6572 16.8498 15.6572 16.9988C15.6572 17.1522 15.6572 17.3013 15.6616 17.4503ZM15.9377 17.6213C15.9334 17.4152 15.929 17.2092 15.929 16.9988C15.929 16.7884 15.9334 16.578 15.9377 16.3764C16.1131 16.2712 16.2928 16.1616 16.4769 16.0564C16.661 15.9512 16.8407 15.8504 17.0204 15.7496C17.2001 15.846 17.3842 15.9512 17.5639 16.0564C17.748 16.1616 17.9277 16.2668 18.1031 16.3764C18.1074 16.5824 18.1118 16.7884 18.1118 16.9988C18.1118 17.2092 18.1074 17.4196 18.1031 17.6213C17.9277 17.7264 17.748 17.836 17.5639 17.9412C17.3798 18.0464 17.2001 18.1472 17.0204 18.2481C16.8407 18.1516 16.6566 18.0464 16.4769 17.9412C16.2928 17.836 16.1131 17.7308 15.9377 17.6213ZM15.9465 17.95C15.9553 18.2349 15.9728 18.511 15.9903 18.7828C16.2314 18.6645 16.4813 18.5373 16.7311 18.4015C16.5996 18.3269 16.4681 18.2524 16.3366 18.1779C16.2051 18.1034 16.0736 18.0245 15.9465 17.95ZM17.0204 18.5593C16.6785 18.7434 16.341 18.9187 16.0123 19.0765C16.078 19.9137 16.1876 20.6632 16.3235 21.2725C16.4462 21.816 16.5865 22.2368 16.7311 22.5173C16.8056 22.6576 16.8714 22.7496 16.9284 22.8022C16.9853 22.8548 17.0116 22.8548 17.016 22.8548C17.0204 22.8548 17.0511 22.8548 17.1037 22.8022C17.1607 22.7496 17.2308 22.6576 17.3009 22.5173C17.4456 22.2368 17.5902 21.816 17.7086 21.2725C17.8444 20.6588 17.954 19.9137 18.0198 19.0765C17.6998 18.9143 17.3623 18.7434 17.0204 18.5593ZM18.3135 18.9099C19.0718 19.2693 19.7731 19.5499 20.3736 19.7383C20.9039 19.9049 21.3423 19.997 21.6578 20.0057C21.8156 20.0101 21.9296 19.997 22.0041 19.975C22.0743 19.9531 22.0918 19.9268 22.0918 19.9224C22.0962 19.9181 22.1093 19.8918 22.0918 19.8216C22.0743 19.7471 22.0304 19.6419 21.9471 19.506C21.7806 19.2387 21.4825 18.9055 21.0705 18.5286C20.6059 18.1034 20.0141 17.6388 19.3216 17.161C19.0192 17.367 18.7036 17.5687 18.3704 17.7747C18.3617 18.1692 18.3398 18.5461 18.3135 18.9099ZM19.3216 16.8323C20.0141 16.3545 20.6103 15.8855 21.0705 15.4647C21.4825 15.0878 21.7762 14.7546 21.9471 14.4872C22.0304 14.3558 22.0743 14.2506 22.0918 14.1717C22.1093 14.0971 22.0962 14.0708 22.0918 14.0708C22.0874 14.0665 22.0743 14.0445 22.0041 14.0182C21.9296 13.9963 21.8156 13.9832 21.6578 13.9876C21.3423 14.0007 20.9083 14.0884 20.3736 14.2549C19.7731 14.4434 19.0718 14.7239 18.3135 15.0834C18.3398 15.4472 18.3573 15.8241 18.3704 16.2142C18.7036 16.4246 19.0192 16.6263 19.3216 16.8323ZM18.3792 16.5474C18.6203 16.6964 18.8526 16.8498 19.0805 16.9988C18.857 17.1479 18.6203 17.3013 18.3792 17.4503C18.3836 17.3013 18.3836 17.1479 18.3836 16.9988C18.3836 16.8498 18.3792 16.6964 18.3792 16.5474ZM18.0899 16.0477C18.0811 15.7628 18.0636 15.4866 18.0461 15.2149C17.805 15.3332 17.5552 15.4603 17.3053 15.5962C17.4368 15.6707 17.5683 15.7452 17.6998 15.8197C17.8313 15.8943 17.9628 15.9732 18.0899 16.0477ZM18.0505 18.7828C17.8094 18.6645 17.5595 18.5373 17.3097 18.4015C17.4412 18.3269 17.5727 18.2524 17.7042 18.1779C17.8357 18.1034 17.9672 18.0245 18.0943 17.95C18.0811 18.2349 18.068 18.511 18.0505 18.7828Z" fill="#52F2B9"/>
<path fill-rule="evenodd" clip-rule="evenodd" d="M13.1014 15.2812C13.3381 15.2812 13.531 15.4741 13.531 15.7108C13.531 15.9475 13.3381 16.1404 13.1014 16.1404C12.8647 16.1404 12.6719 15.9475 12.6719 15.7108C12.6719 15.4741 12.8647 15.2812 13.1014 15.2812Z" fill="#52F2B9"/>
<path fill-rule="evenodd" clip-rule="evenodd" d="M19.9531 13.8086C20.1898 13.8086 20.3826 14.0015 20.3826 14.2381C20.3826 14.4748 20.1898 14.6677 19.9531 14.6677C19.7164 14.6677 19.5235 14.4748 19.5235 14.2381C19.5191 14.0015 19.712 13.8086 19.9531 13.8086Z" fill="#52F2B9"/>
<path fill-rule="evenodd" clip-rule="evenodd" d="M16.1562 20.5742C16.3929 20.5742 16.5857 20.7671 16.5857 21.0038C16.5857 21.2405 16.3929 21.4333 16.1562 21.4333C15.9195 21.4333 15.7266 21.2405 15.7266 21.0038C15.7223 20.7671 15.9151 20.5742 16.1562 20.5742Z" fill="#52F2B9"/>
<path fill-rule="evenodd" clip-rule="evenodd" d="M16.9976 16.2695C17.4009 16.2695 17.7296 16.5983 17.7296 17.0015C17.7296 17.4048 17.4009 17.7335 16.9976 17.7335C16.5944 17.7335 16.2656 17.4048 16.2656 17.0015C16.2656 16.5983 16.5944 16.2695 16.9976 16.2695Z" fill="#52F2B9"/>
</g>
</g>
<defs>
<clipPath id="clip0_8894_6708">
<rect width="24" height="24" fill="white"/>
</clipPath>
<clipPath id="clip1_8894_6708">
<rect width="14" height="14" fill="white" transform="translate(10 10)"/>
</clipPath>
</defs>
</svg>
