<svg width="161" height="18" viewBox="0 0 161 18" fill="none" xmlns="http://www.w3.org/2000/svg">
<g clip-path="url(#clip0_17106_71423)">
<path d="M154.598 17.4801C153.246 17.4801 151.946 17.2461 150.672 16.7781C149.398 16.3361 148.358 15.7641 147.604 15.0621L149.346 12.9561C150.048 13.5281 150.828 13.9961 151.738 14.4121C152.622 14.8281 153.61 15.0361 154.676 15.0361C155.534 15.0361 156.262 14.8541 156.808 14.4641C157.38 14.1001 157.64 13.5541 157.64 12.8261V12.7741C157.64 12.4101 157.588 12.0981 157.432 11.8121C157.302 11.5261 157.094 11.2921 156.782 11.0841C156.47 10.8761 156.054 10.6941 155.586 10.5121C155.092 10.3561 154.468 10.1481 153.714 9.96606C152.804 9.75806 151.998 9.49806 151.296 9.23806C150.594 8.97806 149.996 8.66606 149.528 8.30206C149.06 7.93806 148.696 7.49606 148.462 6.97606C148.202 6.45606 148.098 5.78006 148.098 5.00006V4.94806C148.098 4.22006 148.228 3.57006 148.488 2.99806C148.774 2.40006 149.164 1.88006 149.658 1.46406C150.178 1.02206 150.802 0.68406 151.53 0.424059C152.258 0.190058 153.09 0.0600586 153.974 0.0600586C155.248 0.0600586 156.444 0.242059 157.51 0.632059C158.576 1.02206 159.408 1.43806 160.032 1.93206L158.498 4.16806C157.848 3.70006 157.12 3.33606 156.314 2.99806C155.534 2.66006 154.728 2.50406 153.922 2.50406C153.09 2.50406 152.44 2.68606 151.946 3.07606C151.478 3.44006 151.218 3.96006 151.218 4.58406V4.63606C151.218 5.02606 151.296 5.39006 151.452 5.67606C151.608 5.98806 151.868 6.22206 152.206 6.43006C152.544 6.63806 152.96 6.79406 153.48 6.95006C154 7.13206 154.65 7.31406 155.43 7.49606C156.314 7.75606 157.094 8.01606 157.796 8.30206C158.472 8.58806 159.044 8.92606 159.486 9.29006C159.928 9.68006 160.24 10.1221 160.474 10.5901C160.682 11.0841 160.786 11.6821 160.786 12.3841V12.4361C160.786 13.2161 160.63 13.9181 160.344 14.5421C160.058 15.1661 159.642 15.6861 159.122 16.1021C158.576 16.5441 157.926 16.8821 157.172 17.1161C156.392 17.3501 155.534 17.4801 154.598 17.4801Z" fill="white"/>
<path d="M136.742 17.4801C135.39 17.4801 134.09 17.2461 132.816 16.7781C131.542 16.3361 130.502 15.7641 129.748 15.0621L131.49 12.9561C132.192 13.5281 132.972 13.9961 133.882 14.4121C134.766 14.8281 135.754 15.0361 136.82 15.0361C137.678 15.0361 138.406 14.8541 138.952 14.4641C139.524 14.1001 139.784 13.5541 139.784 12.8261V12.7741C139.784 12.4101 139.732 12.0981 139.576 11.8121C139.446 11.5261 139.238 11.2921 138.926 11.0841C138.614 10.8761 138.198 10.6941 137.73 10.5121C137.236 10.3561 136.612 10.1481 135.858 9.96606C134.948 9.75806 134.142 9.49806 133.44 9.23806C132.738 8.97806 132.14 8.66606 131.672 8.30206C131.204 7.93806 130.84 7.49606 130.606 6.97606C130.346 6.45606 130.242 5.78006 130.242 5.00006V4.94806C130.242 4.22006 130.372 3.57006 130.632 2.99806C130.918 2.40006 131.308 1.88006 131.802 1.46406C132.322 1.02206 132.946 0.68406 133.674 0.424059C134.402 0.190058 135.234 0.0600586 136.118 0.0600586C137.392 0.0600586 138.588 0.242059 139.654 0.632059C140.72 1.02206 141.552 1.43806 142.176 1.93206L140.642 4.16806C139.992 3.70006 139.264 3.33606 138.458 2.99806C137.678 2.66006 136.872 2.50406 136.066 2.50406C135.234 2.50406 134.584 2.68606 134.09 3.07606C133.622 3.44006 133.362 3.96006 133.362 4.58406V4.63606C133.362 5.02606 133.44 5.39006 133.596 5.67606C133.752 5.98806 134.012 6.22206 134.35 6.43006C134.688 6.63806 135.104 6.79406 135.624 6.95006C136.144 7.13206 136.794 7.31406 137.574 7.49606C138.458 7.75606 139.238 8.01606 139.94 8.30206C140.616 8.58806 141.188 8.92606 141.63 9.29006C142.072 9.68006 142.384 10.1221 142.618 10.5901C142.826 11.0841 142.93 11.6821 142.93 12.3841V12.4361C142.93 13.2161 142.774 13.9181 142.488 14.5421C142.202 15.1661 141.786 15.6861 141.266 16.1021C140.72 16.5441 140.07 16.8821 139.316 17.1161C138.536 17.3501 137.678 17.4801 136.742 17.4801Z" fill="white"/>
<path d="M112.016 0.345947H124.964V2.86795H112.016V0.345947ZM114.798 14.9579H124.964V17.4799H112.016V7.65195H119.66V10.1739H114.798V14.9579Z" fill="white"/>
<path d="M107.347 17.5059H95.0234V0.319946H98.2474V14.9059H107.347V17.5059Z" fill="white"/>
<path d="M81.6142 2.97195H76.0762V0.319946H90.3762V2.97195H84.8382V17.4799H81.6142V2.97195Z" fill="white"/>
<path d="M65.3456 17.4801C63.9936 17.4801 62.6936 17.2461 61.4196 16.7781C60.1456 16.3361 59.1056 15.7641 58.3516 15.0621L60.0936 12.9561C60.7956 13.5281 61.5756 13.9961 62.4856 14.4121C63.3696 14.8281 64.3576 15.0361 65.4236 15.0361C66.2816 15.0361 67.0096 14.8541 67.5556 14.4641C68.1276 14.1001 68.3876 13.5541 68.3876 12.8261V12.7741C68.3876 12.4101 68.3356 12.0981 68.1796 11.8121C68.0496 11.5261 67.8416 11.2921 67.5296 11.0841C67.2176 10.8761 66.8016 10.6941 66.3336 10.5121C65.8396 10.3561 65.2156 10.1481 64.4616 9.96606C63.5516 9.75806 62.7456 9.49806 62.0436 9.23806C61.3416 8.97806 60.7436 8.66606 60.2756 8.30206C59.8076 7.93806 59.4436 7.49606 59.2096 6.97606C58.9496 6.45606 58.8456 5.78006 58.8456 5.00006V4.94806C58.8456 4.22006 58.9756 3.57006 59.2356 2.99806C59.5216 2.40006 59.9116 1.88006 60.4056 1.46406C60.9256 1.02206 61.5496 0.68406 62.2776 0.424059C63.0056 0.190058 63.8376 0.0600586 64.7216 0.0600586C65.9956 0.0600586 67.1916 0.242059 68.2576 0.632059C69.3236 1.02206 70.1556 1.43806 70.7796 1.93206L69.2456 4.16806C68.5956 3.70006 67.8676 3.33606 67.0616 2.99806C66.2816 2.66006 65.4756 2.50406 64.6696 2.50406C63.8376 2.50406 63.1876 2.68606 62.6936 3.07606C62.2256 3.44006 61.9656 3.96006 61.9656 4.58406V4.63606C61.9656 5.02606 62.0436 5.39006 62.1996 5.67606C62.3556 5.98806 62.6156 6.22206 62.9536 6.43006C63.2916 6.63806 63.7076 6.79406 64.2276 6.95006C64.7476 7.13206 65.3976 7.31406 66.1776 7.49606C67.0616 7.75606 67.8416 8.01606 68.5436 8.30206C69.2196 8.58806 69.7916 8.92606 70.2336 9.29006C70.6756 9.68006 70.9876 10.1221 71.2216 10.5901C71.4296 11.0841 71.5336 11.6821 71.5336 12.3841V12.4361C71.5336 13.2161 71.3776 13.9181 71.0916 14.5421C70.8056 15.1661 70.3896 15.6861 69.8696 16.1021C69.3236 16.5441 68.6736 16.8821 67.9196 17.1161C67.1396 17.3501 66.2816 17.4801 65.3456 17.4801Z" fill="white"/>
<path d="M45.9743 17.7659C43.6083 17.7659 41.7623 17.1419 40.4623 15.8679C39.1363 14.5939 38.4863 12.7219 38.4863 10.1999V0.319946H41.7103V10.0959C41.7103 11.7339 42.1003 13.0079 42.8803 13.8399C43.6603 14.6979 44.7003 15.1139 46.0263 15.1139C47.3523 15.1139 48.3923 14.6979 49.1723 13.8919C49.9523 13.0599 50.3423 11.8379 50.3423 10.2259V0.319946H53.5663V10.0699C53.5663 11.3699 53.3843 12.5139 53.0463 13.4499C52.7083 14.4119 52.2143 15.1919 51.5643 15.8419C50.9143 16.4659 50.1083 16.9599 49.1723 17.2719C48.2363 17.6099 47.1703 17.7659 45.9743 17.7659Z" fill="white"/>
<path d="M33.7412 17.4799H30.1272L24.4592 9.15995H26.9552C29.1652 9.15995 30.3092 8.14595 30.4132 6.09195C30.4132 3.98595 29.2432 2.91995 26.8772 2.89395H22.5092V17.4799H19.2852V0.319946H27.2152C29.4512 0.319946 31.1412 0.891945 32.2852 2.06195C33.2212 2.99795 33.6892 4.24595 33.6892 5.80595C33.6892 8.50995 32.2852 10.3039 29.4512 11.1879L33.7412 17.4799Z" fill="white"/>
<path d="M5.87589 2.97195H0.337891V0.319946H14.6379V2.97195H9.09989V17.4799H5.87589V2.97195Z" fill="white"/>
</g>
<defs>
<clipPath id="clip0_17106_71423">
<rect width="160.448" height="17.7059" fill="white" transform="translate(0.337891 0.0600586)"/>
</clipPath>
</defs>
</svg>
