<svg width="355" height="93" viewBox="0 0 355 93" fill="none" xmlns="http://www.w3.org/2000/svg">
<rect y="13.8947" width="74.1053" height="74.1053" fill="#1F6D51"/>
<rect x="13.8948" width="74.1053" height="74.1053" fill="#39B387"/>
<rect x="13.8948" y="13.8947" width="60.2105" height="60.2105" fill="#52F2B9"/>
<path d="M137.663 65.7957H165.819V74H128.992V8.73834H137.663V65.7957Z" fill="white"/>
<path d="M210.453 27.3845H218.564V74H210.453V65.9821C206.724 71.6692 200.757 75.212 192.832 75.212C179.873 75.212 169.245 64.4904 169.245 50.6923C169.245 36.8941 179.873 26.1725 192.832 26.1725C200.757 26.1725 206.724 29.7153 210.453 35.4024V27.3845ZM193.858 67.3806C203.274 67.3806 210.453 60.2018 210.453 50.6923C210.453 41.1827 203.274 34.0039 193.858 34.0039C184.535 34.0039 177.356 41.1827 177.356 50.6923C177.356 60.2018 184.535 67.3806 193.858 67.3806Z" fill="white"/>
<path d="M263.391 27.3845H272.061L253.042 76.8902C249.126 87.332 241.854 93.2988 232.345 92.6462V85.0945C238.591 85.5606 242.507 81.7382 244.931 75.5849L245.77 73.8135L225.446 27.3845H234.116L249.965 63.9311L263.391 27.3845Z" fill="white"/>
<path d="M282.7 54.4215C284.285 62.8123 290.905 67.5671 299.575 67.5671C306.008 67.5671 310.67 64.5837 313 60.7612L319.899 64.6769C315.797 71.0166 308.712 75.212 299.389 75.212C284.378 75.212 274.403 64.6769 274.403 50.6923C274.403 36.8941 284.285 26.1725 298.829 26.1725C312.907 26.1725 322.044 37.7332 322.044 50.7855C322.044 51.9975 321.95 53.2095 321.764 54.4215H282.7ZM298.829 33.8175C290.066 33.8175 284.005 39.2249 282.7 47.336H313.839C312.441 38.1061 305.822 33.8175 298.829 33.8175Z" fill="white"/>
<path d="M339.479 35.2159C342.462 28.6898 348.149 26.5455 354.023 26.5455V35.0295C347.03 34.7498 339.479 38.2925 339.479 49.2938V74H331.368V27.3845H339.479V35.2159Z" fill="white"/>
</svg>
