<svg width="64" height="25" viewBox="0 0 64 25" fill="none" xmlns="http://www.w3.org/2000/svg">
<g id="Layer">
<path d="M3.30658 16.9819H11.1606V19.4H0.887939V0.164986H3.30658V16.9819Z" fill="white"/>
<path d="M23.6114 5.6607H25.874V19.4H23.6114V17.0368C22.5712 18.713 20.9067 19.7572 18.6961 19.7572C15.0812 19.7572 12.1164 16.5972 12.1164 12.5304C12.1164 8.46352 15.0812 5.30348 18.6961 5.30348C20.9067 5.30348 22.5712 6.34767 23.6114 8.02386V5.6607ZM18.9822 17.449C21.6089 17.449 23.6114 15.3332 23.6114 12.5304C23.6114 9.72754 21.6089 7.61168 18.9822 7.61168C16.3815 7.61168 14.379 9.72754 14.379 12.5304C14.379 15.3332 16.3815 17.449 18.9822 17.449Z" fill="white"/>
<path d="M38.3785 5.6607H40.7971L35.4917 20.2518C34.3994 23.3294 32.3709 25.0881 29.7182 24.8957V22.67C31.4606 22.8073 32.5529 21.6807 33.2291 19.8671L33.4632 19.345L27.7937 5.6607H30.2123L34.6335 16.4323L38.3785 5.6607Z" fill="white"/>
<path d="M43.7649 13.6295C44.207 16.1026 46.0535 17.504 48.4722 17.504C50.2666 17.504 51.567 16.6247 52.2172 15.498L54.1417 16.6521C52.9974 18.5207 51.0208 19.7572 48.4201 19.7572C44.233 19.7572 41.4503 16.6521 41.4503 12.5304C41.4503 8.46352 44.207 5.30348 48.2641 5.30348C52.1911 5.30348 54.7398 8.71083 54.7398 12.5578C54.7398 12.9151 54.7138 13.2723 54.6618 13.6295H43.7649ZM48.2641 7.55673C45.8195 7.55673 44.129 9.15049 43.7649 11.5411H52.4512C52.0611 8.82074 50.2146 7.55673 48.2641 7.55673Z" fill="white"/>
<path d="M59.6033 7.96891C60.4355 6.0454 62.0219 5.4134 63.6604 5.4134V7.91395C61.7099 7.83151 59.6033 8.8757 59.6033 12.1182V19.4H57.3407V5.6607H59.6033V7.96891Z" fill="white"/>
</g>
</svg>
