<svg width="24" height="24" viewBox="0 0 24 24" fill="none" xmlns="http://www.w3.org/2000/svg">
<g clip-path="url(#clip0_8894_6693)">
<rect y="3.78906" width="20.2105" height="20.2105" fill="#1F6D51"/>
<rect x="3.78906" width="20.2105" height="20.2105" fill="#39B387"/>
<rect x="3.78906" y="3.78906" width="16.4211" height="16.4211" fill="#52F2B9"/>
<g clip-path="url(#clip1_8894_6693)">
<rect width="14" height="14" transform="translate(10 10)" fill="#0F0F0F"/>
<circle cx="17" cy="17" r="7" fill="#0F0F0F"/>
<path d="M16.999 14.2898C17.8873 14.2898 18.6074 13.8515 18.6074 13.3109C18.6074 12.7703 17.8873 12.332 16.999 12.332C16.1107 12.332 15.3906 12.7703 15.3906 13.3109C15.3906 13.8515 16.1107 14.2898 16.999 14.2898Z" fill="#52F2B9"/>
<path d="M16.999 21.6648C17.8873 21.6648 18.6074 21.2265 18.6074 20.6859C18.6074 20.1453 17.8873 19.707 16.999 19.707C16.1107 19.707 15.3906 20.1453 15.3906 20.6859C15.3906 21.2265 16.1107 21.6648 16.999 21.6648Z" fill="#52F2B9"/>
<path d="M14.7614 15.6431C15.2055 14.8381 15.2026 13.9663 14.7549 13.6958C14.3072 13.4253 13.5843 13.8586 13.1401 14.6635C12.696 15.4685 12.6989 16.3404 13.1466 16.6109C13.5943 16.8814 14.3172 16.4481 14.7614 15.6431Z" fill="#52F2B9"/>
<path d="M20.8618 19.3338C21.306 18.5288 21.3034 17.6572 20.856 17.3868C20.4086 17.1165 19.6858 17.55 19.2417 18.355C18.7975 19.1599 18.8002 20.0316 19.2476 20.3019C19.695 20.5722 20.4177 20.1388 20.8618 19.3338Z" fill="#52F2B9"/>
<path d="M14.7549 20.3003C15.2026 20.0298 15.2055 19.158 14.7614 18.353C14.3172 17.548 13.5943 17.1147 13.1466 17.3852C12.6989 17.6557 12.696 18.5276 13.1401 19.3325C13.5843 20.1375 14.3072 20.5708 14.7549 20.3003Z" fill="#52F2B9"/>
<path d="M20.856 16.6132C21.3033 16.3428 21.306 15.4712 20.8618 14.6662C20.4177 13.8612 19.695 13.4278 19.2476 13.6981C18.8002 13.9684 18.7975 14.8401 19.2417 15.645C19.6858 16.45 20.4086 16.8835 20.856 16.6132Z" fill="#52F2B9"/>
</g>
</g>
<defs>
<clipPath id="clip0_8894_6693">
<rect width="24" height="24" fill="white"/>
</clipPath>
<clipPath id="clip1_8894_6693">
<rect width="14" height="14" fill="white" transform="translate(10 10)"/>
</clipPath>
</defs>
</svg>
