<svg width="24" height="24" viewBox="0 0 24 24" fill="none" xmlns="http://www.w3.org/2000/svg">
<mask id="mask0_123_277" style="mask-type:luminance" maskUnits="userSpaceOnUse" x="1" y="5" width="22" height="15">
<path d="M23 5H1V19.2938H23V5Z" fill="white"/>
</mask>
<g mask="url(#mask0_123_277)">
<path d="M20.8174 14.8671C20.8174 18.0151 16.9756 19.2943 12.2054 19.2943C7.43517 19.2943 3.53735 18.0151 3.53735 14.8671C3.53735 11.7192 7.4072 9.17188 12.1774 9.17188C16.9477 9.17188 20.8174 11.7247 20.8174 14.8671Z" fill="#4BAF74"/>
<path d="M19.9452 8.00434C19.9452 6.34693 18.5918 5.00098 16.9254 5.00098C15.9859 5.00098 15.147 5.42923 14.5933 6.09665C13.8385 5.9298 13.0331 5.83525 12.1999 5.83525C11.3667 5.83525 10.5613 5.92423 9.80636 6.09665C9.24717 5.42923 8.40833 5.00098 7.47442 5.00098C5.80791 5.00098 4.45459 6.34693 4.45459 8.00434C4.45459 8.5494 4.59999 9.05552 4.85164 9.4949C4.61117 10.0066 4.48255 10.5516 4.48255 11.1189C4.48255 14.0388 7.93857 16.4026 12.1999 16.4026C16.4612 16.4026 19.9172 14.0388 19.9172 11.1189C19.9172 10.5516 19.7886 10.0066 19.5481 9.4949C19.7998 9.05552 19.9452 8.5494 19.9452 8.00434Z" fill="#4BC174"/>
<path d="M7.234 9.67615C8.25322 9.67615 9.07945 8.85442 9.07945 7.84076C9.07945 6.8271 8.25322 6.00537 7.234 6.00537C6.21479 6.00537 5.38855 6.8271 5.38855 7.84076C5.38855 8.85442 6.21479 9.67615 7.234 9.67615Z" fill="#EEEEEE"/>
<path d="M17.0765 9.67615C18.0958 9.67615 18.922 8.85442 18.922 7.84076C18.922 6.8271 18.0958 6.00537 17.0765 6.00537C16.0573 6.00537 15.2311 6.8271 15.2311 7.84076C15.2311 8.85442 16.0573 9.67615 17.0765 9.67615Z" fill="#EEEEEE"/>
<path d="M6.24464 19.0694C6.64169 19.0694 6.95486 18.7246 6.91013 18.3353C6.74795 16.9559 6.0601 13.9693 3.03467 12.1729C-0.99176 9.78129 2.19583 18.0127 2.19583 18.0127L1.36259 18.4911C1.08297 18.6523 1.20041 19.0694 1.51917 19.0694H6.24464Z" fill="#4BC174"/>
<path d="M18.265 19.0694C17.9071 19.0694 17.6275 18.7246 17.6666 18.3353C17.8065 16.9616 18.4328 13.9693 21.1618 12.1729C24.8024 9.78129 21.9224 18.0127 21.9224 18.0127L22.6773 18.4911C22.929 18.6523 22.8227 19.0694 22.5375 19.0694H18.265Z" fill="#4BC174"/>
<path d="M7.23177 8.17328C7.41708 8.17328 7.56731 8.02386 7.56731 7.83956C7.56731 7.65526 7.41708 7.50586 7.23177 7.50586C7.04646 7.50586 6.89624 7.65526 6.89624 7.83956C6.89624 8.02386 7.04646 8.17328 7.23177 8.17328Z" fill="#0D0D0D"/>
<path d="M17.0713 8.17328C17.2566 8.17328 17.4068 8.02386 17.4068 7.83956C17.4068 7.65526 17.2566 7.50586 17.0713 7.50586C16.886 7.50586 16.7357 7.65526 16.7357 7.83956C16.7357 8.02386 16.886 8.17328 17.0713 8.17328Z" fill="#0D0D0D"/>
</g>
</svg>
