<svg width="73" height="72" viewBox="0 0 73 72" fill="none" xmlns="http://www.w3.org/2000/svg">
<rect x="1" y="0.880859" width="71" height="70.619" rx="35.3095" fill="#6A4AEB" fill-opacity="0.1"/>
<rect x="1" y="0.880859" width="71" height="70.619" rx="35.3095" stroke="#6A4AEB"/>
<path d="M72 35.8096C72 36.7269 71.2219 37.7508 69.4216 38.7868C67.6586 39.8012 65.0744 40.7316 61.8376 41.5194C55.3718 43.0931 46.4133 44.0715 36.5 44.0715C26.5867 44.0715 17.6282 43.0931 11.1624 41.5194C7.92558 40.7316 5.34135 39.8012 3.57843 38.7868C1.77812 37.7508 1 36.7269 1 35.8096C1 34.8924 1.77812 33.8684 3.57843 32.8325C5.34135 31.818 7.92558 30.8876 11.1624 30.0998C17.6282 28.5262 26.5867 27.5477 36.5 27.5477C46.4133 27.5477 55.3718 28.5262 61.8376 30.0998C65.0744 30.8876 67.6586 31.818 69.4216 32.8325C71.2219 33.8684 72 34.8924 72 35.8096Z" fill="#6A4AEB" fill-opacity="0.1" stroke="#6A4AEB"/>
<path d="M36.4999 0.500092C37.4262 0.500092 38.456 1.27669 39.4964 3.06554C40.5159 4.8186 41.451 7.38856 42.2429 10.6079C43.8248 17.0388 44.8084 25.9492 44.8084 35.8096C44.8084 45.6701 43.8248 54.5804 42.2429 61.0113C41.451 64.2307 40.5159 66.8006 39.4964 68.5537C38.456 70.3425 37.4262 71.1191 36.4999 71.1191C35.5736 71.1191 34.5438 70.3425 33.5035 68.5537C32.484 66.8006 31.5488 64.2307 30.7569 61.0113C29.175 54.5804 28.1914 45.6701 28.1914 35.8096C28.1914 25.9492 29.175 17.0388 30.7569 10.6079C31.5488 7.38856 32.484 4.8186 33.5035 3.06554C34.5438 1.27669 35.5736 0.500092 36.4999 0.500092Z" fill="#6A4AEB" fill-opacity="0.1" stroke="#6A4AEB"/>
<path d="M36.4999 0.500092C37.4262 0.500092 38.456 1.27669 39.4964 3.06554C40.5159 4.8186 41.451 7.38856 42.2429 10.6079C43.8248 17.0388 44.8084 25.9492 44.8084 35.8096C44.8084 45.6701 43.8248 54.5804 42.2429 61.0113C41.451 64.2307 40.5159 66.8006 39.4964 68.5537C38.456 70.3425 37.4262 71.1191 36.4999 71.1191C35.5736 71.1191 34.5438 70.3425 33.5035 68.5537C32.484 66.8006 31.5488 64.2307 30.7569 61.0113C29.175 54.5804 28.1914 45.6701 28.1914 35.8096C28.1914 25.9492 29.175 17.0388 30.7569 10.6079C31.5488 7.38856 32.484 4.8186 33.5035 3.06554C34.5438 1.27669 35.5736 0.500092 36.4999 0.500092Z" fill="#6A4AEB" fill-opacity="0.1" stroke="#6A4AEB"/>
</svg>
