<svg width="24" height="24" viewBox="0 0 24 24" fill="none" xmlns="http://www.w3.org/2000/svg">
<g clip-path="url(#clip0_13395_4423)">
<rect width="24" height="24" fill="#52F2B9"/>
<circle cx="12" cy="12" r="12" fill="#52F2B9"/>
<path d="M12.0004 7.35614C13.5231 7.35614 14.7576 6.60484 14.7576 5.67807C14.7576 4.7513 13.5231 4 12.0004 4C10.4776 4 9.24316 4.7513 9.24316 5.67807C9.24316 6.60484 10.4776 7.35614 12.0004 7.35614Z" fill="#0F0F0F"/>
<path d="M12.0004 20.0002C13.5231 20.0002 14.7576 19.2489 14.7576 18.3221C14.7576 17.3953 13.5231 16.644 12.0004 16.644C10.4776 16.644 9.24316 17.3953 9.24316 18.3221C9.24316 19.2489 10.4776 20.0002 12.0004 20.0002Z" fill="#0F0F0F"/>
<path d="M8.1579 9.67909C8.91928 8.29912 8.91434 6.80453 8.14686 6.34083C7.37938 5.87713 6.13999 6.61992 5.37861 7.99988C4.61722 9.37985 4.62217 10.8744 5.38965 11.3381C6.15713 11.8018 7.39652 11.0591 8.1579 9.67909Z" fill="#0F0F0F"/>
<path d="M18.6199 16.0002C19.3813 14.6202 19.3768 13.1259 18.6098 12.6625C17.8428 12.1991 16.6039 12.9422 15.8425 14.3221C15.0811 15.7021 15.0856 17.1964 15.8526 17.6598C16.6195 18.1232 17.8585 17.3802 18.6199 16.0002Z" fill="#0F0F0F"/>
<path d="M8.14784 17.6597C8.91532 17.196 8.92026 15.7014 8.15888 14.3214C7.39749 12.9414 6.1581 12.1987 5.39062 12.6624C4.62314 13.1261 4.6182 14.6206 5.37958 16.0006C6.14097 17.3806 7.38036 18.1234 8.14784 17.6597Z" fill="#0F0F0F"/>
<path d="M18.6108 11.3384C19.3777 10.8751 19.3823 9.38073 18.6209 8.00076C17.8595 6.62079 16.6205 5.87776 15.8536 6.34114C15.0866 6.80453 15.0821 8.29886 15.8435 9.67883C16.6048 11.0588 17.8438 11.8018 18.6108 11.3384Z" fill="#0F0F0F"/>
</g>
<defs>
<clipPath id="clip0_13395_4423">
<rect width="24" height="24" fill="white"/>
</clipPath>
</defs>
</svg>
