<svg width="16" height="16" viewBox="0 0 16 16" fill="none" xmlns="http://www.w3.org/2000/svg">
<g clip-path="url(#clip0_4383_14859)">
<path d="M8 16C12.4334 16 16 12.4334 16 8C16 3.56664 12.4334 0 8 0C3.56664 0 0 3.56664 0 8C0 12.4334 3.56664 16 8 16Z" fill="#DADADA"/>
<path fill-rule="evenodd" clip-rule="evenodd" d="M4.93673 10.2459C4.96648 10.2129 5.00235 10.1862 5.04259 10.1684C5.08284 10.1497 5.12571 10.1398 5.17033 10.139H12.501C12.5317 10.139 12.5623 10.1488 12.5877 10.1666C12.6139 10.1844 12.634 10.2085 12.6463 10.2379C12.6585 10.2673 12.6629 10.2985 12.6576 10.3297C12.6524 10.3609 12.6384 10.3903 12.6183 10.4134L11.0636 12.1709C11.0338 12.2039 10.998 12.2306 10.9577 12.2484C10.9175 12.2672 10.8746 12.277 10.83 12.2778H3.49491C3.46429 12.2778 3.43367 12.268 3.4083 12.2502C3.38292 12.2324 3.36193 12.2083 3.34968 12.1789C3.33743 12.1495 3.33393 12.1183 3.33831 12.0871C3.34268 12.0559 3.35755 12.0265 3.37855 12.0034L4.93673 10.2459ZM12.6244 8.78878C12.6454 8.81195 12.6594 8.84136 12.6646 8.87256C12.6699 8.90375 12.6655 8.93583 12.6533 8.96435C12.641 8.99376 12.6209 9.01782 12.5947 9.03565C12.5693 9.05347 12.5387 9.06238 12.5072 9.06327L5.1747 9.06951C5.13096 9.06862 5.08721 9.05882 5.04697 9.0401C5.00672 9.02139 4.97085 8.99554 4.94111 8.96257L3.37593 7.21135C3.35493 7.18818 3.34093 7.15877 3.33568 7.12758C3.33043 7.09639 3.33481 7.0643 3.34705 7.03579C3.3593 7.00638 3.37943 6.98231 3.40567 6.96449C3.43104 6.94667 3.46166 6.93775 3.49229 6.93686L10.8256 6.93062C10.8694 6.93151 10.9131 6.94132 10.9534 6.96003C10.9936 6.97875 11.0295 7.00459 11.0592 7.03757L12.6244 8.78878ZM4.93673 3.82923C4.96648 3.79626 5.00235 3.76952 5.04259 3.7517C5.08284 3.73298 5.12571 3.72318 5.17033 3.72229L12.5054 3.72853C12.536 3.72853 12.5667 3.73833 12.592 3.75616C12.6174 3.77398 12.6384 3.79804 12.6506 3.82745C12.6629 3.85686 12.6673 3.88805 12.662 3.91925C12.6568 3.95044 12.6428 3.97985 12.6218 4.00302L11.0636 5.75423C11.0338 5.78721 10.998 5.81395 10.9577 5.83177C10.9175 5.85048 10.8746 5.86029 10.83 5.86118H3.49491C3.46429 5.86118 3.43367 5.85138 3.4083 5.83355C3.38292 5.81573 3.36193 5.79167 3.34968 5.76226C3.33743 5.73285 3.33393 5.70165 3.33831 5.67046C3.34355 5.63927 3.35755 5.60986 3.37855 5.58669L4.93673 3.82923Z" fill="black"/>
</g>
<defs>
<clipPath id="clip0_4383_14859">
<rect width="16" height="16" fill="white"/>
</clipPath>
</defs>
</svg>
