<svg width="40" height="40" viewBox="0 0 40 40" fill="none" xmlns="http://www.w3.org/2000/svg">
<path d="M31.7456 19.3564C31.4087 19.3564 31.0719 19.3985 30.7772 19.567C30.3982 19.8196 30.1035 20.409 30.1035 20.9564C30.1035 21.4195 30.5246 22.009 30.9877 22.2616C32.2929 22.9353 33.6823 21.4195 33.0087 20.1564C32.7982 19.6933 32.2508 19.3985 31.7456 19.3564Z" fill="#FF8500"/>
<path d="M21.1999 10.3463C21.663 10.4305 22.3367 12.0304 22.463 13.3778C22.5051 13.6725 22.463 14.304 22.463 14.7672C22.4209 15.4829 22.3367 15.6935 22.0841 16.0303C21.5367 16.8303 20.5262 17.3355 19.221 17.4197C18.8421 17.4618 18.2105 17.5039 17.8737 17.5039C17.3263 17.4618 17.2842 17.4618 17.3684 17.2513C17.4105 17.1671 17.5369 16.8724 17.6211 16.6197C18.1684 14.9356 19.3894 12.241 20.021 11.3989C20.442 10.7673 20.9473 10.3042 21.1999 10.3463ZM20.7788 6.68327C20.5683 6.68327 20.3157 6.72537 19.9368 6.85168C19.3894 7.0201 18.8842 7.31482 18.421 7.69376C17.7474 8.199 17.6632 8.2411 17.6211 8.03058C17.579 7.69375 17.0316 7.23061 16.5264 7.18851C16.0211 7.1043 15.3896 7.35692 15.1369 7.73586C15.0106 7.90427 14.6738 8.45162 14.337 8.99897C13.7475 10.0095 13.537 10.7252 13.7475 11.1463C13.8738 11.3989 13.8317 11.6936 13.4528 13.5041C12.7791 16.7882 11.6844 23.5669 11.6844 24.8721C11.6423 27.8193 11.6844 30.5982 11.7265 31.1455C11.8528 31.9876 12.1476 32.577 12.6949 32.956C13.2423 33.3349 13.537 33.4191 14.1264 33.2507C14.7159 33.1244 15.0106 32.9139 15.3475 32.4507C15.7264 31.9034 15.8106 31.3139 15.8106 28.7456C15.7685 25.6299 16.1895 20.7038 16.4422 20.4091C16.5264 20.367 17.0737 20.3249 17.7053 20.4091C20.0631 20.6196 21.9999 20.1986 23.4735 19.1039C25.0734 17.925 25.7471 16.5776 25.8734 14.304C25.9997 11.3147 25.0313 8.66214 23.3051 7.31482C22.7577 6.93589 22.5893 6.89378 21.7472 6.76747C21.3262 6.68326 21.0315 6.64116 20.7788 6.68327Z" fill="white"/>
</svg>
