<svg width="24" height="24" viewBox="0 0 24 24" fill="none" xmlns="http://www.w3.org/2000/svg">
<g clip-path="url(#clip0_11054_941)">
<path d="M22.8047 1L13.4399 7.87731L15.1717 3.8198L22.8047 1Z" fill="#E2761B" stroke="#E2761B" stroke-width="0.101334" stroke-linecap="round" stroke-linejoin="round"/>
<path d="M1.18604 1L10.4755 7.94246L8.82839 3.8198L1.18604 1Z" fill="#E4761B" stroke="#E4761B" stroke-width="0.101334" stroke-linecap="round" stroke-linejoin="round"/>
<path d="M19.4355 16.9414L16.9414 20.7197L22.278 22.1715L23.812 17.0251L19.4355 16.9414Z" fill="#E4761B" stroke="#E4761B" stroke-width="0.101334" stroke-linecap="round" stroke-linejoin="round"/>
<path d="M0.197266 17.0251L1.72198 22.1715L7.05847 20.7197L4.56434 16.9414L0.197266 17.0251Z" fill="#E4761B" stroke="#E4761B" stroke-width="0.101334" stroke-linecap="round" stroke-linejoin="round"/>
<path d="M6.75709 10.5577L5.27002 12.7819L10.5689 13.0146L10.3806 7.38428L6.75709 10.5577Z" fill="#E4761B" stroke="#E4761B" stroke-width="0.101334" stroke-linecap="round" stroke-linejoin="round"/>
<path d="M17.2329 10.5574L13.5623 7.31885L13.4399 13.0143L18.7293 12.7816L17.2329 10.5574Z" fill="#E4761B" stroke="#E4761B" stroke-width="0.101334" stroke-linecap="round" stroke-linejoin="round"/>
<path d="M7.05859 20.7198L10.2398 19.1843L7.49153 17.0625L7.05859 20.7198Z" fill="#E4761B" stroke="#E4761B" stroke-width="0.101334" stroke-linecap="round" stroke-linejoin="round"/>
<path d="M13.7505 19.1843L16.9411 20.7198L16.4987 17.0625L13.7505 19.1843Z" fill="#E4761B" stroke="#E4761B" stroke-width="0.101334" stroke-linecap="round" stroke-linejoin="round"/>
<path d="M16.9411 20.7201L13.7505 19.1846L14.0046 21.2412L13.9764 22.1067L16.9411 20.7201Z" fill="#D7C1B3" stroke="#D7C1B3" stroke-width="0.101334" stroke-linecap="round" stroke-linejoin="round"/>
<path d="M7.05859 20.7201L10.0233 22.1067L10.0045 21.2412L10.2398 19.1846L7.05859 20.7201Z" fill="#D7C1B3" stroke="#D7C1B3" stroke-width="0.101334" stroke-linecap="round" stroke-linejoin="round"/>
<path d="M10.0701 15.7038L7.41602 14.9313L9.28894 14.0845L10.0701 15.7038Z" fill="#233447" stroke="#233447" stroke-width="0.101334" stroke-linecap="round" stroke-linejoin="round"/>
<path d="M13.9199 15.7038L14.7011 14.0845L16.5835 14.9313L13.9199 15.7038Z" fill="#233447" stroke="#233447" stroke-width="0.101334" stroke-linecap="round" stroke-linejoin="round"/>
<path d="M7.05858 20.7197L7.51034 16.9414L4.56445 17.0251L7.05858 20.7197Z" fill="#CD6116" stroke="#CD6116" stroke-width="0.101334" stroke-linecap="round" stroke-linejoin="round"/>
<path d="M16.4897 16.9414L16.9415 20.7197L19.4356 17.0251L16.4897 16.9414Z" fill="#CD6116" stroke="#CD6116" stroke-width="0.101334" stroke-linecap="round" stroke-linejoin="round"/>
<path d="M18.7293 12.7817L13.4399 13.0145L13.9293 15.704L14.7105 14.0847L16.5928 14.9315L18.7293 12.7817Z" fill="#CD6116" stroke="#CD6116" stroke-width="0.101334" stroke-linecap="round" stroke-linejoin="round"/>
<path d="M7.41591 14.9315L9.2983 14.0847L10.07 15.704L10.5688 13.0145L5.27002 12.7817L7.41591 14.9315Z" fill="#CD6116" stroke="#CD6116" stroke-width="0.101334" stroke-linecap="round" stroke-linejoin="round"/>
<path d="M5.27002 12.7817L7.49121 17.0627L7.41591 14.9315L5.27002 12.7817Z" fill="#E4751F" stroke="#E4751F" stroke-width="0.101334" stroke-linecap="round" stroke-linejoin="round"/>
<path d="M16.5931 14.9315L16.499 17.0627L18.7296 12.7817L16.5931 14.9315Z" fill="#E4751F" stroke="#E4751F" stroke-width="0.101334" stroke-linecap="round" stroke-linejoin="round"/>
<path d="M10.5696 13.0146L10.0708 15.7041L10.692 18.8775L10.8332 14.6991L10.5696 13.0146Z" fill="#E4751F" stroke="#E4751F" stroke-width="0.101334" stroke-linecap="round" stroke-linejoin="round"/>
<path d="M13.4402 13.0146L13.186 14.6897L13.299 18.8775L13.9296 15.7041L13.4402 13.0146Z" fill="#E4751F" stroke="#E4751F" stroke-width="0.101334" stroke-linecap="round" stroke-linejoin="round"/>
<path d="M13.9289 15.7041L13.2983 18.8775L13.7502 19.1846L16.4984 17.0628L16.5925 14.9316L13.9289 15.7041Z" fill="#F6851B" stroke="#F6851B" stroke-width="0.101334" stroke-linecap="round" stroke-linejoin="round"/>
<path d="M7.41602 14.9316L7.49131 17.0628L10.2396 19.1846L10.6913 18.8775L10.0701 15.7041L7.41602 14.9316Z" fill="#F6851B" stroke="#F6851B" stroke-width="0.101334" stroke-linecap="round" stroke-linejoin="round"/>
<path d="M13.9763 22.1064L14.0045 21.2409L13.7692 21.0362H10.2209L10.0045 21.2409L10.0233 22.1064L7.05859 20.7197L8.09388 21.5573L10.1927 22.9998H13.7974L15.9056 21.5573L16.941 20.7197L13.9763 22.1064Z" fill="#C0AD9E" stroke="#C0AD9E" stroke-width="0.101334" stroke-linecap="round" stroke-linejoin="round"/>
<path d="M13.7503 19.1846L13.2986 18.8774H10.6915L10.2397 19.1846L10.0044 21.2412L10.2208 21.0365H13.7691L14.0044 21.2412L13.7503 19.1846Z" fill="#161616" stroke="#161616" stroke-width="0.101334" stroke-linecap="round" stroke-linejoin="round"/>
<path d="M23.1999 8.32402L24 4.52707L22.8046 1L13.7505 7.64466L17.2328 10.5575L22.1553 11.9813L23.247 10.725L22.7764 10.39L23.5294 9.71067L22.9458 9.26392L23.6987 8.69627L23.1999 8.32402Z" fill="#763D16" stroke="#763D16" stroke-width="0.101334" stroke-linecap="round" stroke-linejoin="round"/>
<path d="M0 4.52707L0.800003 8.32402L0.291766 8.69627L1.04471 9.26392L0.47059 9.71067L1.22353 10.39L0.752946 10.725L1.8353 11.9813L6.75768 10.5575L10.2401 7.64466L1.18589 1L0 4.52707Z" fill="#763D16" stroke="#763D16" stroke-width="0.101334" stroke-linecap="round" stroke-linejoin="round"/>
<path d="M22.1555 11.9814L17.2331 10.5576L18.7296 12.7817L16.499 17.0627L19.4355 17.0254H23.812L22.1555 11.9814Z" fill="#F6851B" stroke="#F6851B" stroke-width="0.101334" stroke-linecap="round" stroke-linejoin="round"/>
<path d="M6.75729 10.5576L1.83492 11.9814L0.197266 17.0254H4.56434L7.49141 17.0627L5.27023 12.7817L6.75729 10.5576Z" fill="#F6851B" stroke="#F6851B" stroke-width="0.101334" stroke-linecap="round" stroke-linejoin="round"/>
<path d="M13.4399 13.0144L13.7505 7.64469L15.1811 3.81982H8.82812L10.2399 7.64469L10.5693 13.0144L10.6822 14.7081L10.6917 18.8773H13.2987L13.3176 14.7081L13.4399 13.0144Z" fill="#F6851B" stroke="#F6851B" stroke-width="0.101334" stroke-linecap="round" stroke-linejoin="round"/>
</g>
<defs>
<clipPath id="clip0_11054_941">
<rect width="24" height="24" fill="white"/>
</clipPath>
</defs>
</svg>
