<svg width="24" height="24" viewBox="0 0 24 24" fill="none" xmlns="http://www.w3.org/2000/svg">
<path d="M22.9502 4.25C22.7002 3.3 21.9002 2.35 20.5002 1.3C19.3502 0.5 18.1502 0 17.2002 0C17.0002 0 16.8502 0 16.6502 0.05C16.2002 0.15 15.8502 0.45 15.6002 0.95C15.3002 1.5 15.2502 2.3 15.4502 2.75C15.5002 2.9 15.6002 3.05 15.7002 3.25C14.8002 3.8 14.2502 4 14.2002 4C16.6002 4.8 18.6002 6.5 19.8502 8.75V8.55C19.9002 7.95 20.1002 7.3 20.3002 6.6C20.5502 6.65 20.8002 6.7 21.0502 6.7C21.7002 6.7 22.2502 6.45 22.6002 5.95C22.9502 5.4 23.1002 4.8 22.9502 4.25Z" fill="#5E12A0"/>
<path d="M20.4 6.00023C22 6.45023 22.65 5.20023 22.4 4.35023C22.15 3.50023 21.45 2.65023 20.15 1.70023C18.85 0.750234 17.55 0.350234 16.7 0.550234C15.85 0.750234 15.6 2.00023 15.85 2.50023C15.95 2.70023 16.15 3.00023 16.4 3.30023C16.05 3.55023 15.75 3.70023 15.5 3.85023C17.1 4.60023 18.5 5.70023 19.55 7.15023C19.65 6.65023 19.85 6.25023 20 5.85023C20.15 5.95023 20.3 5.95023 20.4 6.00023Z" fill="url(#paint0_radial_2323_13865)"/>
<path d="M11.3501 23.3998C16.7501 23.3998 21.1001 18.9498 21.1001 13.4998C21.1001 8.0498 16.7001 3.5498 11.3501 3.5498C5.9501 3.5498 1.6001 7.9998 1.6001 13.4998C1.6001 18.9998 5.9501 23.3998 11.3501 23.3998Z" fill="url(#paint1_radial_2323_13865)"/>
<path opacity="0.6" d="M21.65 3.55046C20.3 2.15046 19.2 1.75046 17.85 1.45046C16.8 1.20046 17.1 0.600456 18.35 0.700456C17.75 0.500456 17.15 0.450456 16.75 0.500456C15.9 0.700456 15.65 1.95046 15.9 2.45046C16 2.65046 16.2 2.95046 16.45 3.25046C16 3.55046 15.6 3.80046 15.25 4.00046C15.4 4.05046 15.6 4.15046 15.85 4.30046C16.45 4.60046 17.1 5.15046 17.1 5.15046C16.1 4.30046 16.35 3.90046 17.7 2.95046C18.1 2.65046 18.9 2.70046 19.6 3.05046C20.3 3.40046 21.15 4.35046 21.15 4.35046L20.25 6.00046C20.3 6.00046 20.35 6.05046 20.4 6.05046C20.9 6.20046 21.3 6.15046 21.6 6.05046C22 5.80046 22.95 5.00046 21.65 3.55046Z" fill="#A98698"/>
<path d="M17.85 2.34982C18.2 2.49982 18.65 2.74982 19.2 3.09982C19.85 3.54982 20.45 4.04982 20.8 4.44982C20.2 5.24982 19.8 6.39982 19.55 7.14982C19.65 7.34982 19.8 7.49982 19.95 7.69982C20.05 7.24982 20.3 6.59982 20.55 5.94982C20.6 5.94982 20.7 5.94982 20.8 5.94982C21 5.94982 21.25 5.89982 21.45 5.74982C21.6 5.64982 21.75 5.44982 21.75 5.09982C21.75 4.74982 21.5 4.34982 20.95 3.79982C20.55 3.44982 20 2.99982 19.5 2.64982C18 1.64982 16.95 1.34982 16.5 1.84982C16.2 2.14982 16.2 2.54982 16.35 2.84982C15.8 3.19982 15.3 3.49982 15 3.64982C15.2 3.69982 15.4 3.79982 15.6 3.89982C16.1 3.59982 16.9 3.04982 17.85 2.34982ZM21.15 4.84982C21.2 4.94982 21.2 5.04982 21.2 5.09982C21.2 5.24982 21.15 5.29982 21.1 5.34982C21.05 5.39982 20.9 5.44982 20.75 5.44982C20.9 5.19982 21 5.04982 21.15 4.84982ZM16.85 2.19982C16.9 2.14982 17.05 2.09982 17.25 2.14982C17.1 2.29982 16.9 2.39982 16.75 2.54982C16.7 2.44982 16.7 2.29982 16.85 2.19982Z" fill="#5E12A0"/>
<path d="M11.35 3C5.6 3 1 7.7 1 13.5C1 19.3 5.6 24 11.35 24C17.05 24 21.7 19.3 21.7 13.5C21.7 7.7 17 3 11.35 3ZM11.35 23.4C5.95 23.4 1.6 19 1.6 13.5C1.6 8 5.95 3.55 11.35 3.55C16.7 3.55 21.1 8 21.1 13.5C21.1 19 16.7 23.4 11.35 23.4Z" fill="#5E12A0"/>
<path opacity="0.6" d="M11.3501 23.3998C16.7501 23.3998 21.1001 18.9498 21.1001 13.4998C21.1001 8.0498 16.7001 3.5498 11.3501 3.5498C5.9501 3.5498 1.6001 7.9998 1.6001 13.4998C1.6001 18.9998 5.9501 23.3998 11.3501 23.3998Z" fill="url(#paint2_linear_2323_13865)"/>
<path opacity="0.6" d="M11.25 22.2002C5.94996 21.3502 2.34996 16.2502 3.19996 10.8502C3.59996 8.4502 4.74996 6.4002 6.44996 4.9502C3.99996 6.4002 2.19996 8.9002 1.69996 11.9502C0.849962 17.3502 4.44996 22.4502 9.74996 23.3502C12.7 23.8502 15.6 22.9002 17.7 21.0502C15.85 22.1002 13.55 22.6002 11.25 22.2002Z" fill="#A98698"/>
<path opacity="0.6" d="M12.9002 3.70004C10.4502 3.30004 8.05019 3.85004 6.10019 5.10004C6.05019 5.15004 6.0502 5.15004 6.0502 5.15004C6.8002 4.70004 7.90019 4.30004 7.90019 4.30004C5.0502 5.95004 4.2002 7.85004 4.2002 7.85004C5.2502 5.75004 8.5002 4.20004 11.0002 4.10004C13.5502 4.00004 15.2002 4.75004 17.2002 6.40004C19.2002 8.05004 20.4502 11.5 20.3002 14.2C20.2002 16.9 18.8002 19.1 18.8002 19.1C19.7502 17.85 20.3502 16.9 20.7002 16C20.7502 15.7 20.8502 15.45 20.8502 15.15C21.8002 9.65004 18.2002 4.60004 12.9002 3.70004Z" fill="url(#paint3_linear_2323_13865)"/>
<path d="M20.5998 13.4004C20.5998 18.6004 16.4498 22.8504 11.3498 22.8504C6.24981 22.8504 2.0498 18.6004 2.0498 13.4004H20.5998Z" fill="url(#paint4_linear_2323_13865)"/>
<g opacity="0.6">
<path opacity="0.6" d="M19.8502 13.4004C19.8502 18.5004 15.9002 22.6504 10.9502 22.8504C11.0502 22.8504 11.2002 22.8504 11.3002 22.8504C16.4002 22.8504 20.5502 18.6504 20.5502 13.4004H19.8502Z" fill="url(#paint5_linear_2323_13865)"/>
</g>
<g opacity="0.7">
<path opacity="0.7" d="M3.3498 13.4004H2.0498C2.0498 18.6004 6.1998 22.8504 11.2998 22.8504C11.5498 22.8504 11.7498 22.8504 11.9498 22.8504C7.1498 22.4504 3.3498 18.3504 3.3498 13.4004Z" fill="url(#paint6_linear_2323_13865)"/>
</g>
<path d="M20.5998 13.5005C20.5998 12.4005 18.7498 11.8005 16.2998 11.6005C14.4998 11.4505 12.6998 11.6505 10.6498 12.2505C8.8498 12.8005 7.24981 12.7005 6.09981 12.5505C3.49981 12.2505 2.0498 12.2005 2.0498 13.5005C2.0498 15.3505 5.7498 17.6505 11.2998 16.8505C14.0998 16.4505 15.5498 15.6005 17.1998 15.0505C18.9998 14.4505 20.5998 14.4505 20.5998 13.5005Z" fill="url(#paint7_linear_2323_13865)"/>
<path d="M14.3498 8.9998C15.1998 8.9998 15.8998 8.2998 15.8998 7.3998C15.8998 6.4998 15.1998 5.7998 14.3498 5.7998C13.4998 5.7998 12.7998 6.4998 12.7998 7.3998C12.7998 8.2998 13.4998 8.9998 14.3498 8.9998Z" fill="white"/>
<path d="M16.9498 10.2004C17.2998 10.2004 17.5998 9.90039 17.5998 9.55039C17.5998 9.20039 17.2998 8.90039 16.9498 8.90039C16.5998 8.90039 16.2998 9.20039 16.2998 9.55039C16.2998 9.90039 16.5498 10.2004 16.9498 10.2004Z" fill="white"/>
<g opacity="0.6">
<path opacity="0.6" d="M19.3001 6.1498C19.2501 6.1498 19.3001 6.1498 19.3001 6.1498C19.1501 6.1498 19.1001 6.0498 19.1001 5.8998C19.2501 5.0998 19.9001 4.2998 19.9501 4.2498C20.0001 4.1498 20.1501 4.1498 20.2501 4.2498C20.3501 4.2998 20.3501 4.4498 20.2501 4.5498C20.2501 4.5498 19.6001 5.2998 19.5001 5.9998C19.5001 6.0998 19.4001 6.1498 19.3001 6.1498Z" fill="url(#paint8_linear_2323_13865)"/>
</g>
<path opacity="0.2" d="M10.7002 20.9004C10.9502 20.9004 11.2002 20.7004 11.2002 20.4004C11.2002 20.1004 11.0002 19.9004 10.7002 19.9004C10.4002 19.9004 10.2002 20.1004 10.2002 20.4004C10.2002 20.7004 10.4002 20.9004 10.7002 20.9004Z" fill="white"/>
<g opacity="0.4">
<path opacity="0.6" d="M10.4002 20.7004C10.2002 20.5004 10.2002 20.2004 10.4002 20.0004C10.4502 19.9504 10.4502 19.9504 10.5002 19.9004C10.4502 19.9004 10.4002 19.9504 10.3502 20.0004C10.1502 20.2004 10.1502 20.5004 10.3502 20.7004C10.5002 20.8504 10.7502 20.9004 10.9502 20.8004C10.7502 20.9004 10.5502 20.8504 10.4002 20.7004Z" fill="url(#paint9_linear_2323_13865)"/>
</g>
<path opacity="0.3" d="M10.85 20.2498C10.9 20.2498 10.95 20.1998 10.95 20.1498C10.95 20.0998 10.9 20.0498 10.85 20.0498C10.8 20.0498 10.75 20.0998 10.75 20.1498C10.75 20.1998 10.8 20.2498 10.85 20.2498Z" fill="white"/>
<path opacity="0.2" d="M13.25 20.6504C13.5 20.6504 13.75 20.4504 13.75 20.1504C13.75 19.9004 13.55 19.6504 13.25 19.6504C13 19.6504 12.75 19.8504 12.75 20.1504C12.75 20.4004 12.95 20.6504 13.25 20.6504Z" fill="white"/>
<g opacity="0.4">
<path opacity="0.6" d="M12.95 20.4504C12.75 20.2504 12.75 19.9504 12.95 19.7504C13 19.7004 13 19.7004 13.05 19.6504C13 19.6504 12.95 19.7004 12.9 19.7504C12.7 19.9504 12.7 20.2504 12.9 20.4504C13.05 20.6004 13.3 20.6504 13.5 20.5504C13.3 20.6504 13.1 20.6004 12.95 20.4504Z" fill="url(#paint10_linear_2323_13865)"/>
</g>
<path opacity="0.3" d="M13.3998 19.9998C13.4498 19.9998 13.4998 19.9498 13.4998 19.8998C13.4998 19.8498 13.4498 19.7998 13.3998 19.7998C13.3498 19.7998 13.2998 19.8498 13.2998 19.8998C13.2998 19.9498 13.3498 19.9998 13.3998 19.9998Z" fill="white"/>
<path opacity="0.2" d="M11.9999 21.7996C12.1999 21.7996 12.3499 21.6496 12.3499 21.4496C12.3499 21.2496 12.1999 21.0996 11.9999 21.0996C11.7999 21.0996 11.6499 21.2496 11.6499 21.4496C11.6499 21.6496 11.7499 21.7996 11.9999 21.7996Z" fill="white"/>
<g opacity="0.4">
<path opacity="0.6" d="M11.7499 21.6498C11.5999 21.4998 11.5999 21.2498 11.7499 21.0998L11.7999 21.0498C11.7499 21.0498 11.6999 21.0998 11.6999 21.1498C11.5499 21.2998 11.5499 21.5498 11.6999 21.6998C11.7999 21.7998 11.9999 21.8498 12.1499 21.7498C12.0499 21.7998 11.8499 21.7498 11.7499 21.6498Z" fill="url(#paint11_linear_2323_13865)"/>
</g>
<path opacity="0.3" d="M12.0998 21.3002C12.1498 21.3002 12.1498 21.2502 12.1498 21.2502C12.1498 21.2002 12.0998 21.2002 12.0998 21.2002C12.0498 21.2002 12.0498 21.2502 12.0498 21.2502C12.0498 21.2502 12.0498 21.3002 12.0998 21.3002Z" fill="white"/>
<path opacity="0.2" d="M14.2499 21.5496C14.4499 21.5496 14.5999 21.3996 14.5999 21.1996C14.5999 20.9996 14.4499 20.8496 14.2499 20.8496C14.0499 20.8496 13.8999 20.9996 13.8999 21.1996C13.8499 21.3496 14.0499 21.5496 14.2499 21.5496Z" fill="white"/>
<g opacity="0.4">
<path opacity="0.6" d="M13.9999 21.3998C13.8499 21.2498 13.8499 20.9998 13.9999 20.8498L14.0499 20.7998C13.9999 20.7998 13.9499 20.8498 13.9499 20.8998C13.7999 21.0498 13.7999 21.2998 13.9499 21.4498C14.0499 21.5498 14.2499 21.5998 14.3999 21.4998C14.2999 21.5498 14.0999 21.4998 13.9999 21.3998Z" fill="url(#paint12_linear_2323_13865)"/>
</g>
<path opacity="0.3" d="M14.3498 21.0502C14.3998 21.0502 14.3998 21.0002 14.3998 21.0002C14.3998 20.9502 14.3498 20.9502 14.3498 20.9502C14.2998 20.9502 14.2998 21.0002 14.2998 21.0002C14.2998 21.0002 14.2998 21.0502 14.3498 21.0502Z" fill="white"/>
<path opacity="0.2" d="M8.5998 20.6996C9.0498 20.6996 9.3998 20.3496 9.3998 19.8996C9.3998 19.4496 9.0498 19.0996 8.5998 19.0996C8.1498 19.0996 7.7998 19.4496 7.7998 19.8996C7.7998 20.3496 8.1498 20.6996 8.5998 20.6996Z" fill="white"/>
<g opacity="0.4">
<path opacity="0.6" d="M8.1499 20.4004C7.8499 20.1004 7.8499 19.5504 8.1499 19.2504C8.1999 19.2004 8.2499 19.1504 8.2999 19.1504C8.1999 19.2004 8.0999 19.2504 7.9999 19.3504C7.6999 19.6504 7.6999 20.2004 7.9999 20.5004C8.2499 20.7504 8.6499 20.8004 8.9999 20.6004C8.7499 20.7004 8.3999 20.6504 8.1499 20.4004Z" fill="url(#paint13_linear_2323_13865)"/>
</g>
<path opacity="0.3" d="M8.9 19.65C9 19.65 9.05 19.55 9.05 19.45C9.05 19.35 8.95 19.25 8.9 19.25C8.8 19.25 8.75 19.35 8.75 19.45C8.75 19.55 8.8 19.65 8.9 19.65Z" fill="white"/>
<path opacity="0.2" d="M15.8 18.6996C16.25 18.6996 16.6 18.3496 16.6 17.8996C16.6 17.4496 16.25 17.0996 15.8 17.0996C15.35 17.0996 15 17.4496 15 17.8996C15 18.3496 15.35 18.6996 15.8 18.6996Z" fill="white"/>
<g opacity="0.4">
<path opacity="0.6" d="M15.2998 18.4004C14.9998 18.1004 14.9998 17.5504 15.2998 17.2504C15.3498 17.2004 15.3998 17.1504 15.4498 17.1504C15.3498 17.2004 15.2498 17.2504 15.1498 17.3504C14.8498 17.6504 14.8498 18.2004 15.1498 18.5004C15.3998 18.7504 15.7998 18.8004 16.1498 18.6004C15.8998 18.7004 15.5498 18.6504 15.2998 18.4004Z" fill="url(#paint14_linear_2323_13865)"/>
</g>
<path opacity="0.3" d="M16.0499 17.65C16.1499 17.65 16.1999 17.55 16.1999 17.45C16.1999 17.35 16.0999 17.25 16.0499 17.25C15.9499 17.25 15.8999 17.35 15.8999 17.45C15.8999 17.55 15.9499 17.65 16.0499 17.65Z" fill="white"/>
<defs>
<radialGradient id="paint0_radial_2323_13865" cx="0" cy="0" r="1" gradientUnits="userSpaceOnUse" gradientTransform="translate(22.1293 3.26679) scale(7.7996 7.9339)">
<stop stop-color="#FFEAFF" stop-opacity="0.6"/>
<stop offset="0.6807" stop-color="#A087C9"/>
<stop offset="1" stop-color="#10002F"/>
</radialGradient>
<radialGradient id="paint1_radial_2323_13865" cx="0" cy="0" r="1" gradientUnits="userSpaceOnUse" gradientTransform="translate(17.7896 6.64877) scale(19.0829 19.4114)">
<stop stop-color="#FFEAFF" stop-opacity="0.6"/>
<stop offset="0.6807" stop-color="#A087C9"/>
<stop offset="1" stop-color="#10002F"/>
</radialGradient>
<linearGradient id="paint2_linear_2323_13865" x1="9.7172" y1="23.279" x2="12.9449" y2="3.703" gradientUnits="userSpaceOnUse">
<stop stop-color="#81FFFF"/>
<stop offset="0.6202" stop-color="white" stop-opacity="0"/>
</linearGradient>
<linearGradient id="paint3_linear_2323_13865" x1="18.2895" y1="6.84459" x2="10.0972" y2="14.234" gradientUnits="userSpaceOnUse">
<stop offset="0.2888" stop-color="white"/>
<stop offset="0.7796" stop-color="white" stop-opacity="0"/>
</linearGradient>
<linearGradient id="paint4_linear_2323_13865" x1="2.04685" y1="18.1158" x2="20.5973" y2="18.1158" gradientUnits="userSpaceOnUse">
<stop stop-color="#0002E9"/>
<stop offset="0.9952" stop-color="#FF00C7"/>
</linearGradient>
<linearGradient id="paint5_linear_2323_13865" x1="21.5196" y1="14.2825" x2="11.2671" y2="23.8077" gradientUnits="userSpaceOnUse">
<stop offset="0.2888" stop-color="white"/>
<stop offset="0.7796" stop-color="white" stop-opacity="0"/>
</linearGradient>
<linearGradient id="paint6_linear_2323_13865" x1="2.04685" y1="18.1158" x2="11.9591" y2="18.1158" gradientUnits="userSpaceOnUse">
<stop stop-color="#000292"/>
<stop offset="0.9952" stop-color="#7D00C7"/>
</linearGradient>
<linearGradient id="paint7_linear_2323_13865" x1="2.06715" y1="14.2689" x2="20.5804" y2="14.2689" gradientUnits="userSpaceOnUse">
<stop stop-color="#000292"/>
<stop offset="0.9952" stop-color="#BE00C7"/>
</linearGradient>
<linearGradient id="paint8_linear_2323_13865" x1="20.3" y1="4.18825" x2="18.9363" y2="6.3669" gradientUnits="userSpaceOnUse">
<stop offset="0.2888" stop-color="white"/>
<stop offset="0.7796" stop-color="white" stop-opacity="0"/>
</linearGradient>
<linearGradient id="paint9_linear_2323_13865" x1="10.1925" y1="20.4012" x2="10.9308" y2="20.4012" gradientUnits="userSpaceOnUse">
<stop offset="0.2888" stop-color="white"/>
<stop offset="0.7796" stop-color="white" stop-opacity="0"/>
</linearGradient>
<linearGradient id="paint10_linear_2323_13865" x1="12.7379" y1="20.1524" x2="13.4763" y2="20.1524" gradientUnits="userSpaceOnUse">
<stop offset="0.2888" stop-color="white"/>
<stop offset="0.7796" stop-color="white" stop-opacity="0"/>
</linearGradient>
<linearGradient id="paint11_linear_2323_13865" x1="11.6079" y1="21.4364" x2="12.1622" y2="21.4364" gradientUnits="userSpaceOnUse">
<stop offset="0.2888" stop-color="white"/>
<stop offset="0.7796" stop-color="white" stop-opacity="0"/>
</linearGradient>
<linearGradient id="paint12_linear_2323_13865" x1="13.8515" y1="21.17" x2="14.4058" y2="21.17" gradientUnits="userSpaceOnUse">
<stop offset="0.2888" stop-color="white"/>
<stop offset="0.7796" stop-color="white" stop-opacity="0"/>
</linearGradient>
<linearGradient id="paint13_linear_2323_13865" x1="7.80695" y1="19.9228" x2="9.0127" y2="19.9228" gradientUnits="userSpaceOnUse">
<stop offset="0.2888" stop-color="white"/>
<stop offset="0.7796" stop-color="white" stop-opacity="0"/>
</linearGradient>
<linearGradient id="paint14_linear_2323_13865" x1="14.968" y1="17.917" x2="16.1738" y2="17.917" gradientUnits="userSpaceOnUse">
<stop offset="0.2888" stop-color="white"/>
<stop offset="0.7796" stop-color="white" stop-opacity="0"/>
</linearGradient>
</defs>
</svg>
