<svg width="40" height="40" viewBox="0 0 40 40" fill="none" xmlns="http://www.w3.org/2000/svg">
<path d="M20.2591 0.670943C12.4063 0.535028 5.68604 6.95323 5.50482 14.8061C5.36891 20.137 8.11741 24.8336 12.2855 27.4613C12.4818 27.5821 12.7536 27.5066 12.8593 27.2951L16.1213 20.7863C16.6045 19.8349 16.529 18.6872 15.9401 17.7962C15.4417 17.026 15.1548 16.1048 15.1699 15.1232C15.2001 12.5861 17.2086 10.487 19.7306 10.3511C22.6452 10.2001 25.0463 12.6314 24.8198 15.5612C24.6386 17.917 22.7358 19.8047 20.395 20.001C20.3799 20.001 20.3648 20.001 20.3497 20.001C19.2775 20.0766 18.3261 20.6957 17.8429 21.6622L14.5809 28.1559C14.4752 28.3674 14.5809 28.6241 14.7923 28.6996C16.4384 29.3339 18.2204 29.6661 20.093 29.6661C28.0214 29.6208 34.5 23.112 34.5 15.1836C34.5151 7.25526 28.1573 0.806858 20.2591 0.670943Z" fill="#32253E"/>
<path d="M10.3374 39.3312C13.0063 39.3312 15.1699 37.1676 15.1699 34.4987C15.1699 31.8297 13.0063 29.6661 10.3374 29.6661C7.66848 29.6661 5.50488 31.8297 5.50488 34.4987C5.50488 37.1676 7.66848 39.3312 10.3374 39.3312Z" fill="#32253E"/>
</svg>
