<svg width="72" height="72" viewBox="0 0 72 72" fill="none" xmlns="http://www.w3.org/2000/svg">
<rect x="0.5" y="0.880859" width="71" height="70.619" rx="35.3095" fill="#52F2B9" fill-opacity="0.1"/>
<rect x="0.5" y="0.880859" width="71" height="70.619" rx="35.3095" stroke="#39B287"/>
<path d="M71.5 35.8098C71.5 36.727 70.7219 37.751 68.9216 38.7869C67.1586 39.8013 64.5744 40.7317 61.3376 41.5195C54.8718 43.0932 45.9133 44.0717 36 44.0717C26.0867 44.0717 17.1282 43.0932 10.6624 41.5195C7.42558 40.7317 4.84135 39.8013 3.07843 38.7869C1.27812 37.751 0.5 36.727 0.5 35.8098C0.5 34.8925 1.27812 33.8686 3.07843 32.8326C4.84135 31.8182 7.42558 30.8878 10.6624 30.1C17.1282 28.5263 26.0867 27.5479 36 27.5479C45.9133 27.5479 54.8718 28.5263 61.3376 30.1C64.5744 30.8878 67.1586 31.8182 68.9216 32.8326C70.7219 33.8686 71.5 34.8925 71.5 35.8098Z" fill="#52F2B9" fill-opacity="0.1" stroke="#39B287"/>
<path d="M35.9997 0.500092C36.926 0.500092 37.9558 1.27669 38.9961 3.06554C40.0156 4.8186 40.9508 7.38856 41.7427 10.6079C43.3246 17.0388 44.3082 25.9492 44.3082 35.8096C44.3082 45.6701 43.3246 54.5804 41.7427 61.0113C40.9508 64.2307 40.0156 66.8006 38.9961 68.5537C37.9558 70.3425 36.926 71.1191 35.9997 71.1191C35.0734 71.1191 34.0436 70.3425 33.0032 68.5537C31.9837 66.8006 31.0485 64.2307 30.2566 61.0113C28.6748 54.5804 27.6912 45.6701 27.6912 35.8096C27.6912 25.9492 28.6748 17.0388 30.2566 10.6079C31.0485 7.38856 31.9837 4.8186 33.0032 3.06554C34.0436 1.27669 35.0734 0.500092 35.9997 0.500092Z" fill="#52F2B9" fill-opacity="0.1" stroke="#39B287"/>
<path d="M35.9997 0.500092C36.926 0.500092 37.9558 1.27669 38.9961 3.06554C40.0156 4.8186 40.9508 7.38856 41.7427 10.6079C43.3246 17.0388 44.3082 25.9492 44.3082 35.8096C44.3082 45.6701 43.3246 54.5804 41.7427 61.0113C40.9508 64.2307 40.0156 66.8006 38.9961 68.5537C37.9558 70.3425 36.926 71.1191 35.9997 71.1191C35.0734 71.1191 34.0436 70.3425 33.0032 68.5537C31.9837 66.8006 31.0485 64.2307 30.2566 61.0113C28.6748 54.5804 27.6912 45.6701 27.6912 35.8096C27.6912 25.9492 28.6748 17.0388 30.2566 10.6079C31.0485 7.38856 31.9837 4.8186 33.0032 3.06554C34.0436 1.27669 35.0734 0.500092 35.9997 0.500092Z" fill="#52F2B9" fill-opacity="0.1" stroke="#39B287"/>
</svg>
