<svg width="23" height="28" viewBox="0 0 23 28" fill="none" xmlns="http://www.w3.org/2000/svg">
<path d="M20.7457 13.3564C20.4089 13.3564 20.072 13.3985 19.7773 13.567C19.3984 13.8196 19.1036 14.409 19.1036 14.9564C19.1036 15.4195 19.5247 16.009 19.9878 16.2616C21.293 16.9353 22.6825 15.4195 22.0088 14.1564C21.7983 13.6933 21.2509 13.3985 20.7457 13.3564Z" fill="#FF8500"/>
<path d="M10.2001 4.34629C10.6633 4.4305 11.3369 6.03044 11.4632 7.37776C11.5053 7.67248 11.4632 8.30404 11.4632 8.76718C11.4211 9.48294 11.3369 9.69346 11.0843 10.0303C10.537 10.8303 9.52646 11.3355 8.22125 11.4197C7.84231 11.4618 7.21076 11.5039 6.87393 11.5039C6.32658 11.4618 6.28447 11.4618 6.36868 11.2513C6.41079 11.1671 6.5371 10.8724 6.6213 10.6197C7.16865 8.93559 8.38966 6.24096 9.02122 5.39888C9.44226 4.76733 9.9475 4.30419 10.2001 4.34629ZM9.77909 0.683265C9.56857 0.683265 9.31594 0.725369 8.93701 0.851681C8.38966 1.0201 7.88442 1.31482 7.42128 1.69376C6.74762 2.199 6.66341 2.2411 6.6213 2.03058C6.5792 1.69375 6.03185 1.23061 5.52661 1.18851C5.02136 1.1043 4.38981 1.35692 4.13718 1.73586C4.01087 1.90427 3.67404 2.45162 3.33721 2.99897C2.74776 4.00946 2.53724 4.72522 2.74776 5.14626C2.87407 5.39888 2.83197 5.69361 2.45303 7.50407C1.77937 10.7882 0.684676 17.5669 0.684676 18.8721C0.642573 21.8193 0.684676 24.5982 0.72678 25.1455C0.853091 25.9876 1.14782 26.577 1.69517 26.956C2.24251 27.3349 2.53724 27.4191 3.12669 27.2507C3.71615 27.1244 4.01087 26.9139 4.3477 26.4507C4.72664 25.9034 4.81084 25.3139 4.81084 22.7456C4.76874 19.6299 5.18978 14.7038 5.4424 14.4091C5.52661 14.367 6.07396 14.3249 6.70551 14.4091C9.06332 14.6196 11.0001 14.1986 12.4737 13.1039C14.0737 11.925 14.7473 10.5776 14.8736 8.30404C15 5.31467 14.0316 2.66214 12.3053 1.31482C11.758 0.935889 11.5895 0.893783 10.7475 0.767471C10.3264 0.683265 10.0317 0.641162 9.77909 0.683265Z" fill="white"/>
</svg>
