<svg width="131" height="40" viewBox="0 0 131 40" fill="none" xmlns="http://www.w3.org/2000/svg">
<path d="M10.9588 13.9601C11.4913 14.0538 12.2657 15.8337 12.4109 17.3325C12.4593 17.6604 12.4109 18.3629 12.4109 18.8782C12.3625 19.6744 12.2657 19.9086 11.9753 20.2833C11.3461 21.1732 10.1844 21.7353 8.68397 21.829C8.24835 21.8758 7.52232 21.9227 7.13511 21.9227C6.50589 21.8758 6.45748 21.8758 6.55429 21.6416C6.60269 21.5479 6.74789 21.2201 6.8447 20.939C7.47392 19.0655 8.87757 16.0679 9.6036 15.1311C10.0876 14.4285 10.6684 13.9133 10.9588 13.9601ZM10.4748 9.88521C10.2328 9.88521 9.94241 9.93205 9.50679 10.0726C8.87757 10.2599 8.29675 10.5878 7.76433 11.0093C6.9899 11.5714 6.8931 11.6182 6.8447 11.384C6.7963 11.0093 6.16707 10.4941 5.58625 10.4473C5.00543 10.3536 4.2794 10.6346 3.98899 11.0562C3.84379 11.2435 3.45657 11.8524 3.06936 12.4613C2.39174 13.5854 2.14973 14.3817 2.39174 14.8501C2.53694 15.1311 2.48854 15.459 2.05292 17.473C1.27849 21.1264 0.0200486 28.6674 0.0200486 30.1194C-0.0283531 33.398 0.0200486 36.4894 0.0684505 37.0983C0.213656 38.035 0.552468 38.6908 1.18169 39.1123C1.81091 39.5339 2.14973 39.6275 2.82735 39.4402C3.50498 39.2997 3.84379 39.0655 4.231 38.5503C4.66662 37.9414 4.76342 37.2856 4.76342 34.4285C4.71502 30.9624 5.19904 25.4824 5.48945 25.1545C5.58625 25.1077 6.21547 25.0608 6.9415 25.1545C9.652 25.3887 11.8785 24.9203 13.5725 23.7025C15.4118 22.391 16.1862 20.8922 16.3314 18.3629C16.4766 15.0374 15.3634 12.0866 13.3789 10.5878C12.7497 10.1662 12.5561 10.1194 11.5881 9.97888C11.1041 9.88521 10.7652 9.83837 10.4748 9.88521Z" fill="white"/>
<path d="M25.4563 9.22947C24.5851 9.22947 24.2947 9.65102 23.5202 12.0398C21.8262 17.473 21.2938 20.1428 21.1486 23.7962C21.0518 26.2786 21.2454 26.8407 22.2618 27.3559C22.6006 27.4964 22.891 27.5901 22.9394 27.5901C23.2782 27.5901 23.9559 27.3091 24.1979 27.0749C24.5851 26.6065 25.8435 21.8758 26.5211 18.4566C27.0052 15.7868 27.4892 11.0562 27.2956 10.5409C26.9568 9.65102 26.3759 9.22947 25.4563 9.22947ZM27.6828 0.470708C26.8116 0.42387 26.0371 0.93909 25.6015 1.9227C25.1175 3.04681 25.5047 4.31145 26.4727 4.87351C27.6828 5.52925 28.9896 4.92035 29.4737 3.42152C29.8609 2.25057 29.4737 1.12644 28.554 0.704899C28.2636 0.564386 27.9732 0.470708 27.6828 0.470708Z" fill="white"/>
<path d="M44.8359 11.4309C44.7391 11.384 44.5939 11.384 44.4971 11.4309C42.7062 11.5245 40.2862 12.8829 38.0597 14.8969C36.8496 16.021 36.0752 17.0515 35.3976 18.4566C34.3327 20.658 34.1391 22.7189 34.9136 24.0772C35.688 25.4355 37.3336 26.5596 39.1245 26.8875C39.5117 26.9812 39.9473 27.0749 40.0925 27.1217C40.2378 27.1217 41.1574 27.1685 42.1738 27.1217C43.8679 27.0749 44.0131 27.0749 45.6103 26.5596C47.8368 25.8102 49.0469 25.2482 49.3373 24.7798C49.8697 23.8899 49.4341 22.7657 48.4661 22.4379C48.0304 22.2974 47.7884 22.3442 45.8524 22.8126C43.7711 23.3278 43.6259 23.3746 42.1738 23.281C40.4798 23.1873 39.8989 23.0936 39.2213 22.6252C38.8341 22.391 38.7857 22.2974 38.7857 21.7821C38.7857 21.0796 39.3665 19.6744 39.9957 18.6908C40.5766 17.8946 41.8834 16.5831 42.9483 15.7868L43.6743 15.2248L43.8679 15.5526C44.2067 16.0679 44.6423 16.3021 45.2231 16.3021C46.288 16.3489 46.9656 15.4121 47.014 13.8196C47.0624 12.9765 47.0624 12.7892 46.772 12.4145C46.3364 11.8056 45.6588 11.4309 44.8359 11.4309Z" fill="white"/>
<path d="M63.1371 15.2248C63.1855 15.2248 63.2823 15.2248 63.3307 15.2248L63.7179 15.2716L62.6531 16.6299C62.0722 17.4262 61.1042 18.7845 60.475 19.6744C59.7974 20.5643 59.2649 21.3138 59.2649 21.3138C59.2165 21.3606 59.2165 21.0327 59.2649 20.6112C59.3617 19.0655 59.8458 18.0819 61.3946 16.4426C62.2174 15.5995 62.6531 15.2716 63.1371 15.2248ZM63.6211 11.7587C62.2659 11.8056 60.959 12.3676 59.5069 13.5386C57.8129 14.9437 56.4576 16.4894 55.6832 18.0819C55.3928 18.7376 55.2476 19.2997 54.812 21.6416C54.328 24.3582 54.328 24.4051 54.57 25.1545C54.9088 26.2786 55.3928 26.8407 56.4092 27.1685C56.6028 27.2154 57.1353 27.2622 57.6677 27.2154C58.4421 27.2154 58.7809 27.1217 59.3133 26.8407C60.5234 26.2318 62.2174 24.4519 63.9115 21.9695L64.9279 20.5175L64.8795 21.7353C64.8311 23.7025 64.8795 25.2482 65.0247 25.7634C65.2184 26.2318 65.7992 26.6065 66.3316 26.6065C66.8156 26.6065 67.5416 26.1849 67.8805 25.7166C68.1709 25.3418 68.2193 25.1077 68.4129 23.281C68.5097 22.2037 68.7517 20.3301 68.8969 19.1592C69.0905 18.0351 69.2357 16.5831 69.2357 16.021C69.2357 15.459 69.2841 14.8032 69.3809 14.569C69.5745 13.8665 69.2357 13.0234 68.5581 12.6487C68.1225 12.4145 67.8805 12.3676 67.2512 12.4613C66.622 12.5082 66.3316 12.4613 65.7024 12.1803C65.17 11.9929 64.6859 11.8524 64.1535 11.8056C63.9599 11.7587 63.7663 11.7587 63.6211 11.7587Z" fill="white"/>
<path d="M81.1017 11.0093C80.4241 11.0093 79.7465 11.103 79.4076 11.2435C78.5848 11.6651 76.8907 13.1639 76.5035 13.8665C75.9711 14.6627 75.9227 15.74 76.3583 16.4894C76.7939 17.3325 78.1976 18.6908 80.3273 20.2365C83.183 22.2974 83.3282 22.7189 81.8761 23.7025C81.5857 23.9367 81.1985 24.1241 81.0049 24.1241C80.5209 24.1241 79.2624 23.5152 77.9072 22.6721C77.3264 22.2505 76.6971 21.8758 76.5035 21.829C75.4387 21.2669 74.035 22.3442 74.277 23.5152C74.3738 24.0772 74.9063 24.6393 76.5035 25.7634C77.8104 26.747 79.3592 27.5433 80.2305 27.6838C81.0049 27.8243 80.9565 27.8243 81.9245 27.6838C82.4085 27.6369 83.1346 27.3559 83.5702 27.1685C84.4898 26.6533 85.8451 25.4355 86.3775 24.5924C87.2003 23.2341 86.9099 21.0796 85.6999 19.4871C85.2643 18.8782 84.635 18.4098 82.8926 17.192C81.6341 16.3489 80.5209 15.5058 80.4241 15.4121C80.2305 15.1779 80.2305 15.1311 80.5693 14.8032C80.7629 14.6159 81.1017 14.4285 81.2953 14.3817C81.6341 14.3348 81.6341 14.3348 81.6341 14.6627C81.6341 16.3489 84.2478 16.6768 84.877 15.0843C85.1674 14.4754 85.1674 13.2107 84.9254 12.6487C84.6834 12.0398 83.909 11.4309 83.0862 11.1967C82.6022 11.0562 81.8277 10.9625 81.1017 11.0093Z" fill="white"/>
<path d="M98.4961 11.0093C97.8185 11.0093 97.1408 11.103 96.802 11.2435C95.9792 11.6651 94.2851 13.1639 93.8979 13.8665C93.3655 14.6627 93.3171 15.74 93.7527 16.4894C94.1883 17.3325 95.592 18.6908 97.7217 20.2365C100.577 22.2974 100.723 22.7189 99.2705 23.7025C98.9801 23.9367 98.5929 24.1241 98.3993 24.1241C97.9153 24.1241 96.6568 23.5152 95.3016 22.6721C94.7207 22.2505 94.0915 21.8758 93.8979 21.829C92.8331 21.2669 91.4294 22.3442 91.6714 23.5152C91.7682 24.0772 92.3007 24.6393 93.8979 25.7634C95.2048 26.747 96.7536 27.5433 97.6248 27.6838C98.3993 27.8243 98.3509 27.8243 99.3189 27.6838C99.8029 27.6369 100.529 27.3559 100.965 27.1685C101.884 26.6533 103.239 25.4355 103.772 24.5924C104.595 23.2341 104.304 21.0796 103.094 19.4871C102.659 18.8782 102.029 18.4098 100.287 17.192C99.0285 16.3489 97.9153 15.5058 97.8185 15.4121C97.6249 15.1779 97.6249 15.1311 97.9637 14.8032C98.1573 14.6159 98.4961 14.4285 98.6897 14.3817C99.0285 14.3348 99.0285 14.3348 99.0285 14.6627C99.0285 16.3489 101.642 16.6768 102.271 15.0843C102.562 14.4754 102.562 13.2107 102.32 12.6487C102.078 12.0398 101.303 11.4309 100.481 11.1967C99.9965 11.0562 99.2221 10.9625 98.4961 11.0093Z" fill="white"/>
<path d="M114.632 16.7236C114.729 16.6768 114.777 16.7236 114.826 16.8173C114.922 17.0983 115.552 17.3325 116.52 17.5199C118.214 17.754 118.746 18.4098 118.262 19.6276C117.972 20.1896 116.81 21.2669 115.987 21.6885C115.261 22.0632 113.954 22.2037 113.422 22.0163C112.938 21.7821 112.793 20.9859 112.986 19.2997C113.18 17.2388 113.277 17.0983 114.051 16.8173C114.342 16.7704 114.535 16.7236 114.632 16.7236ZM113.035 13.1639C112.502 13.1639 112.018 13.4449 111.486 13.9601C110.276 15.1779 109.55 16.8173 109.211 19.206C108.824 21.7821 109.114 23.3278 110.324 24.5924C111.05 25.3887 112.115 25.9039 113.277 26.0913C114.1 26.2318 115.116 26.1381 116.229 25.9039C118.698 25.295 121.311 22.9999 122.037 20.7517C123.151 17.192 120.585 14.1475 116.616 14.288C115.987 14.3348 115.358 14.3817 115.213 14.4754C115.068 14.5222 114.971 14.5222 114.971 14.3817C114.971 14.0538 114.196 13.3981 113.616 13.2576C113.422 13.2107 113.228 13.1639 113.035 13.1639Z" fill="white"/>
<path d="M129.01 23.9835C128.622 23.9835 128.235 24.0304 127.896 24.2177C127.461 24.4988 127.122 25.1545 127.122 25.7634C127.122 26.2786 127.606 26.9344 128.138 27.2154C129.639 27.9648 131.236 26.2786 130.462 24.8735C130.22 24.3582 129.59 24.0304 129.01 23.9835Z" fill="#F2994A"/>
</svg>
