<svg width="24" height="25" viewBox="0 0 24 25" fill="none" xmlns="http://www.w3.org/2000/svg">
<rect y="0.5" width="24" height="24" rx="12" fill="#120901"/>
<path d="M19.0475 12.1137C18.8454 12.1137 18.6433 12.139 18.4665 12.24C18.2391 12.3916 18.0623 12.7453 18.0623 13.0737C18.0623 13.3516 18.3149 13.7052 18.5928 13.8568C19.3759 14.261 20.2095 13.3516 19.8054 12.5937C19.679 12.3158 19.3506 12.139 19.0475 12.1137Z" fill="#FF8500"/>
<path d="M12.7197 6.70772C12.9976 6.75825 13.4018 7.71821 13.4776 8.52661C13.5029 8.70344 13.4776 9.08237 13.4776 9.36026C13.4523 9.78972 13.4018 9.91603 13.2502 10.1181C12.9218 10.5981 12.3155 10.9013 11.5324 10.9518C11.305 10.977 10.9261 11.0023 10.724 11.0023C10.3956 10.977 10.3703 10.977 10.4209 10.8507C10.4461 10.8002 10.5219 10.6234 10.5724 10.4718C10.9009 9.46131 11.6335 7.84452 12.0124 7.33928C12.265 6.96035 12.5682 6.68246 12.7197 6.70772ZM12.4671 4.50991C12.3408 4.50991 12.1892 4.53517 11.9619 4.61096C11.6335 4.71201 11.3303 4.88884 11.0524 5.1162C10.6482 5.41935 10.5977 5.44461 10.5724 5.3183C10.5472 5.1162 10.2188 4.83832 9.91562 4.81306C9.61248 4.76253 9.23354 4.91411 9.08197 5.14147C9.00618 5.24251 8.80408 5.57092 8.60199 5.89933C8.24831 6.50563 8.122 6.93508 8.24831 7.18771C8.3241 7.33928 8.29884 7.51612 8.07148 8.60239C7.66728 10.5728 7.01046 14.6401 7.01046 15.4232C6.9852 17.1916 7.01046 18.8589 7.03573 19.1873C7.11151 19.6925 7.28835 20.0462 7.61676 20.2735C7.94517 20.5009 8.122 20.5514 8.47567 20.4504C8.82935 20.3746 9.00618 20.2483 9.20828 19.9704C9.43564 19.642 9.48616 19.2883 9.48616 17.7473C9.4609 15.8779 9.71352 12.9222 9.8651 12.7454C9.91562 12.7201 10.244 12.6949 10.623 12.7454C12.0377 12.8717 13.1997 12.6191 14.0839 11.9623C15.0439 11.2549 15.4481 10.4465 15.5238 9.08237C15.5996 7.28876 15.0186 5.69724 13.9828 4.88884C13.6544 4.66148 13.5534 4.63622 13.0481 4.56043C12.7955 4.50991 12.6187 4.48465 12.4671 4.50991Z" fill="white"/>
</svg>
