<svg width="17" height="16" viewBox="0 0 17 16" fill="none" xmlns="http://www.w3.org/2000/svg">
<path d="M14.5971 0.971344C14.3332 0.883201 14.0876 0.946943 13.9655 0.982417C13.8324 1.02108 13.6737 1.08301 13.5146 1.14514L2.20989 5.55674C2.032 5.62613 1.8597 5.69335 1.72671 5.7591C1.61181 5.81592 1.36758 5.94237 1.23126 6.20478C1.08092 6.49415 1.08113 6.83865 1.2318 7.12785C1.36844 7.3901 1.61281 7.51627 1.72778 7.57295C1.86084 7.63854 2.03319 7.70554 2.21115 7.77472L5.35783 8.99843C5.59258 9.08972 5.70995 9.13537 5.82672 9.13817C5.92993 9.14065 6.03231 9.11912 6.12578 9.07528C6.23153 9.02569 6.32058 8.93664 6.49869 8.75854L9.72895 5.52827C9.9893 5.26792 10.4114 5.26792 10.6718 5.52827C10.9321 5.78862 10.9321 6.21073 10.6718 6.47108L7.44149 9.70135C7.26339 9.87945 7.17434 9.9685 7.12475 10.0743C7.08091 10.1677 7.05939 10.2701 7.06186 10.3733C7.06467 10.4901 7.11031 10.6075 7.2016 10.8422L8.42529 13.9888C8.49448 14.1668 8.56148 14.3392 8.62709 14.4723C8.68377 14.5872 8.80993 14.8316 9.07218 14.9682C9.36138 15.1189 9.70588 15.1191 9.99525 14.9688C10.2577 14.8324 10.3841 14.5882 10.4409 14.4733C10.5067 14.3403 10.5739 14.1681 10.6433 13.9902L15.0549 2.68542C15.117 2.52628 15.179 2.36766 15.2176 2.23457C15.2531 2.11245 15.3168 1.86681 15.2287 1.60296C15.1291 1.30487 14.8952 1.07093 14.5971 0.971344Z" />
</svg>
