<svg width="24" height="24" viewBox="0 0 24 24" fill="none" xmlns="http://www.w3.org/2000/svg">
<g clipPath="url(#clip0_1259_16987)">
<path d="M12 24C18.6274 24 24 18.6274 24 12C24 5.37258 18.6274 0 12 0C5.37258 0 0 5.37258 0 12C0 18.6274 5.37258 24 12 24Z" fill="#FF8C00"/>
<path d="M12.0034 3.37891C8.43772 3.37891 5.52344 6.27605 5.52344 9.8589C5.52344 10.5789 5.64344 11.2818 5.86629 11.9675C6.02058 12.4303 6.53487 12.6875 7.01487 12.5332C7.47772 12.3789 7.73487 11.8646 7.58058 11.3846C7.39201 10.8532 7.3063 10.2875 7.32344 9.72176C7.39201 7.30462 9.3463 5.31605 11.7634 5.19605C14.4549 5.05891 16.6834 7.20176 16.6834 9.8589C16.6834 12.3446 14.7292 14.3846 12.2777 14.5218C12.2777 14.5218 11.3692 14.5732 10.9234 14.6418C10.7006 14.676 10.5292 14.7103 10.4092 14.7275C10.3577 14.7446 10.3063 14.6932 10.3234 14.6418L10.4777 13.8875L11.3177 10.0132C11.4206 9.53319 11.112 9.05319 10.632 8.95033C10.152 8.84748 9.67201 9.15605 9.56915 9.63605C9.56915 9.63605 7.5463 19.0646 7.52915 19.1675C7.4263 19.6475 7.73487 20.1275 8.21487 20.2303C8.69487 20.3332 9.17487 20.0246 9.27772 19.5446C9.29487 19.4418 9.56915 18.1903 9.56915 18.1903C9.77487 17.2303 10.5634 16.5275 11.4892 16.4075C11.6949 16.3732 12.5006 16.3218 12.5006 16.3218C15.8434 16.0646 18.4834 13.2703 18.4834 9.8589C18.4834 6.27605 15.5692 3.37891 12.0034 3.37891ZM12.4663 18.2932C11.8834 18.1732 11.3006 18.5332 11.1806 19.1332C11.0606 19.716 11.4206 20.2989 12.0206 20.4189C12.6034 20.5389 13.1863 20.1789 13.3063 19.5789C13.4263 18.9789 13.0663 18.4132 12.4663 18.2932Z" fill="white"/>
</g>
<defs>
<clipPath id="clip0_1259_16987">
<rect width="24" height="24" fill="white"/>
</clipPath>
</defs>
</svg>
