<svg width="24" height="24" viewBox="0 0 24 24" fill="none" xmlns="http://www.w3.org/2000/svg">
<g clipPath="url(#clip0_669_26010)">
<path d="M12 24C18.6274 24 24 18.6274 24 12C24 5.37258 18.6274 0 12 0C5.37258 0 0 5.37258 0 12C0 18.6274 5.37258 24 12 24Z" fill="#EEEEEE"/>
<path d="M12 4.875C13.0355 4.875 13.875 4.03553 13.875 3C13.875 1.96447 13.0355 1.125 12 1.125C10.9645 1.125 10.125 1.96447 10.125 3C10.125 4.03553 10.9645 4.875 12 4.875Z" fill="#ABE252"/>
<path d="M12 9.375C13.0355 9.375 13.875 8.53553 13.875 7.5C13.875 6.46447 13.0355 5.625 12 5.625C10.9645 5.625 10.125 6.46447 10.125 7.5C10.125 8.53553 10.9645 9.375 12 9.375Z" fill="#4F9FDF"/>
<path d="M8.10303 7.125C9.13856 7.125 9.97803 6.28553 9.97803 5.25C9.97803 4.21447 9.13856 3.375 8.10303 3.375C7.06749 3.375 6.22803 4.21447 6.22803 5.25C6.22803 6.28553 7.06749 7.125 8.10303 7.125Z" fill="#D5643A"/>
<path d="M4.20557 9.375C5.2411 9.375 6.08057 8.53553 6.08057 7.5C6.08057 6.46447 5.2411 5.625 4.20557 5.625C3.17003 5.625 2.33057 6.46447 2.33057 7.5C2.33057 8.53553 3.17003 9.375 4.20557 9.375Z" fill="#ABE252"/>
<path d="M8.10303 11.625C9.13856 11.625 9.97803 10.7855 9.97803 9.75C9.97803 8.71447 9.13856 7.875 8.10303 7.875C7.06749 7.875 6.22803 8.71447 6.22803 9.75C6.22803 10.7855 7.06749 11.625 8.10303 11.625Z" fill="#4F9FDF"/>
<path d="M4.20557 13.875C5.2411 13.875 6.08057 13.0355 6.08057 12C6.08057 10.9645 5.2411 10.125 4.20557 10.125C3.17003 10.125 2.33057 10.9645 2.33057 12C2.33057 13.0355 3.17003 13.875 4.20557 13.875Z" fill="#E8B493"/>
<path d="M4.20557 18.375C5.2411 18.375 6.08057 17.5355 6.08057 16.5C6.08057 15.4645 5.2411 14.625 4.20557 14.625C3.17003 14.625 2.33057 15.4645 2.33057 16.5C2.33057 17.5355 3.17003 18.375 4.20557 18.375Z" fill="#D342C3"/>
<path d="M8.10303 16.125C9.13856 16.125 9.97803 15.2855 9.97803 14.25C9.97803 13.2145 9.13856 12.375 8.10303 12.375C7.06749 12.375 6.22803 13.2145 6.22803 14.25C6.22803 15.2855 7.06749 16.125 8.10303 16.125Z" fill="#D342C3"/>
<path d="M8.10303 20.625C9.13856 20.625 9.97803 19.7855 9.97803 18.75C9.97803 17.7145 9.13856 16.875 8.10303 16.875C7.06749 16.875 6.22803 17.7145 6.22803 18.75C6.22803 19.7855 7.06749 20.625 8.10303 20.625Z" fill="#E8B493"/>
<path d="M12 22.875C13.0355 22.875 13.875 22.0355 13.875 21C13.875 19.9645 13.0355 19.125 12 19.125C10.9645 19.125 10.125 19.9645 10.125 21C10.125 22.0355 10.9645 22.875 12 22.875Z" fill="#ABE252"/>
<path d="M12 18.375C13.0355 18.375 13.875 17.5355 13.875 16.5C13.875 15.4645 13.0355 14.625 12 14.625C10.9645 14.625 10.125 15.4645 10.125 16.5C10.125 17.5355 10.9645 18.375 12 18.375Z" fill="#4F9FDF"/>
<path d="M15.897 20.625C16.9325 20.625 17.772 19.7855 17.772 18.75C17.772 17.7145 16.9325 16.875 15.897 16.875C14.8614 16.875 14.022 17.7145 14.022 18.75C14.022 19.7855 14.8614 20.625 15.897 20.625Z" fill="#D5643A"/>
<path d="M19.7944 18.375C20.83 18.375 21.6694 17.5355 21.6694 16.5C21.6694 15.4645 20.83 14.625 19.7944 14.625C18.7589 14.625 17.9194 15.4645 17.9194 16.5C17.9194 17.5355 18.7589 18.375 19.7944 18.375Z" fill="#ABE252"/>
<path d="M15.897 16.125C16.9325 16.125 17.772 15.2855 17.772 14.25C17.772 13.2145 16.9325 12.375 15.897 12.375C14.8614 12.375 14.022 13.2145 14.022 14.25C14.022 15.2855 14.8614 16.125 15.897 16.125Z" fill="#4F9FDF"/>
<path d="M19.7944 13.875C20.83 13.875 21.6694 13.0355 21.6694 12C21.6694 10.9645 20.83 10.125 19.7944 10.125C18.7589 10.125 17.9194 10.9645 17.9194 12C17.9194 13.0355 18.7589 13.875 19.7944 13.875Z" fill="#E8B493"/>
<path d="M19.7944 9.375C20.83 9.375 21.6694 8.53553 21.6694 7.5C21.6694 6.46447 20.83 5.625 19.7944 5.625C18.7589 5.625 17.9194 6.46447 17.9194 7.5C17.9194 8.53553 18.7589 9.375 19.7944 9.375Z" fill="#D342C3"/>
<path d="M15.897 11.625C16.9325 11.625 17.772 10.7855 17.772 9.75C17.772 8.71447 16.9325 7.875 15.897 7.875C14.8614 7.875 14.022 8.71447 14.022 9.75C14.022 10.7855 14.8614 11.625 15.897 11.625Z" fill="#D342C3"/>
<path d="M15.897 7.125C16.9325 7.125 17.772 6.28553 17.772 5.25C17.772 4.21447 16.9325 3.375 15.897 3.375C14.8614 3.375 14.022 4.21447 14.022 5.25C14.022 6.28553 14.8614 7.125 15.897 7.125Z" fill="#E8B493"/>
<path d="M12 13.875C13.0355 13.875 13.875 13.0355 13.875 12C13.875 10.9645 13.0355 10.125 12 10.125C10.9645 10.125 10.125 10.9645 10.125 12C10.125 13.0355 10.9645 13.875 12 13.875Z" fill="#3F1A0D"/>
</g>
<defs>
<clipPath id="clip0_669_26010">
<rect width="24" height="24" fill="white"/>
</clipPath>
</defs>
</svg>
