<svg width="400" height="400" viewBox="0 0 400 400" fill="none" xmlns="http://www.w3.org/2000/svg">
<g clip-path="url(#clip0_13634_9588)">
<path d="M200.006 122.602C225.386 122.602 245.96 110.081 245.96 94.6343C245.96 79.1881 225.386 66.6665 200.006 66.6665C174.627 66.6665 154.053 79.1881 154.053 94.6343C154.053 110.081 174.627 122.602 200.006 122.602Z" fill="#E6007A"/>
<path d="M200.006 333.335C225.386 333.335 245.96 320.813 245.96 305.367C245.96 289.921 225.386 277.399 200.006 277.399C174.627 277.399 154.053 289.921 154.053 305.367C154.053 320.813 174.627 333.335 200.006 333.335Z" fill="#E6007A"/>
<path d="M135.965 161.316C148.655 138.316 148.572 113.406 135.781 105.678C122.99 97.9498 102.333 110.329 89.6433 133.329C76.9536 156.328 77.0359 181.238 89.8273 188.967C102.619 196.695 123.275 184.315 135.965 161.316Z" fill="#E6007A"/>
<path d="M310.331 266.669C323.021 243.67 322.946 218.764 310.163 211.041C297.38 203.318 276.731 215.702 264.041 238.702C251.352 261.701 251.427 286.607 264.21 294.33C276.992 302.053 297.642 289.669 310.331 266.669Z" fill="#E6007A"/>
<path d="M135.797 294.325C148.588 286.596 148.671 261.687 135.981 238.687C123.291 215.688 102.635 203.308 89.8434 211.036C77.052 218.765 76.9697 243.675 89.6594 266.674C102.349 289.673 123.006 302.053 135.797 294.325Z" fill="#E6007A"/>
<path d="M310.179 188.974C322.962 181.251 323.037 156.346 310.348 133.346C297.658 110.347 277.008 97.9629 264.226 105.686C251.443 113.409 251.368 138.315 264.057 161.314C276.747 184.314 297.397 196.698 310.179 188.974Z" fill="#E6007A"/>
</g>
<rect x="0.5" y="0.5" width="399" height="399" stroke="white" stroke-opacity="0.1"/>
<defs>
<clipPath id="clip0_13634_9588">
<rect width="400" height="400" fill="white"/>
</clipPath>
</defs>
</svg>
