<svg width="342" height="342" viewBox="0 0 342 342" fill="none" xmlns="http://www.w3.org/2000/svg">
<g clip-path="url(#clip0_1251_12599)">
<g clip-path="url(#clip1_1251_12599)">
<path d="M0 0H157.88C148.213 2.18667 136.213 1.85333 127.267 6.38667C83.7333 17.6667 45.4933 47.12 23.36 86.24C13.8 102 8.16 119.507 4.06667 137.373C0.84 152.84 0.426667 168.333 1.02667 184.067L0 183.013V0Z" fill="black" stroke="#0D0D0D" stroke-width="17.7778"/>
<path d="M157.879 0H183.759C194.906 2.29333 208.786 2.6 219.292 7.77333C206.986 5.84 195.359 1.86667 182.666 1.66667C170.399 1.6 157.426 0.866667 145.372 3.14667C139.279 4.04 133.412 5.81333 127.266 6.38667C136.212 1.85333 148.212 2.18667 157.879 0Z" fill="black" stroke="#0D0D0D" stroke-width="17.7778"/>
<path d="M183.762 0H341.335V155.627C340.695 154.947 340.068 154.253 339.428 153.573C339.295 145.88 337.722 138.187 335.842 130.747C327.348 95.1333 307.135 63 278.922 39.7067C261.442 25.0533 241.108 14.3867 219.295 7.77333C208.788 2.6 194.908 2.29333 183.762 0Z" fill="black" stroke="#0D0D0D" stroke-width="17.7778"/>
<path d="M171.48 88.3735C176.627 96.9869 181.52 105.734 186.92 114.187C192.027 122.08 196.24 130.454 201.56 138.214C204.613 143.574 207.56 148.854 211.64 153.534C212.4 156.867 213.44 159.72 215.573 162.414C216.573 163.734 217.587 165.04 218.587 166.347C219.173 166.227 219.773 166.12 220.36 166C222.587 167.747 224.8 169.507 227.013 171.267L226.187 172.907C225.467 174.08 224.733 175.254 224 176.427C225.013 177.667 226.053 178.894 227.093 180.107C227.72 183.014 228.28 185.92 228.773 188.84C230.32 189.934 231.867 191.027 233.453 192.054C230.707 191.294 227.68 190.76 225.12 189.467C222.36 188.48 223.467 184.68 223.107 182.374C219.067 183.24 216.213 185.307 213.08 187.854C207.693 191.534 201.853 194.387 196.28 197.747C188.147 202.814 179.84 207.627 171.493 212.32L170.333 212.547C170.213 173.027 170.347 132.907 170.227 93.4402C169.933 92.0935 169.627 90.7335 169.307 89.3869L169.16 88.6402C169.933 88.5602 170.707 88.4669 171.48 88.3735Z" fill="black" stroke="#0D0D0D" stroke-width="17.7778"/>
<path d="M169.308 89.3867C169.628 90.7334 169.935 92.0934 170.228 93.4401C170.348 132.907 170.215 173.027 170.335 212.547C163.468 208.773 156.722 204.747 149.975 200.76C140.562 194.68 130.415 190.053 121.242 183.547C119.268 182.16 117.362 180.747 115.268 179.547C115.882 178.4 116.508 177.267 117.148 176.133C118.802 173.347 120.508 170.587 122.215 167.827C123.402 165.947 124.588 164.067 125.775 162.187C127.255 159.773 128.642 157.32 130.028 154.853C125.895 150.2 121.508 145.907 117.655 141.027C114.642 137.2 112.255 131.867 107.028 130.84C107.735 137.16 110.362 142.68 112.322 148.64C112.002 150.467 111.708 152.307 111.428 154.16C109.788 154.307 108.135 154.467 106.482 154.613C105.135 151.067 103.588 147.613 102.055 144.147C101.495 141.84 100.882 139.533 100.148 137.28C101.788 136.587 103.428 135.893 105.068 135.2C104.268 130.68 103.202 126.227 102.188 121.747C107.575 125.333 111.335 130.28 116.162 134.52C121.935 139.653 126.268 145.867 132.602 150.413C134.388 147.6 136.415 144.76 137.682 141.68C138.708 139.827 137.135 137.867 136.455 136.12C137.242 136.6 138.042 137.053 138.828 137.52C139.655 137.16 140.482 136.8 141.308 136.44C150.202 120.493 160.228 105.24 169.308 89.3867Z" fill="black" stroke="#0D0D0D" stroke-width="17.7778"/>
<path d="M53.8008 99.4001C63.9741 99.3201 74.2008 99.1201 84.3741 99.5734L84.8408 99.9201C83.5341 99.9867 82.2141 100.053 80.8941 100.12C83.8941 107.947 88.5475 115.813 89.5341 123.987C90.2408 130.427 91.8941 136.12 89.4941 142.44C86.8141 141.173 84.1341 139.92 81.4275 138.707C82.7741 144.04 85.7208 148.333 88.1475 153.147C89.2408 155.173 88.2541 157.107 87.9208 159.267C85.1875 158.84 82.4408 158.48 79.7341 157.96L78.3741 157.573C76.6674 157.107 74.9475 156.653 73.2408 156.2C74.3875 159.627 76.0941 162.52 78.2008 165.413L76.0275 165.627C70.6408 161.067 64.9341 156.893 59.6941 152.173C58.0675 134.56 55.3874 117 53.8008 99.4001Z" fill="black" stroke="#0D0D0D" stroke-width="17.7778"/>
<path d="M287.398 99.3601C285.625 114.653 283.812 130.067 282.105 145.347C281.665 148.293 281.985 151.947 279.412 154C274.798 157.973 269.799 161.507 265.212 165.52L262.985 165.493C264.972 162.467 266.785 159.373 268.279 156.08C265.105 157.013 262.039 158.12 259.025 159.493C257.079 158.827 255.039 158.24 253.172 157.36C252.492 155.707 252.479 154.72 253.172 153.08C255.012 148.747 257.265 144.627 258.905 140.2C256.252 141.373 253.598 142.573 250.958 143.773C249.892 138.467 249.225 133.08 248.785 127.693C251.945 118.333 254.905 109.213 259.438 100.413C258.332 100.173 257.225 99.9334 256.105 99.7201C266.492 98.9601 276.985 99.4401 287.398 99.3601Z" fill="black" stroke="#0D0D0D" stroke-width="17.7778"/>
<path d="M80.8944 100.12C82.2144 100.053 83.5344 99.9866 84.841 99.9199L85.4677 100.4C88.6277 113.667 95.4544 124.773 100.148 137.28C100.881 139.533 101.494 141.84 102.054 144.147C101.521 148.04 101.881 151.88 101.921 155.787C100.334 158.747 97.521 161.173 95.5744 163.96C93.4944 163.347 91.4277 162.72 89.361 162.107C86.041 160.933 82.9344 159.387 79.7344 157.96C82.441 158.48 85.1877 158.84 87.921 159.267C88.2544 157.107 89.241 155.173 88.1477 153.147C85.721 148.333 82.7744 144.04 81.4277 138.707C84.1344 139.92 86.8144 141.173 89.4944 142.44C91.8944 136.12 90.241 130.427 89.5344 123.987C88.5477 115.813 83.8944 107.947 80.8944 100.12Z" fill="black" stroke="#0D0D0D" stroke-width="17.7778"/>
<path d="M256.108 99.7202C257.228 99.9335 258.335 100.174 259.442 100.414C254.908 109.214 251.948 118.334 248.788 127.694C245.748 134.347 241.255 141.974 240.708 149.36C240.468 151.174 242.028 152.907 242.882 154.427C244.882 157.427 246.722 160.547 248.895 163.414L249.242 163.84C244.335 166.014 239.642 168.32 234.282 169.147C234.055 166.587 233.802 164.027 233.535 161.467C230.455 163.987 228.828 166.947 227.348 170.547L227.015 171.267C224.802 169.507 222.588 167.747 220.362 166C221.308 163.174 222.282 160.347 223.348 157.56C225.882 151.627 228.695 146.107 229.255 139.547C225.828 140.44 223.082 141.747 220.148 143.734C224.242 135.574 232.402 129.547 238.548 122.694C237.295 126.894 236.002 131.067 234.322 135.134C231.615 142.427 227.602 148.467 228.682 156.494C229.802 156.68 230.922 156.867 232.028 157.054C235.442 151.987 238.028 146.867 239.935 141.054C244.188 129 251.148 117.48 254.628 104.96C254.802 103.814 254.588 102.64 253.975 101.427C254.682 100.854 255.388 100.28 256.108 99.7202Z" fill="black" stroke="#0D0D0D" stroke-width="17.7778"/>
<path d="M85.4648 100.4C102.345 112.427 119.398 124.32 136.452 136.12C137.132 137.867 138.705 139.827 137.678 141.68C136.412 144.76 134.385 147.6 132.598 150.413C126.265 145.867 121.932 139.653 116.158 134.52C111.332 130.28 107.572 125.333 102.185 121.747C103.198 126.227 104.265 130.68 105.065 135.2C103.425 135.893 101.785 136.587 100.145 137.28C95.4515 124.773 88.6248 113.667 85.4648 100.4Z" fill="black" stroke="#0D0D0D" stroke-width="17.7778"/>
<path d="M253.972 101.427C254.585 102.64 254.799 103.813 254.625 104.96C251.145 117.48 244.185 129 239.932 141.053C236.945 140.013 235.865 137.667 234.319 135.133C235.999 131.067 237.292 126.893 238.545 122.693C232.399 129.547 224.239 135.573 220.145 143.733C217.265 146.96 214.399 150.2 211.639 153.533C207.559 148.853 204.612 143.573 201.559 138.213C219.092 126.067 236.705 113.933 253.972 101.427Z" fill="black" stroke="#0D0D0D" stroke-width="17.7778"/>
<path d="M248.788 127.693C249.228 133.08 249.895 138.467 250.962 143.773C253.602 142.573 256.255 141.373 258.908 140.2C257.268 144.627 255.015 148.747 253.175 153.08C252.482 154.72 252.495 155.707 253.175 157.36C255.042 158.24 257.082 158.827 259.028 159.493C255.708 160.96 252.322 162.24 248.895 163.413C246.722 160.547 244.882 157.427 242.882 154.427C242.028 152.907 240.468 151.173 240.708 149.36C241.255 141.973 245.748 134.347 248.788 127.693Z" fill="black" stroke="#0D0D0D" stroke-width="17.7778"/>
<path d="M107.027 130.84C112.254 131.867 114.641 137.2 117.654 141.027C115.921 140.267 114.147 139.573 112.374 138.933C112.614 141.693 112.961 144.44 113.254 147.187L112.321 148.64C110.361 142.68 107.734 137.16 107.027 130.84Z" fill="black" stroke="#0D0D0D" stroke-width="17.7778"/>
<path d="M234.32 135.133C235.867 137.667 236.947 140.013 239.934 141.053C238.027 146.867 235.44 151.987 232.027 157.053C230.92 156.867 229.8 156.68 228.68 156.493C227.6 148.467 231.614 142.427 234.32 135.133Z" fill="black" stroke="#0D0D0D" stroke-width="17.7778"/>
<path d="M112.375 138.933C114.148 139.573 115.922 140.266 117.655 141.026C121.508 145.906 125.895 150.2 130.028 154.853C128.642 157.32 127.255 159.773 125.775 162.186C123.442 160.013 121.068 158.266 118.268 156.706L118.535 160.213C116.895 155.826 115.108 151.493 113.255 147.186C112.962 144.44 112.615 141.693 112.375 138.933Z" fill="black" stroke="#0D0D0D" stroke-width="17.7778"/>
<path d="M229.254 139.547C228.694 146.107 225.881 151.627 223.347 157.56C220.294 158.494 217.947 160.347 215.574 162.414C213.441 159.72 212.401 156.867 211.641 153.534C214.401 150.2 217.267 146.96 220.147 143.734C223.081 141.747 225.827 140.44 229.254 139.547Z" fill="black" stroke="#0D0D0D" stroke-width="17.7778"/>
<path d="M102.055 144.146C103.588 147.613 105.135 151.066 106.482 154.613L106.415 155.533C105.908 158.946 105.562 162.533 104.468 165.813C102.775 166.546 100.802 166.773 98.9883 167.133C97.6549 166.333 96.3216 165.506 94.9883 164.68L95.575 163.96C97.5216 161.173 100.335 158.746 101.922 155.786C101.882 151.88 101.522 148.04 102.055 144.146Z" fill="black" stroke="#0D0D0D" stroke-width="17.7778"/>
<path d="M112.321 148.64L113.254 147.187C115.107 151.493 116.894 155.827 118.534 160.213L119.161 161.947C116.961 163.693 114.707 165.4 112.481 167.133C110.654 163.147 108.427 159.413 106.414 155.533L106.481 154.613C108.134 154.467 109.787 154.307 111.427 154.16C111.707 152.307 112.001 150.467 112.321 148.64Z" fill="black" stroke="#0D0D0D" stroke-width="17.7778"/>
<path d="M106.415 155.533C108.428 159.413 110.655 163.147 112.482 167.133L111.668 168.267C111.148 167.44 110.642 166.6 110.122 165.76C110.042 167.547 109.988 169.32 109.922 171.093C107.348 170.413 104.775 169.72 102.268 168.8C101.162 168.28 100.068 167.72 98.9883 167.133C100.802 166.773 102.775 166.547 104.468 165.813C105.562 162.533 105.908 158.947 106.415 155.533Z" fill="black" stroke="#0D0D0D" stroke-width="17.7778"/>
<path d="M268.281 156.08C266.788 159.373 264.975 162.467 262.988 165.493L265.215 165.52C261.801 168.587 258.241 171.44 254.641 174.28C252.948 173.96 251.241 173.693 249.535 173.467C251.148 172.32 252.708 171.107 254.281 169.92C252.655 167.84 250.961 165.84 249.241 163.84L248.895 163.413C252.321 162.24 255.708 160.96 259.028 159.493C262.041 158.12 265.108 157.013 268.281 156.08Z" fill="black" stroke="#0D0D0D" stroke-width="17.7778"/>
<path d="M73.2383 156.2C74.9449 156.654 76.6649 157.107 78.3716 157.574L79.7316 157.96C82.9316 159.387 86.0383 160.934 89.3583 162.107C86.0516 164.2 82.8649 166.627 79.6783 168.92C78.4516 167.827 77.2516 166.72 76.0249 165.627L78.1983 165.414C76.0916 162.52 74.3849 159.627 73.2383 156.2Z" fill="black" stroke="#0D0D0D" stroke-width="17.7778"/>
<path d="M118.266 156.707C121.066 158.267 123.439 160.013 125.772 162.187C124.586 164.067 123.399 165.947 122.212 167.827C121.159 165.88 120.132 163.933 119.159 161.947L118.532 160.213L118.266 156.707Z" fill="black" stroke="#0D0D0D" stroke-width="17.7778"/>
<path d="M223.348 157.56C222.281 160.347 221.308 163.173 220.361 166C219.774 166.12 219.174 166.227 218.588 166.347C217.588 165.04 216.574 163.733 215.574 162.413C217.948 160.347 220.294 158.493 223.348 157.56Z" fill="black" stroke="#0D0D0D" stroke-width="17.7778"/>
<path d="M119.161 161.947C120.135 163.933 121.161 165.88 122.215 167.827C120.508 170.587 118.801 173.347 117.148 176.133C116.481 175.28 115.828 174.4 115.175 173.52C113.948 171.813 112.775 170.067 111.668 168.267L112.481 167.133C114.708 165.4 116.961 163.693 119.161 161.947Z" fill="black" stroke="#0D0D0D" stroke-width="17.7778"/>
<path d="M89.3597 162.106C91.4264 162.72 93.493 163.346 95.573 163.96L94.9864 164.68C92.8264 167.186 91.133 169.68 89.653 172.653C88.6797 172.293 87.7064 171.96 86.733 171.64C86.133 172.133 85.533 172.64 84.9464 173.146C83.1464 171.773 81.3864 170.413 79.6797 168.92C82.8664 166.626 86.053 164.2 89.3597 162.106Z" fill="black" stroke="#0D0D0D" stroke-width="17.7778"/>
<path d="M233.534 161.467C233.801 164.027 234.054 166.587 234.281 169.147C239.641 168.32 244.334 166.013 249.241 163.84C250.961 165.84 252.654 167.84 254.281 169.92C252.708 171.107 251.148 172.32 249.534 173.467C247.001 174.507 244.454 175.52 241.828 176.36C242.654 173.933 243.414 172.12 242.494 169.587C237.174 170.253 232.734 172.227 227.348 170.547C228.828 166.947 230.454 163.987 233.534 161.467Z" fill="black" stroke="#0D0D0D" stroke-width="17.7778"/>
<path d="M94.9857 164.68C96.319 165.507 97.6523 166.334 98.9857 167.134C100.066 167.72 101.159 168.28 102.266 168.8C101.319 169.694 100.399 170.64 99.519 171.614C99.5323 173.267 100.372 174.96 100.866 176.533C97.0523 175.427 93.3457 174.08 89.6523 172.654C91.1323 169.68 92.8257 167.187 94.9857 164.68Z" fill="black" stroke="#0D0D0D" stroke-width="17.7778"/>
<path d="M110.12 165.76C110.64 166.6 111.146 167.44 111.666 168.266C112.773 170.066 113.946 171.813 115.173 173.52C112.8 173.72 110.426 173.92 108.053 174.12C109.426 175.8 110.813 177.48 112.28 179.08L109.506 178.64C106.586 178.066 103.72 177.32 100.866 176.533C100.373 174.96 99.5329 173.266 99.5195 171.613C100.4 170.64 101.32 169.693 102.266 168.8C104.773 169.72 107.346 170.413 109.92 171.093C109.986 169.32 110.04 167.546 110.12 165.76Z" fill="black" stroke="#0D0D0D" stroke-width="17.7778"/>
<path d="M242.494 169.587C243.414 172.12 242.654 173.934 241.827 176.36C238.214 177.387 234.574 178.36 230.934 179.307C232.201 177.627 233.467 175.934 234.721 174.24C231.881 173.747 229.054 173.267 226.188 172.907L227.014 171.267L227.347 170.547C232.734 172.227 237.174 170.254 242.494 169.587Z" fill="black" stroke="#0D0D0D" stroke-width="17.7778"/>
<path d="M86.732 171.64C87.7053 171.96 88.6786 172.293 89.652 172.653C93.3453 174.08 97.052 175.427 100.865 176.533C103.719 177.32 106.585 178.067 109.505 178.64C109.799 179.573 110.105 180.507 110.399 181.453C106.799 182.933 103.172 184.253 99.3186 184.92C97.8386 185.2 96.372 185.493 94.9053 185.8C94.0253 190.093 94.532 193.84 91.7853 197.453C90.3853 196.587 88.972 195.72 87.5586 194.867C88.252 190.2 88.6786 185.507 89.092 180.8C90.4653 180.493 91.852 180.187 93.2253 179.88C90.5586 177.533 87.7853 175.307 84.9453 173.147C85.532 172.64 86.132 172.133 86.732 171.64Z" fill="black" stroke="#0D0D0D" stroke-width="17.7778"/>
<path d="M108.055 174.12C110.428 173.92 112.801 173.72 115.175 173.52C115.828 174.4 116.481 175.28 117.148 176.133C116.508 177.267 115.881 178.4 115.268 179.547C114.708 179.453 114.135 179.36 113.575 179.28L112.281 179.08C110.815 177.48 109.428 175.8 108.055 174.12Z" fill="black" stroke="#0D0D0D" stroke-width="17.7778"/>
<path d="M226.187 172.907C229.053 173.267 231.88 173.747 234.72 174.24C233.467 175.933 232.2 177.627 230.933 179.307L228.253 179.933L227.093 180.107C226.053 178.893 225.013 177.667 224 176.427C224.733 175.253 225.467 174.08 226.187 172.907Z" fill="black" stroke="#0D0D0D" stroke-width="17.7778"/>
<path d="M249.534 173.467C251.241 173.693 252.947 173.96 254.641 174.28C252.307 176.12 250.027 178.013 247.801 179.973C249.094 180.16 250.387 180.347 251.681 180.533C252.561 185.32 253.001 190.16 253.254 195.013C250.374 196.653 247.561 198.373 244.801 200.187C240.681 201.987 236.787 204.08 233.041 206.573C234.747 201.907 237.241 198 240.321 194.133C241.947 191.853 243.067 189.347 244.134 186.773C238.494 184.987 233.387 182.893 228.254 179.933L230.934 179.307C234.574 178.36 238.214 177.387 241.827 176.36C244.454 175.52 247.001 174.507 249.534 173.467Z" fill="black" stroke="#0D0D0D" stroke-width="17.7778"/>
<path d="M109.506 178.64L112.279 179.08L113.573 179.28C112.973 182.413 112.573 185.813 111.333 188.773C109.986 190.093 108.253 191.12 106.613 192.067C104.719 192.733 102.826 193.413 100.946 194.093C98.746 190.987 98.8927 188.533 99.3194 184.92C103.173 184.253 106.799 182.933 110.399 181.453C110.106 180.507 109.799 179.573 109.506 178.64Z" fill="black" stroke="#0D0D0D" stroke-width="17.7778"/>
<path d="M115.267 179.546C117.36 180.746 119.267 182.16 121.24 183.546L119.453 183.506C119.24 185.426 119.12 187.346 118.88 189.266C114.787 190.146 110.627 190.933 106.613 192.066C108.253 191.12 109.987 190.093 111.333 188.773C112.573 185.813 112.973 182.413 113.573 179.28C114.133 179.36 114.707 179.453 115.267 179.546Z" fill="black" stroke="#0D0D0D" stroke-width="17.7778"/>
<path d="M227.094 180.106L228.254 179.933C233.387 182.893 238.494 184.986 244.134 186.773C243.067 189.346 241.947 191.853 240.32 194.133C238.04 193.426 235.747 192.733 233.454 192.053C231.867 191.026 230.32 189.933 228.774 188.84C228.28 185.92 227.72 183.013 227.094 180.106Z" fill="black" stroke="#0D0D0D" stroke-width="17.7778"/>
<path d="M223.105 182.374C223.465 184.68 222.358 188.48 225.118 189.467C227.678 190.76 230.705 191.294 233.451 192.054C235.745 192.734 238.038 193.427 240.318 194.134C237.238 198 234.745 201.907 233.038 206.574C231.305 207.814 229.838 209.054 228.878 210.987C228.345 211.414 227.811 211.84 227.265 212.24C225.425 209.294 223.825 206.214 221.971 203.28C220.905 200.88 218.758 202.947 217.238 203.64C219.025 200.414 223.611 196.654 223.118 192.8C223.758 192.254 224.385 191.68 225.011 191.107C222.811 189.454 220.611 187.827 218.278 186.387C216.531 186.814 214.798 187.307 213.078 187.854C216.211 185.307 219.065 183.24 223.105 182.374Z" fill="black" stroke="#0D0D0D" stroke-width="17.7778"/>
<path d="M119.453 183.507L121.24 183.547C130.413 190.054 140.56 194.68 149.973 200.76C156.72 204.747 163.466 208.774 170.333 212.547L171.493 212.32C171.32 215.787 171.146 219.267 170.986 222.734L169.813 222.694C161.16 218.68 153.386 212.84 144.96 208.347C135.386 203.227 126.493 197.013 116.906 191.933C117.586 191.053 118.24 190.173 118.88 189.267C119.12 187.347 119.24 185.427 119.453 183.507Z" fill="black" stroke="#0D0D0D" stroke-width="17.7778"/>
<path d="M94.9052 185.8C96.3718 185.493 97.8385 185.2 99.3185 184.92C98.8918 188.533 98.7452 190.987 100.945 194.093C103.772 197.973 106.585 201.573 107.785 206.347C102.358 203.493 96.8518 200.973 91.7852 197.453C94.5318 193.84 94.0252 190.093 94.9052 185.8Z" fill="black" stroke="#0D0D0D" stroke-width="17.7778"/>
<path d="M218.282 186.387C220.615 187.827 222.815 189.453 225.015 191.107C224.388 191.68 223.762 192.253 223.122 192.8C214.788 197.093 207.108 202.44 198.908 206.973C193.508 209.973 188.228 213.187 182.935 216.373C178.908 218.747 175.562 221.427 170.988 222.733C171.148 219.267 171.322 215.787 171.495 212.32C179.842 207.627 188.148 202.813 196.282 197.747C201.855 194.387 207.695 191.533 213.082 187.853C214.802 187.307 216.535 186.813 218.282 186.387Z" fill="black" stroke="#0D0D0D" stroke-width="17.7778"/>
<path d="M118.879 189.267C118.239 190.173 117.585 191.053 116.905 191.933L116.292 192.653C118.412 195.653 120.559 198.64 122.612 201.68C117.865 202.28 116.452 208.867 113.999 212.333C113.612 212.08 113.225 211.827 112.852 211.56C111.185 209.787 109.572 207.987 107.785 206.347C106.585 201.573 103.772 197.973 100.945 194.093C102.825 193.413 104.719 192.733 106.612 192.067C110.625 190.933 114.785 190.147 118.879 189.267Z" fill="black" stroke="#0D0D0D" stroke-width="17.7778"/>
<path d="M116.293 192.653L116.906 191.933C126.493 197.013 135.386 203.226 144.96 208.346C153.386 212.84 161.16 218.68 169.813 222.693C170.906 237.053 169.933 251.56 170.32 265.973C169.453 265.853 168.586 265.746 167.733 265.64C160.893 254.693 152.773 244.733 145.64 233.986C140.413 226.453 134.866 219.2 129.88 211.506C127.306 208.333 124.826 205.12 122.613 201.68C120.56 198.64 118.413 195.653 116.293 192.653Z" fill="black" stroke="#0D0D0D" stroke-width="17.7778"/>
<path d="M223.121 192.8C223.614 196.653 219.028 200.413 217.241 203.64C214.988 206.786 212.894 210.053 210.788 213.293C213.014 214.293 215.214 215.333 217.401 216.413C218.361 216.506 219.321 216.6 220.281 216.693C221.601 218.386 222.854 219.973 224.708 221.12C224.508 222.466 224.321 223.813 224.121 225.173C223.148 224.853 222.161 224.533 221.188 224.2C218.108 222.093 215.308 219.64 212.201 217.573C210.281 222.053 209.828 225.52 210.268 230.4L209.948 231.386C208.974 226.973 208.201 222.52 207.441 218.066C203.054 223.253 199.374 228.906 195.494 234.466C187.454 246.146 178.934 257.453 171.028 269.226C169.881 268.066 168.774 266.893 167.734 265.64C168.588 265.746 169.454 265.853 170.321 265.973C169.934 251.56 170.908 237.053 169.814 222.693L170.988 222.733C175.561 221.426 178.908 218.746 182.934 216.373C188.228 213.186 193.508 209.973 198.908 206.973C207.108 202.44 214.788 197.093 223.121 192.8Z" fill="black" stroke="#0D0D0D" stroke-width="17.7778"/>
<path d="M253.615 196.053C254.121 202.12 255.548 208.32 255.375 214.387C250.188 222.813 243.028 230.133 237.415 238.36C236.575 234.88 235.775 231.387 235.055 227.893C231.775 225.347 228.321 223.16 224.708 221.12C222.855 219.973 221.601 218.387 220.281 216.693C222.628 215.24 224.988 213.8 227.268 212.24C227.815 211.84 228.348 211.413 228.881 210.987C233.735 208.587 238.481 206.133 242.695 202.667C246.508 200.587 249.615 197.573 253.615 196.053Z" fill="black" stroke="#0D0D0D" stroke-width="17.7778"/>
<path d="M90.1859 197.187C97.6393 202.147 105.039 207.16 112.853 211.56C113.226 211.827 113.613 212.08 113.999 212.333C116.279 213.84 118.626 215.213 121.053 216.493L119.706 217.92C118.146 219.093 116.573 220.227 114.959 221.32C112.199 223.133 109.306 224.747 106.599 226.6C105.519 230.587 104.813 234.68 103.933 238.72C98.0259 230.56 91.5593 222.88 85.5859 214.787C85.6926 208.627 86.6659 202.587 87.3593 196.48C88.3059 196.707 89.2393 196.947 90.1859 197.187Z" fill="black" stroke="#0D0D0D" stroke-width="17.7778"/>
<path d="M122.613 201.68C124.827 205.12 127.307 208.334 129.88 211.507C127.107 213.6 124.24 215.12 121.053 216.494C118.627 215.214 116.28 213.84 114 212.334C116.453 208.867 117.867 202.28 122.613 201.68Z" fill="black" stroke="#0D0D0D" stroke-width="17.7778"/>
<path d="M221.972 203.28C223.825 206.213 225.425 209.293 227.265 212.24C224.985 213.8 222.625 215.24 220.279 216.693C219.319 216.6 218.358 216.506 217.398 216.413C215.212 215.333 213.012 214.293 210.785 213.293C212.892 210.053 214.985 206.786 217.238 203.64C218.758 202.946 220.905 200.88 221.972 203.28Z" fill="black" stroke="#0D0D0D" stroke-width="17.7778"/>
<path d="M129.88 211.507C134.867 219.2 140.414 226.454 145.64 233.987C143.987 235.64 142.32 237.293 140.707 239C136.854 236.08 132.96 234.16 131.28 229.267C131.934 226.347 133.28 222.934 132.76 219.947C131.827 218.614 130.84 217.32 129.787 216.067C126.4 217.08 123.214 217.653 119.707 217.92L121.054 216.493C124.24 215.12 127.107 213.6 129.88 211.507Z" fill="black" stroke="#0D0D0D" stroke-width="17.7778"/>
<path d="M119.708 217.92C123.214 217.654 126.401 217.08 129.788 216.067C130.841 217.32 131.828 218.614 132.761 219.947C133.281 222.934 131.934 226.347 131.281 229.267L131.148 229.814C130.868 225.707 130.321 221.747 128.401 218.054C125.028 220.307 121.841 222.774 119.001 225.694L117.228 227.654C116.441 225.547 115.681 223.454 114.961 221.32C116.574 220.227 118.148 219.094 119.708 217.92Z" fill="black" stroke="#0D0D0D" stroke-width="17.7778"/>
<path d="M212.201 217.573C215.308 219.64 218.108 222.093 221.188 224.2L221.201 225.24C220.268 228.627 218.988 231.507 217.135 234.48C214.761 238.107 214.641 241.96 214.095 246.16C212.401 241 211.255 235.72 210.268 230.4C209.828 225.52 210.281 222.053 212.201 217.573Z" fill="black" stroke="#0D0D0D" stroke-width="17.7778"/>
<path d="M128.4 218.053C130.32 221.747 130.867 225.707 131.147 229.813C130.16 234.8 129.173 239.747 127.613 244.587C124.133 238.533 122.347 231.787 119 225.693C121.84 222.773 125.027 220.307 128.4 218.053Z" fill="black" stroke="#0D0D0D" stroke-width="17.7778"/>
<path d="M207.439 218.067C208.199 222.52 208.972 226.974 209.946 231.387C206.639 233.96 202.532 235.054 198.799 237.2C197.732 236.254 196.599 235.36 195.492 234.467C199.372 228.907 203.052 223.254 207.439 218.067Z" fill="black" stroke="#0D0D0D" stroke-width="17.7778"/>
<path d="M114.962 221.32C115.682 223.453 116.442 225.546 117.228 227.653C114.428 231.04 111.575 233.733 107.948 236.226C107.495 233.013 107.055 229.8 106.602 226.6C109.308 224.746 112.202 223.133 114.962 221.32Z" fill="black" stroke="#0D0D0D" stroke-width="17.7778"/>
<path d="M224.707 221.12C228.321 223.16 231.774 225.347 235.054 227.893C234.721 231.08 234.374 234.267 234.001 237.453C229.454 233.667 225.281 229.507 221.201 225.24L221.188 224.2C222.161 224.533 223.147 224.853 224.121 225.173C224.321 223.813 224.507 222.467 224.707 221.12Z" fill="black" stroke="#0D0D0D" stroke-width="17.7778"/>
<path d="M221.2 225.24C225.28 229.507 229.454 233.667 234 237.454C234.374 234.267 234.72 231.08 235.054 227.894C235.774 231.387 236.574 234.88 237.414 238.36C232.56 244.734 227.547 250.987 222.787 257.44C221.44 258.774 220.04 260.054 218.654 261.36C215.667 256.587 215.494 251.427 214.094 246.16C214.64 241.96 214.76 238.107 217.134 234.48C218.987 231.507 220.267 228.627 221.2 225.24Z" fill="black" stroke="#0D0D0D" stroke-width="17.7778"/>
<path d="M106.6 226.6C107.054 229.8 107.494 233.013 107.947 236.227C111.574 233.733 114.427 231.04 117.227 227.653L119 225.693C122.347 231.787 124.134 238.533 127.614 244.587C125.84 250.08 125.534 255.653 122.76 260.84L120.16 260.293C115.214 252.787 109.24 245.987 103.934 238.72C104.814 234.68 105.52 230.587 106.6 226.6Z" fill="black" stroke="#0D0D0D" stroke-width="17.7778"/>
<path d="M131.147 229.813L131.28 229.267C132.96 234.16 136.853 236.08 140.707 239C134.587 246.347 128.24 254.187 123.027 262.187C122.453 262.08 121.867 261.96 121.293 261.84L120.16 260.293L122.76 260.84C125.533 255.653 125.84 250.08 127.613 244.587C129.173 239.747 130.16 234.8 131.147 229.813Z" fill="black" stroke="#0D0D0D" stroke-width="17.7778"/>
<path d="M209.947 231.387L210.267 230.4C211.254 235.72 212.401 241 214.094 246.16C215.494 251.427 215.667 256.587 218.654 261.36C220.041 260.053 221.441 258.773 222.787 257.44C221.947 258.907 221.187 260.387 220.241 261.8C217.787 263.32 216.587 259.56 215.267 258.147C209.987 251.067 204.694 243.773 198.801 237.2C202.534 235.053 206.641 233.96 209.947 231.387Z" fill="black" stroke="#0D0D0D" stroke-width="17.7778"/>
<path d="M157.879 0H183.759C194.906 2.29333 208.786 2.6 219.292 7.77333C206.986 5.84 195.359 1.86667 182.666 1.66667C170.399 1.6 157.426 0.866667 145.372 3.14667C139.279 4.04 133.412 5.81333 127.266 6.38667C136.212 1.85333 148.212 2.18667 157.879 0Z" fill="#0D0D0D"/>
<path d="M182.667 1.66655C195.36 1.86655 206.987 5.83988 219.293 7.77322C241.107 14.3865 261.44 25.0532 278.92 39.7066C307.133 62.9999 327.347 95.1332 335.84 130.747C337.72 138.187 339.293 145.88 339.427 153.573C340.067 154.253 340.693 154.947 341.333 155.627V187.213C340.12 177.747 341.107 167.973 340.8 158.44C340.493 157.84 340.16 157.253 339.8 156.68L339.627 156.413C339.813 169.2 340.08 182.12 339 194.867C338 200.12 337.253 205.387 335.773 210.533C324.893 256.76 293.6 297.253 251.84 319.773C238.133 327.56 223.413 332.453 208.2 336.32C191.72 339.973 174.507 340.853 157.68 340.2L157.773 341.333H155.067L156.293 339.907C149.947 339.173 143.68 338.467 137.4 337.24C134.227 336.48 131.067 335.667 127.893 334.907C124.8 333.96 121.68 333.093 118.547 332.267C110.427 329.4 102.36 326.52 94.7067 322.52C65.0133 307.48 39.8667 284.093 23.4533 255.067C13.88 239.307 8.21333 221.773 4.08 203.907C2.94667 197.72 1.96 191.533 1.4 185.267L0 185.973V183.013L1.02667 184.067C0.426667 168.333 0.84 152.84 4.06667 137.373C8.16 119.507 13.8 102 23.36 86.2399C45.4933 47.1199 83.7333 17.6665 127.267 6.38655C133.413 5.81322 139.28 4.03988 145.373 3.14655C157.427 0.866549 170.4 1.59988 182.667 1.66655ZM169.16 88.6399L169.307 89.3865C160.227 105.24 150.2 120.493 141.307 136.44C140.48 136.8 139.653 137.16 138.827 137.52C138.04 137.053 137.24 136.6 136.453 136.12C119.4 124.32 102.347 112.427 85.4667 100.4L84.84 99.9199L84.3733 99.5732C74.2 99.1199 63.9733 99.3199 53.8 99.3999C55.3867 117 58.0667 134.56 59.6933 152.173C64.9333 156.893 70.64 161.067 76.0267 165.627C77.2533 166.72 78.4533 167.827 79.68 168.92C81.3867 170.413 83.1467 171.773 84.9467 173.147C87.7867 175.307 90.56 177.533 93.2267 179.88C91.8533 180.187 90.4667 180.493 89.0933 180.8C88.68 185.507 88.2533 190.2 87.56 194.867C88.9733 195.72 90.3867 196.587 91.7867 197.453C96.8533 200.973 102.36 203.493 107.787 206.347C109.573 207.987 111.187 209.787 112.853 211.56C105.04 207.16 97.64 202.147 90.1867 197.187C89.24 196.947 88.3067 196.707 87.36 196.48C86.6667 202.587 85.6933 208.627 85.5867 214.787C91.56 222.88 98.0267 230.56 103.933 238.72C109.24 245.987 115.213 252.787 120.16 260.293L121.293 261.84C121.867 261.96 122.453 262.08 123.027 262.187C128.24 254.187 134.587 246.347 140.707 239C142.32 237.293 143.987 235.64 145.64 233.987C152.773 244.733 160.893 254.693 167.733 265.64C168.773 266.893 169.88 268.067 171.027 269.227C178.933 257.453 187.453 246.147 195.493 234.467C196.6 235.36 197.733 236.253 198.8 237.2C204.693 243.773 209.987 251.067 215.267 258.147C216.587 259.56 217.787 263.32 220.24 261.8C221.187 260.387 221.947 258.907 222.787 257.44C227.547 250.987 232.56 244.733 237.413 238.36C243.027 230.133 250.187 222.813 255.373 214.387C255.547 208.32 254.12 202.12 253.613 196.053C249.613 197.573 246.507 200.587 242.693 202.667C238.48 206.133 233.733 208.587 228.88 210.987C229.84 209.053 231.307 207.813 233.04 206.573C236.787 204.08 240.68 201.987 244.8 200.187C247.56 198.373 250.373 196.653 253.253 195.013C253 190.16 252.56 185.32 251.68 180.533C250.387 180.347 249.093 180.16 247.8 179.973C250.027 178.013 252.307 176.12 254.64 174.28C258.24 171.44 261.8 168.587 265.213 165.52C269.8 161.507 274.8 157.973 279.413 154C281.987 151.947 281.667 148.293 282.107 145.347C283.813 130.067 285.627 114.653 287.4 99.3599C276.987 99.4399 266.493 98.9599 256.107 99.7199C255.387 100.28 254.68 100.853 253.973 101.427C236.707 113.933 219.093 126.067 201.56 138.213C196.24 130.453 192.027 122.08 186.92 114.187C181.52 105.733 176.627 96.9865 171.48 88.3732C170.707 88.4665 169.933 88.5599 169.16 88.6399Z" fill="#0D0D0D"/>
<path d="M171.48 88.3735C176.627 96.9869 181.52 105.734 186.92 114.187C192.027 122.08 196.24 130.454 201.56 138.214C204.613 143.574 207.56 148.854 211.64 153.534C212.4 156.867 213.44 159.72 215.573 162.414C216.573 163.734 217.587 165.04 218.587 166.347C219.173 166.227 219.773 166.12 220.36 166C222.587 167.747 224.8 169.507 227.013 171.267L226.187 172.907C225.467 174.08 224.733 175.254 224 176.427C225.013 177.667 226.053 178.894 227.093 180.107C227.72 183.014 228.28 185.92 228.773 188.84C230.32 189.934 231.867 191.027 233.453 192.054C230.707 191.294 227.68 190.76 225.12 189.467C222.36 188.48 223.467 184.68 223.107 182.374C219.067 183.24 216.213 185.307 213.08 187.854C207.693 191.534 201.853 194.387 196.28 197.747C188.147 202.814 179.84 207.627 171.493 212.32L170.333 212.547C170.213 173.027 170.347 132.907 170.227 93.4402C169.933 92.0935 169.627 90.7335 169.307 89.3869L169.16 88.6402C169.933 88.5602 170.707 88.4669 171.48 88.3735Z" fill="#94A4B0"/>
<path d="M169.308 89.3867C169.628 90.7334 169.935 92.0934 170.228 93.4401C170.348 132.907 170.215 173.027 170.335 212.547C163.468 208.773 156.722 204.747 149.975 200.76C140.562 194.68 130.415 190.053 121.242 183.547C119.268 182.16 117.362 180.747 115.268 179.547C115.882 178.4 116.508 177.267 117.148 176.133C118.802 173.347 120.508 170.587 122.215 167.827C123.402 165.947 124.588 164.067 125.775 162.187C127.255 159.773 128.642 157.32 130.028 154.853C125.895 150.2 121.508 145.907 117.655 141.027C114.642 137.2 112.255 131.867 107.028 130.84C107.735 137.16 110.362 142.68 112.322 148.64C112.002 150.467 111.708 152.307 111.428 154.16C109.788 154.307 108.135 154.467 106.482 154.613C105.135 151.067 103.588 147.613 102.055 144.147C101.495 141.84 100.882 139.533 100.148 137.28C101.788 136.587 103.428 135.893 105.068 135.2C104.268 130.68 103.202 126.227 102.188 121.747C107.575 125.333 111.335 130.28 116.162 134.52C121.935 139.653 126.268 145.867 132.602 150.413C134.388 147.6 136.415 144.76 137.682 141.68C138.708 139.827 137.135 137.867 136.455 136.12C137.242 136.6 138.042 137.053 138.828 137.52C139.655 137.16 140.482 136.8 141.308 136.44C150.202 120.493 160.228 105.24 169.308 89.3867Z" fill="#CCD5DB"/>
<path d="M53.8008 99.4001C63.9741 99.3201 74.2008 99.1201 84.3741 99.5734L84.8408 99.9201C83.5341 99.9867 82.2141 100.053 80.8941 100.12C83.8941 107.947 88.5475 115.813 89.5341 123.987C90.2408 130.427 91.8941 136.12 89.4941 142.44C86.8141 141.173 84.1341 139.92 81.4275 138.707C82.7741 144.04 85.7208 148.333 88.1475 153.147C89.2408 155.173 88.2541 157.107 87.9208 159.267C85.1875 158.84 82.4408 158.48 79.7341 157.96L78.3741 157.573C76.6674 157.107 74.9475 156.653 73.2408 156.2C74.3875 159.627 76.0941 162.52 78.2008 165.413L76.0275 165.627C70.6408 161.067 64.9341 156.893 59.6941 152.173C58.0675 134.56 55.3874 117 53.8008 99.4001Z" fill="#E3E5E6"/>
<path d="M287.398 99.3601C285.625 114.653 283.812 130.067 282.105 145.347C281.665 148.293 281.985 151.947 279.412 154C274.798 157.973 269.799 161.507 265.212 165.52L262.985 165.493C264.972 162.467 266.785 159.373 268.279 156.08C265.105 157.013 262.039 158.12 259.025 159.493C257.079 158.827 255.039 158.24 253.172 157.36C252.492 155.707 252.479 154.72 253.172 153.08C255.012 148.747 257.265 144.627 258.905 140.2C256.252 141.373 253.598 142.573 250.958 143.773C249.892 138.467 249.225 133.08 248.785 127.693C251.945 118.333 254.905 109.213 259.438 100.413C258.332 100.173 257.225 99.9334 256.105 99.7201C266.492 98.9601 276.985 99.4401 287.398 99.3601Z" fill="#E3E5E6"/>
<path d="M80.8944 100.12C82.2144 100.053 83.5344 99.9866 84.841 99.9199L85.4677 100.4C88.6277 113.667 95.4544 124.773 100.148 137.28C100.881 139.533 101.494 141.84 102.054 144.147C101.521 148.04 101.881 151.88 101.921 155.787C100.334 158.747 97.521 161.173 95.5744 163.96C93.4944 163.347 91.4277 162.72 89.361 162.107C86.041 160.933 82.9344 159.387 79.7344 157.96C82.441 158.48 85.1877 158.84 87.921 159.267C88.2544 157.107 89.241 155.173 88.1477 153.147C85.721 148.333 82.7744 144.04 81.4277 138.707C84.1344 139.92 86.8144 141.173 89.4944 142.44C91.8944 136.12 90.241 130.427 89.5344 123.987C88.5477 115.813 83.8944 107.947 80.8944 100.12Z" fill="#C3CBCF"/>
<path d="M256.108 99.7202C257.228 99.9335 258.335 100.174 259.442 100.414C254.908 109.214 251.948 118.334 248.788 127.694C245.748 134.347 241.255 141.974 240.708 149.36C240.468 151.174 242.028 152.907 242.882 154.427C244.882 157.427 246.722 160.547 248.895 163.414L249.242 163.84C244.335 166.014 239.642 168.32 234.282 169.147C234.055 166.587 233.802 164.027 233.535 161.467C230.455 163.987 228.828 166.947 227.348 170.547L227.015 171.267C224.802 169.507 222.588 167.747 220.362 166C221.308 163.174 222.282 160.347 223.348 157.56C225.882 151.627 228.695 146.107 229.255 139.547C225.828 140.44 223.082 141.747 220.148 143.734C224.242 135.574 232.402 129.547 238.548 122.694C237.295 126.894 236.002 131.067 234.322 135.134C231.615 142.427 227.602 148.467 228.682 156.494C229.802 156.68 230.922 156.867 232.028 157.054C235.442 151.987 238.028 146.867 239.935 141.054C244.188 129 251.148 117.48 254.628 104.96C254.802 103.814 254.588 102.64 253.975 101.427C254.682 100.854 255.388 100.28 256.108 99.7202Z" fill="#A4B4BE"/>
<path d="M85.4648 100.4C102.345 112.427 119.398 124.32 136.452 136.12C137.132 137.867 138.705 139.827 137.678 141.68C136.412 144.76 134.385 147.6 132.598 150.413C126.265 145.867 121.932 139.653 116.158 134.52C111.332 130.28 107.572 125.333 102.185 121.747C103.198 126.227 104.265 130.68 105.065 135.2C103.425 135.893 101.785 136.587 100.145 137.28C95.4515 124.773 88.6248 113.667 85.4648 100.4Z" fill="#F6F6F6"/>
<path d="M253.972 101.427C254.585 102.64 254.799 103.813 254.625 104.96C251.145 117.48 244.185 129 239.932 141.053C236.945 140.013 235.865 137.667 234.319 135.133C235.999 131.067 237.292 126.893 238.545 122.693C232.399 129.547 224.239 135.573 220.145 143.733C217.265 146.96 214.399 150.2 211.639 153.533C207.559 148.853 204.612 143.573 201.559 138.213C219.092 126.067 236.705 113.933 253.972 101.427Z" fill="#F5F5F6"/>
<path d="M248.788 127.693C249.228 133.08 249.895 138.467 250.962 143.773C253.602 142.573 256.255 141.373 258.908 140.2C257.268 144.627 255.015 148.747 253.175 153.08C252.482 154.72 252.495 155.707 253.175 157.36C255.042 158.24 257.082 158.827 259.028 159.493C255.708 160.96 252.322 162.24 248.895 163.413C246.722 160.547 244.882 157.427 242.882 154.427C242.028 152.907 240.468 151.173 240.708 149.36C241.255 141.973 245.748 134.347 248.788 127.693Z" fill="#C5CDD2"/>
<path d="M107.027 130.84C112.254 131.867 114.641 137.2 117.654 141.027C115.921 140.267 114.147 139.573 112.374 138.933C112.614 141.693 112.961 144.44 113.254 147.187L112.321 148.64C110.361 142.68 107.734 137.16 107.027 130.84Z" fill="#94ABBB"/>
<path d="M234.32 135.133C235.867 137.667 236.947 140.013 239.934 141.053C238.027 146.867 235.44 151.987 232.027 157.053C230.92 156.867 229.8 156.68 228.68 156.493C227.6 148.467 231.614 142.427 234.32 135.133Z" fill="#D0D9DE"/>
<path d="M112.375 138.933C114.148 139.573 115.922 140.266 117.655 141.026C121.508 145.906 125.895 150.2 130.028 154.853C128.642 157.32 127.255 159.773 125.775 162.186C123.442 160.013 121.068 158.266 118.268 156.706L118.535 160.213C116.895 155.826 115.108 151.493 113.255 147.186C112.962 144.44 112.615 141.693 112.375 138.933Z" fill="#7392A6"/>
<path d="M229.254 139.547C228.694 146.107 225.881 151.627 223.347 157.56C220.294 158.494 217.947 160.347 215.574 162.414C213.441 159.72 212.401 156.867 211.641 153.534C214.401 150.2 217.267 146.96 220.147 143.734C223.081 141.747 225.827 140.44 229.254 139.547Z" fill="#7593A7"/>
<path d="M102.055 144.146C103.588 147.613 105.135 151.066 106.482 154.613L106.415 155.533C105.908 158.946 105.562 162.533 104.468 165.813C102.775 166.546 100.802 166.773 98.9883 167.133C97.6549 166.333 96.3216 165.506 94.9883 164.68L95.575 163.96C97.5216 161.173 100.335 158.746 101.922 155.786C101.882 151.88 101.522 148.04 102.055 144.146Z" fill="#A0AFB8"/>
<path d="M112.321 148.64L113.254 147.187C115.107 151.493 116.894 155.827 118.534 160.213L119.161 161.947C116.961 163.693 114.707 165.4 112.481 167.133C110.654 163.147 108.427 159.413 106.414 155.533L106.481 154.613C108.134 154.467 109.787 154.307 111.427 154.16C111.707 152.307 112.001 150.467 112.321 148.64Z" fill="#AFBFC9"/>
<path d="M106.415 155.533C108.428 159.413 110.655 163.147 112.482 167.133L111.668 168.267C111.148 167.44 110.642 166.6 110.122 165.76C110.042 167.547 109.988 169.32 109.922 171.093C107.348 170.413 104.775 169.72 102.268 168.8C101.162 168.28 100.068 167.72 98.9883 167.133C100.802 166.773 102.775 166.547 104.468 165.813C105.562 162.533 105.908 158.947 106.415 155.533Z" fill="#8A9CA8"/>
<path d="M268.281 156.08C266.788 159.373 264.975 162.467 262.988 165.493L265.215 165.52C261.801 168.587 258.241 171.44 254.641 174.28C252.948 173.96 251.241 173.693 249.535 173.467C251.148 172.32 252.708 171.107 254.281 169.92C252.655 167.84 250.961 165.84 249.241 163.84L248.895 163.413C252.321 162.24 255.708 160.96 259.028 159.493C262.041 158.12 265.108 157.013 268.281 156.08Z" fill="#92A7B5"/>
<path d="M73.2383 156.2C74.9449 156.654 76.6649 157.107 78.3716 157.574L79.7316 157.96C82.9316 159.387 86.0383 160.934 89.3583 162.107C86.0516 164.2 82.8649 166.627 79.6783 168.92C78.4516 167.827 77.2516 166.72 76.0249 165.627L78.1983 165.414C76.0916 162.52 74.3849 159.627 73.2383 156.2Z" fill="#96ABB8"/>
<path d="M118.266 156.707C121.066 158.267 123.439 160.013 125.772 162.187C124.586 164.067 123.399 165.947 122.212 167.827C121.159 165.88 120.132 163.933 119.159 161.947L118.532 160.213L118.266 156.707Z" fill="#51616C"/>
<path d="M223.348 157.56C222.281 160.347 221.308 163.173 220.361 166C219.774 166.12 219.174 166.227 218.588 166.347C217.588 165.04 216.574 163.733 215.574 162.413C217.948 160.347 220.294 158.493 223.348 157.56Z" fill="#3B4A53"/>
<path d="M119.161 161.947C120.135 163.933 121.161 165.88 122.215 167.827C120.508 170.587 118.801 173.347 117.148 176.133C116.481 175.28 115.828 174.4 115.175 173.52C113.948 171.813 112.775 170.067 111.668 168.267L112.481 167.133C114.708 165.4 116.961 163.693 119.161 161.947Z" fill="#96ABB9"/>
<path d="M89.3597 162.106C91.4264 162.72 93.493 163.346 95.573 163.96L94.9864 164.68C92.8264 167.186 91.133 169.68 89.653 172.653C88.6797 172.293 87.7064 171.96 86.733 171.64C86.133 172.133 85.533 172.64 84.9464 173.146C83.1464 171.773 81.3864 170.413 79.6797 168.92C82.8664 166.626 86.053 164.2 89.3597 162.106Z" fill="#849CAC"/>
<path d="M233.534 161.467C233.801 164.027 234.054 166.587 234.281 169.147C239.641 168.32 244.334 166.013 249.241 163.84C250.961 165.84 252.654 167.84 254.281 169.92C252.708 171.107 251.148 172.32 249.534 173.467C247.001 174.507 244.454 175.52 241.828 176.36C242.654 173.933 243.414 172.12 242.494 169.587C237.174 170.253 232.734 172.227 227.348 170.547C228.828 166.947 230.454 163.987 233.534 161.467Z" fill="#738D9F"/>
<path d="M94.9857 164.68C96.319 165.507 97.6523 166.334 98.9857 167.134C100.066 167.72 101.159 168.28 102.266 168.8C101.319 169.694 100.399 170.64 99.519 171.614C99.5323 173.267 100.372 174.96 100.866 176.533C97.0523 175.427 93.3457 174.08 89.6523 172.654C91.1323 169.68 92.8257 167.187 94.9857 164.68Z" fill="#6C889A"/>
<path d="M110.12 165.76C110.64 166.6 111.146 167.44 111.666 168.266C112.773 170.066 113.946 171.813 115.173 173.52C112.8 173.72 110.426 173.92 108.053 174.12C109.426 175.8 110.813 177.48 112.28 179.08L109.506 178.64C106.586 178.066 103.72 177.32 100.866 176.533C100.373 174.96 99.5329 173.266 99.5195 171.613C100.4 170.64 101.32 169.693 102.266 168.8C104.773 169.72 107.346 170.413 109.92 171.093C109.986 169.32 110.04 167.546 110.12 165.76Z" fill="#4C6D82"/>
<path d="M242.494 169.587C243.414 172.12 242.654 173.934 241.827 176.36C238.214 177.387 234.574 178.36 230.934 179.307C232.201 177.627 233.467 175.934 234.721 174.24C231.881 173.747 229.054 173.267 226.188 172.907L227.014 171.267L227.347 170.547C232.734 172.227 237.174 170.254 242.494 169.587Z" fill="#507186"/>
<path d="M86.732 171.64C87.7053 171.96 88.6786 172.293 89.652 172.653C93.3453 174.08 97.052 175.427 100.865 176.533C103.719 177.32 106.585 178.067 109.505 178.64C109.799 179.573 110.105 180.507 110.399 181.453C106.799 182.933 103.172 184.253 99.3186 184.92C97.8386 185.2 96.372 185.493 94.9053 185.8C94.0253 190.093 94.532 193.84 91.7853 197.453C90.3853 196.587 88.972 195.72 87.5586 194.867C88.252 190.2 88.6786 185.507 89.092 180.8C90.4653 180.493 91.852 180.187 93.2253 179.88C90.5586 177.533 87.7853 175.307 84.9453 173.147C85.532 172.64 86.132 172.133 86.732 171.64Z" fill="#D3D7DA"/>
<path d="M108.055 174.12C110.428 173.92 112.801 173.72 115.175 173.52C115.828 174.4 116.481 175.28 117.148 176.133C116.508 177.267 115.881 178.4 115.268 179.547C114.708 179.453 114.135 179.36 113.575 179.28L112.281 179.08C110.815 177.48 109.428 175.8 108.055 174.12Z" fill="#162C3A"/>
<path d="M226.187 172.907C229.053 173.267 231.88 173.747 234.72 174.24C233.467 175.933 232.2 177.627 230.933 179.307L228.253 179.933L227.093 180.107C226.053 178.893 225.013 177.667 224 176.427C224.733 175.253 225.467 174.08 226.187 172.907Z" fill="#274151"/>
<path d="M249.534 173.467C251.241 173.693 252.947 173.96 254.641 174.28C252.307 176.12 250.027 178.013 247.801 179.973C249.094 180.16 250.387 180.347 251.681 180.533C252.561 185.32 253.001 190.16 253.254 195.013C250.374 196.653 247.561 198.373 244.801 200.187C240.681 201.987 236.787 204.08 233.041 206.573C234.747 201.907 237.241 198 240.321 194.133C241.947 191.853 243.067 189.347 244.134 186.773C238.494 184.987 233.387 182.893 228.254 179.933L230.934 179.307C234.574 178.36 238.214 177.387 241.827 176.36C244.454 175.52 247.001 174.507 249.534 173.467Z" fill="#CFD5D9"/>
<path d="M109.506 178.64L112.279 179.08L113.573 179.28C112.973 182.413 112.573 185.813 111.333 188.773C109.986 190.093 108.253 191.12 106.613 192.067C104.719 192.733 102.826 193.413 100.946 194.093C98.746 190.987 98.8927 188.533 99.3194 184.92C103.173 184.253 106.799 182.933 110.399 181.453C110.106 180.507 109.799 179.573 109.506 178.64Z" fill="#ABB9C3"/>
<path d="M115.267 179.546C117.36 180.746 119.267 182.16 121.24 183.546L119.453 183.506C119.24 185.426 119.12 187.346 118.88 189.266C114.787 190.146 110.627 190.933 106.613 192.066C108.253 191.12 109.987 190.093 111.333 188.773C112.573 185.813 112.973 182.413 113.573 179.28C114.133 179.36 114.707 179.453 115.267 179.546Z" fill="#93A5B0"/>
<path d="M227.094 180.106L228.254 179.933C233.387 182.893 238.494 184.986 244.134 186.773C243.067 189.346 241.947 191.853 240.32 194.133C238.04 193.426 235.747 192.733 233.454 192.053C231.867 191.026 230.32 189.933 228.774 188.84C228.28 185.92 227.72 183.013 227.094 180.106Z" fill="#ABB9C3"/>
<path d="M223.105 182.374C223.465 184.68 222.358 188.48 225.118 189.467C227.678 190.76 230.705 191.294 233.451 192.054C235.745 192.734 238.038 193.427 240.318 194.134C237.238 198 234.745 201.907 233.038 206.574C231.305 207.814 229.838 209.054 228.878 210.987C228.345 211.414 227.811 211.84 227.265 212.24C225.425 209.294 223.825 206.214 221.971 203.28C220.905 200.88 218.758 202.947 217.238 203.64C219.025 200.414 223.611 196.654 223.118 192.8C223.758 192.254 224.385 191.68 225.011 191.107C222.811 189.454 220.611 187.827 218.278 186.387C216.531 186.814 214.798 187.307 213.078 187.854C216.211 185.307 219.065 183.24 223.105 182.374Z" fill="#5A7B8F"/>
<path d="M119.453 183.507L121.24 183.547C130.413 190.054 140.56 194.68 149.973 200.76C156.72 204.747 163.466 208.774 170.333 212.547L171.493 212.32C171.32 215.787 171.146 219.267 170.986 222.734L169.813 222.694C161.16 218.68 153.386 212.84 144.96 208.347C135.386 203.227 126.493 197.013 116.906 191.933C117.586 191.053 118.24 190.173 118.88 189.267C119.12 187.347 119.24 185.427 119.453 183.507Z" fill="#456274"/>
<path d="M94.9052 185.8C96.3718 185.493 97.8385 185.2 99.3185 184.92C98.8918 188.533 98.7452 190.987 100.945 194.093C103.772 197.973 106.585 201.573 107.785 206.347C102.358 203.493 96.8518 200.973 91.7852 197.453C94.5318 193.84 94.0252 190.093 94.9052 185.8Z" fill="#C2CCD3"/>
<path d="M218.282 186.387C220.615 187.827 222.815 189.453 225.015 191.107C224.388 191.68 223.762 192.253 223.122 192.8C214.788 197.093 207.108 202.44 198.908 206.973C193.508 209.973 188.228 213.187 182.935 216.373C178.908 218.747 175.562 221.427 170.988 222.733C171.148 219.267 171.322 215.787 171.495 212.32C179.842 207.627 188.148 202.813 196.282 197.747C201.855 194.387 207.695 191.533 213.082 187.853C214.802 187.307 216.535 186.813 218.282 186.387Z" fill="#21303A"/>
<path d="M118.879 189.267C118.239 190.173 117.585 191.053 116.905 191.933L116.292 192.653C118.412 195.653 120.559 198.64 122.612 201.68C117.865 202.28 116.452 208.867 113.999 212.333C113.612 212.08 113.225 211.827 112.852 211.56C111.185 209.787 109.572 207.987 107.785 206.347C106.585 201.573 103.772 197.973 100.945 194.093C102.825 193.413 104.719 192.733 106.612 192.067C110.625 190.933 114.785 190.147 118.879 189.267Z" fill="#5C7D92"/>
<path d="M116.293 192.653L116.906 191.933C126.493 197.013 135.386 203.226 144.96 208.346C153.386 212.84 161.16 218.68 169.813 222.693C170.906 237.053 169.933 251.56 170.32 265.973C169.453 265.853 168.586 265.746 167.733 265.64C160.893 254.693 152.773 244.733 145.64 233.986C140.413 226.453 134.866 219.2 129.88 211.506C127.306 208.333 124.826 205.12 122.613 201.68C120.56 198.64 118.413 195.653 116.293 192.653Z" fill="#CCD5DB"/>
<path d="M223.121 192.8C223.614 196.653 219.028 200.413 217.241 203.64C214.988 206.786 212.894 210.053 210.788 213.293C213.014 214.293 215.214 215.333 217.401 216.413C218.361 216.506 219.321 216.6 220.281 216.693C221.601 218.386 222.854 219.973 224.708 221.12C224.508 222.466 224.321 223.813 224.121 225.173C223.148 224.853 222.161 224.533 221.188 224.2C218.108 222.093 215.308 219.64 212.201 217.573C210.281 222.053 209.828 225.52 210.268 230.4L209.948 231.386C208.974 226.973 208.201 222.52 207.441 218.066C203.054 223.253 199.374 228.906 195.494 234.466C187.454 246.146 178.934 257.453 171.028 269.226C169.881 268.066 168.774 266.893 167.734 265.64C168.588 265.746 169.454 265.853 170.321 265.973C169.934 251.56 170.908 237.053 169.814 222.693L170.988 222.733C175.561 221.426 178.908 218.746 182.934 216.373C188.228 213.186 193.508 209.973 198.908 206.973C207.108 202.44 214.788 197.093 223.121 192.8Z" fill="#94A4B0"/>
<path d="M253.615 196.053C254.121 202.12 255.548 208.32 255.375 214.387C250.188 222.813 243.028 230.133 237.415 238.36C236.575 234.88 235.775 231.387 235.055 227.893C231.775 225.347 228.321 223.16 224.708 221.12C222.855 219.973 221.601 218.387 220.281 216.693C222.628 215.24 224.988 213.8 227.268 212.24C227.815 211.84 228.348 211.413 228.881 210.987C233.735 208.587 238.481 206.133 242.695 202.667C246.508 200.587 249.615 197.573 253.615 196.053Z" fill="#EEEEEE"/>
<path d="M90.1859 197.187C97.6393 202.147 105.039 207.16 112.853 211.56C113.226 211.827 113.613 212.08 113.999 212.333C116.279 213.84 118.626 215.213 121.053 216.493L119.706 217.92C118.146 219.093 116.573 220.227 114.959 221.32C112.199 223.133 109.306 224.747 106.599 226.6C105.519 230.587 104.813 234.68 103.933 238.72C98.0259 230.56 91.5593 222.88 85.5859 214.787C85.6926 208.627 86.6659 202.587 87.3593 196.48C88.3059 196.707 89.2393 196.947 90.1859 197.187Z" fill="#EEEEEE"/>
<path d="M122.613 201.68C124.827 205.12 127.307 208.334 129.88 211.507C127.107 213.6 124.24 215.12 121.053 216.494C118.627 215.214 116.28 213.84 114 212.334C116.453 208.867 117.867 202.28 122.613 201.68Z" fill="#263139"/>
<path d="M221.972 203.28C223.825 206.213 225.425 209.293 227.265 212.24C224.985 213.8 222.625 215.24 220.279 216.693C219.319 216.6 218.358 216.506 217.398 216.413C215.212 215.333 213.012 214.293 210.785 213.293C212.892 210.053 214.985 206.786 217.238 203.64C218.758 202.946 220.905 200.88 221.972 203.28Z" fill="#26323B"/>
<path d="M129.88 211.507C134.867 219.2 140.414 226.454 145.64 233.987C143.987 235.64 142.32 237.293 140.707 239C136.854 236.08 132.96 234.16 131.28 229.267C131.934 226.347 133.28 222.934 132.76 219.947C131.827 218.614 130.84 217.32 129.787 216.067C126.4 217.08 123.214 217.653 119.707 217.92L121.054 216.493C124.24 215.12 127.107 213.6 129.88 211.507Z" fill="#547489"/>
<path d="M119.708 217.92C123.214 217.654 126.401 217.08 129.788 216.067C130.841 217.32 131.828 218.614 132.761 219.947C133.281 222.934 131.934 226.347 131.281 229.267L131.148 229.814C130.868 225.707 130.321 221.747 128.401 218.054C125.028 220.307 121.841 222.774 119.001 225.694L117.228 227.654C116.441 225.547 115.681 223.454 114.961 221.32C116.574 220.227 118.148 219.094 119.708 217.92Z" fill="#A2B4BF"/>
<path d="M212.201 217.573C215.308 219.64 218.108 222.093 221.188 224.2L221.201 225.24C220.268 228.627 218.988 231.507 217.135 234.48C214.761 238.107 214.641 241.96 214.095 246.16C212.401 241 211.255 235.72 210.268 230.4C209.828 225.52 210.281 222.053 212.201 217.573Z" fill="#CBD2D7"/>
<path d="M128.4 218.053C130.32 221.747 130.867 225.707 131.147 229.813C130.16 234.8 129.173 239.747 127.613 244.587C124.133 238.533 122.347 231.787 119 225.693C121.84 222.773 125.027 220.307 128.4 218.053Z" fill="#CDD4D8"/>
<path d="M207.439 218.067C208.199 222.52 208.972 226.974 209.946 231.387C206.639 233.96 202.532 235.054 198.799 237.2C197.732 236.254 196.599 235.36 195.492 234.467C199.372 228.907 203.052 223.254 207.439 218.067Z" fill="#517084"/>
<path d="M114.962 221.32C115.682 223.453 116.442 225.546 117.228 227.653C114.428 231.04 111.575 233.733 107.948 236.226C107.495 233.013 107.055 229.8 106.602 226.6C109.308 224.746 112.202 223.133 114.962 221.32Z" fill="#BFCAD1"/>
<path d="M224.707 221.12C228.321 223.16 231.774 225.347 235.054 227.893C234.721 231.08 234.374 234.267 234.001 237.453C229.454 233.667 225.281 229.507 221.201 225.24L221.188 224.2C222.161 224.533 223.147 224.853 224.121 225.173C224.321 223.813 224.507 222.467 224.707 221.12Z" fill="#BAC6CE"/>
<path d="M221.2 225.24C225.28 229.507 229.454 233.667 234 237.454C234.374 234.267 234.72 231.08 235.054 227.894C235.774 231.387 236.574 234.88 237.414 238.36C232.56 244.734 227.547 250.987 222.787 257.44C221.44 258.774 220.04 260.054 218.654 261.36C215.667 256.587 215.494 251.427 214.094 246.16C214.64 241.96 214.76 238.107 217.134 234.48C218.987 231.507 220.267 228.627 221.2 225.24Z" fill="#E3E5E7"/>
<path d="M106.6 226.6C107.054 229.8 107.494 233.013 107.947 236.227C111.574 233.733 114.427 231.04 117.227 227.653L119 225.693C122.347 231.787 124.134 238.533 127.614 244.587C125.84 250.08 125.534 255.653 122.76 260.84L120.16 260.293C115.214 252.787 109.24 245.987 103.934 238.72C104.814 234.68 105.52 230.587 106.6 226.6Z" fill="#E4E6E7"/>
<path d="M131.147 229.813L131.28 229.267C132.96 234.16 136.853 236.08 140.707 239C134.587 246.347 128.24 254.187 123.027 262.187C122.453 262.08 121.867 261.96 121.293 261.84L120.16 260.293L122.76 260.84C125.533 255.653 125.84 250.08 127.613 244.587C129.173 239.747 130.16 234.8 131.147 229.813Z" fill="#69899D"/>
<path d="M209.947 231.387L210.267 230.4C211.254 235.72 212.401 241 214.094 246.16C215.494 251.427 215.667 256.587 218.654 261.36C220.041 260.053 221.441 258.773 222.787 257.44C221.947 258.907 221.187 260.387 220.241 261.8C217.787 263.32 216.587 259.56 215.267 258.147C209.987 251.067 204.694 243.773 198.801 237.2C202.534 235.053 206.641 233.96 209.947 231.387Z" fill="#66869B"/>
</g>
</g>
<defs>
<clipPath id="clip0_1251_12599">
<rect width="342" height="342" rx="171" fill="white"/>
</clipPath>
<clipPath id="clip1_1251_12599">
<rect width="341.333" height="341.333" fill="white"/>
</clipPath>
</defs>
</svg>
