<svg xmlns="http://www.w3.org/2000/svg" viewBox="0 0 512 512"><g id="CIRCLE_OUTLINE_BLACK" data-name="CIRCLE OUTLINE BLACK"><circle cx="256" cy="256" r="256"/><path d="M140.65251,351.08427l-11.65869,18.56755s226.69677-43.61215,180.92561-144.22238C309.91943,225.42944,326.75976,305.7449,140.65251,351.08427Z" fill="#5827bc"/><path d="M123.81218,380.01511l-9.93148,21.15837s249.15055-45.77117,209.42464-157.60829C323.30534,243.56519,341.15153,338.13017,123.81218,380.01511Z" fill="#7649c6"/><path d="M120.45493,408.08234l17.70394,15.97673s231.44661-47.93019,196.47054-160.63092C334.62941,263.42815,352.33334,361.01575,120.45493,408.08234Z" fill="#7c4ac6"/><path d="M311.21484,216.79337s99.74658,79.88366-16.40853,159.33551C209.74105,427.9453,151.44759,427.9453,151.44759,427.9453l15.11312,15.11313S489.11783,367.92461,311.21484,216.79337Z" fill="#baabda"/><path d="M379.5081,154.01834l11.65877-18.56753S164.46862,179.06285,210.24,279.673C210.24,279.673,193.39963,199.3576,379.5081,154.01834Z" fill="#5827bc"/><path d="M396.34855,125.08754l9.93155-21.15834s-249.15218,45.771-209.426,157.608C196.85405,261.53724,179.00778,166.97236,396.34855,125.08754Z" fill="#7649c6"/><path d="M399.70583,97.02035l-17.704-15.97672S150.55366,128.97369,185.52992,241.6743C185.52992,241.6743,167.8259,144.0868,399.70583,97.02035Z" fill="#7c4ac6"/><path d="M208.94462,288.309s-99.7472-79.8836,16.40869-159.33532C310.41914,77.15737,368.713,77.15739,368.713,77.15739L353.59976,62.04428S31.04053,137.1779,208.94462,288.309Z" fill="#baabda"/></g></svg>