<svg width="16" height="16" viewBox="0 0 16 16" fill="none" xmlns="http://www.w3.org/2000/svg">
<g clip-path="url(#clip0_3584_5262)">
<path d="M8 16C12.4334 16 16 12.4334 16 8C16 3.56664 12.4334 0 8 0C3.56664 0 0 3.56664 0 8C0 12.4334 3.56664 16 8 16Z" fill="black"/>
<path fill-rule="evenodd" clip-rule="evenodd" d="M4.93624 10.2459C4.96599 10.2129 5.00186 10.1862 5.04211 10.1684C5.08235 10.1497 5.12522 10.1398 5.16984 10.139H12.5006C12.5312 10.139 12.5618 10.1488 12.5872 10.1666C12.6134 10.1844 12.6335 10.2085 12.6458 10.2379C12.658 10.2673 12.6624 10.2985 12.6572 10.3297C12.6519 10.3609 12.6379 10.3903 12.6178 10.4134L11.0631 12.1709C11.0334 12.2039 10.9975 12.2306 10.9572 12.2484C10.917 12.2672 10.8741 12.277 10.8295 12.2778H3.49442C3.4638 12.2778 3.43318 12.268 3.40781 12.2502C3.38244 12.2324 3.36144 12.2083 3.34919 12.1789C3.33694 12.1495 3.33344 12.1183 3.33782 12.0871C3.34219 12.0559 3.35706 12.0265 3.37806 12.0034L4.93624 10.2459ZM12.6239 8.78878C12.6449 8.81195 12.6589 8.84136 12.6642 8.87256C12.6694 8.90375 12.665 8.93583 12.6528 8.96435C12.6405 8.99376 12.6204 9.01782 12.5942 9.03565C12.5688 9.05347 12.5382 9.06238 12.5067 9.06327L5.17421 9.06951C5.13047 9.06862 5.08672 9.05882 5.04648 9.0401C5.00623 9.02139 4.97036 8.99554 4.94062 8.96257L3.37544 7.21135C3.35444 7.18818 3.34044 7.15877 3.33519 7.12758C3.32994 7.09639 3.33432 7.0643 3.34657 7.03579C3.35881 7.00638 3.37894 6.98231 3.40518 6.96449C3.43056 6.94667 3.46118 6.93775 3.4918 6.93686L10.8251 6.93062C10.8689 6.93151 10.9126 6.94132 10.9529 6.96003C10.9931 6.97875 11.029 7.00459 11.0587 7.03757L12.6239 8.78878ZM4.93624 3.82923C4.96599 3.79626 5.00186 3.76952 5.04211 3.7517C5.08235 3.73298 5.12522 3.72318 5.16984 3.72229L12.5049 3.72853C12.5355 3.72853 12.5662 3.73833 12.5915 3.75616C12.6169 3.77398 12.6379 3.79804 12.6502 3.82745C12.6624 3.85686 12.6668 3.88805 12.6615 3.91925C12.6563 3.95044 12.6423 3.97985 12.6213 4.00302L11.0631 5.75423C11.0334 5.78721 10.9975 5.81395 10.9572 5.83177C10.917 5.85048 10.8741 5.86029 10.8295 5.86118H3.49442C3.4638 5.86118 3.43318 5.85138 3.40781 5.83355C3.38244 5.81573 3.36144 5.79167 3.34919 5.76226C3.33694 5.73285 3.33344 5.70165 3.33782 5.67046C3.34307 5.63927 3.35706 5.60986 3.37806 5.58669L4.93624 3.82923Z" fill="url(#paint0_linear_3584_5262)"/>
</g>
<defs>
<linearGradient id="paint0_linear_3584_5262" x1="3.61508" y1="12.4663" x2="12.5431" y2="3.70172" gradientUnits="userSpaceOnUse">
<stop stop-color="#9945FF"/>
<stop offset="0.14" stop-color="#8A53F4"/>
<stop offset="0.42" stop-color="#6377D6"/>
<stop offset="0.79" stop-color="#24B0A7"/>
<stop offset="0.99" stop-color="#00D18C"/>
<stop offset="1" stop-color="#00D18C"/>
</linearGradient>
<clipPath id="clip0_3584_5262">
<rect width="16" height="16" fill="white"/>
</clipPath>
</defs>
</svg>
