<svg width="25" height="24" viewBox="0 0 25 24" fill="none" xmlns="http://www.w3.org/2000/svg">
<g clip-path="url(#clip0_5601_3378)">
<path fill-rule="evenodd" clip-rule="evenodd" d="M7.80524 15.3684C7.84986 15.319 7.90367 15.2789 7.96404 15.2521C8.0244 15.2241 8.08871 15.2093 8.15564 15.208H19.1517C19.1976 15.208 19.2436 15.2227 19.2816 15.2494C19.321 15.2762 19.3512 15.3123 19.3696 15.3564C19.3879 15.4005 19.3945 15.4473 19.3866 15.4941C19.3787 15.5409 19.3577 15.585 19.3276 15.6197L16.9955 18.2559C16.9509 18.3054 16.8971 18.3455 16.8367 18.3722C16.7764 18.4003 16.7121 18.415 16.6451 18.4163H5.64251C5.59658 18.4163 5.55065 18.4016 5.51259 18.3749C5.47453 18.3482 5.44304 18.3121 5.42466 18.268C5.40629 18.2238 5.40104 18.1771 5.4076 18.1303C5.41417 18.0835 5.43648 18.0394 5.46797 18.0046L7.80524 15.3684ZM19.3367 13.1827C19.3682 13.2175 19.3892 13.2616 19.3971 13.3084C19.405 13.3552 19.3984 13.4033 19.3801 13.4461C19.3617 13.4902 19.3315 13.5263 19.2921 13.553C19.2541 13.5798 19.2081 13.5931 19.1609 13.5945L8.1622 13.6038C8.09658 13.6025 8.03097 13.5878 7.9706 13.5597C7.91023 13.5317 7.85642 13.4929 7.81181 13.4434L5.46403 10.8166C5.43254 10.7818 5.41154 10.7377 5.40367 10.6909C5.39579 10.6442 5.40235 10.596 5.42073 10.5533C5.4391 10.5091 5.46928 10.473 5.50865 10.4463C5.54671 10.4196 5.59264 10.4062 5.63858 10.4049L16.6386 10.3955C16.7042 10.3968 16.7698 10.4116 16.8302 10.4396C16.8906 10.4677 16.9444 10.5065 16.989 10.5559L19.3367 13.1827ZM7.80524 5.74342C7.84986 5.69396 7.90367 5.65386 7.96404 5.62712C8.0244 5.59905 8.08871 5.58434 8.15564 5.58301L19.1583 5.59237C19.2042 5.59237 19.2501 5.60707 19.2882 5.63381C19.3262 5.66054 19.3577 5.69664 19.3761 5.74075C19.3945 5.78487 19.4011 5.83165 19.3932 5.87844C19.3853 5.92523 19.3643 5.96934 19.3328 6.0041L16.9955 8.63092C16.9509 8.68039 16.8971 8.72049 16.8367 8.74723C16.7764 8.7753 16.7121 8.79 16.6451 8.79134H5.64251C5.59658 8.79134 5.55065 8.77664 5.51259 8.7499C5.47453 8.72316 5.44304 8.68707 5.42466 8.64296C5.40629 8.59884 5.40104 8.55205 5.4076 8.50526C5.41548 8.45848 5.43648 8.41436 5.46797 8.37961L7.80524 5.74342Z" />
</g>
<defs>
<clipPath id="clip0_5601_3378">
<rect width="24" height="24"  transform="translate(0.400391)"/>
</clipPath>
</defs>
</svg>
