<svg width="24" height="24" viewBox="0 0 24 24" fill="none" xmlns="http://www.w3.org/2000/svg">
<mask id="mask0_8745_19507" style="mask-type:alpha" maskUnits="userSpaceOnUse" x="0" y="0" width="24" height="24">
<path d="M12 24C18.6274 24 24 18.6274 24 12C24 5.37259 18.6274 0 12 0C5.37259 0 0 5.37259 0 12C0 18.6274 5.37259 24 12 24Z" fill="#D9D9D9"/>
</mask>
<g mask="url(#mask0_8745_19507)">
<path d="M24 0H0V24H24V0Z" fill="#E50571"/>
<path d="M12.1012 4.41797C11.1695 4.41797 10.4141 7.79725 10.4141 11.9659C10.4141 16.1344 11.1695 19.5137 12.1012 19.5137C13.0329 19.5137 13.7884 16.1344 13.7884 11.9659C13.7884 7.79725 13.0329 4.41797 12.1012 4.41797ZM12.2177 19.0877C12.1112 19.2298 12.0046 19.1232 12.0046 19.1232C11.5756 18.6261 11.3611 17.7025 11.3611 17.7025C10.6105 15.2872 10.7891 10.1014 10.7891 10.1014C11.1418 5.98434 11.7835 5.01181 12.0019 4.79588C12.0241 4.77384 12.0535 4.76038 12.0847 4.75785C12.1159 4.75533 12.1471 4.7639 12.1726 4.78207C12.4894 5.00653 12.7551 5.94536 12.7551 5.94536C13.5397 8.85791 13.4686 11.5929 13.4686 11.5929C13.5397 13.9727 13.0755 16.6366 13.0755 16.6366C12.7182 18.6611 12.2177 19.0877 12.2177 19.0877Z" fill="white"/>
<path d="M18.6485 8.20979C18.1846 7.40138 14.8778 8.42786 11.2602 10.5023C7.6426 12.5766 5.09083 14.9137 5.55436 15.7218C6.0179 16.5299 9.3251 15.5038 12.9427 13.4293C16.5602 11.355 19.112 9.01787 18.6485 8.20979ZM5.98233 15.6109C5.80473 15.5886 5.84486 15.4426 5.84486 15.4426C6.06268 14.8231 6.75595 14.1774 6.75595 14.1774C8.47828 12.3244 13.0656 9.89872 13.0656 9.89872C16.8118 8.15579 17.9755 8.22933 18.2707 8.31059C18.3009 8.31909 18.3272 8.338 18.345 8.36397C18.3627 8.38999 18.3705 8.42143 18.3673 8.45272C18.3318 8.83941 17.648 9.5368 17.648 9.5368C15.5136 11.6676 13.1058 12.9673 13.1058 12.9673C11.0768 14.2136 8.53516 15.136 8.53516 15.136C6.60115 15.8329 5.98243 15.6109 5.98243 15.6109H5.98233Z" fill="white"/>
<path d="M18.632 15.7496C19.0995 14.9433 16.5541 12.5956 12.9492 10.5056C9.34437 8.41555 6.03793 7.37635 5.57089 8.18405C5.10381 8.9917 7.64877 11.3382 11.2557 13.4281C14.8626 15.5182 18.1649 16.5574 18.632 15.7496ZM5.88064 8.49557C5.81157 8.33184 5.95734 8.29243 5.95734 8.29243C6.6027 8.17056 7.50918 8.44829 7.50918 8.44829C9.97528 9.00984 14.3727 11.7643 14.3727 11.7643C17.7584 14.1336 18.2776 15.177 18.3555 15.4733C18.3634 15.5036 18.3603 15.5359 18.3468 15.5641C18.3332 15.5926 18.3101 15.6152 18.2816 15.6281C17.9284 15.7897 16.9829 15.5489 16.9829 15.5489C14.0686 14.7676 11.7378 13.3358 11.7378 13.3358C9.6436 12.2063 7.57283 10.4683 7.57283 10.4683C5.99934 9.14347 5.88112 8.49739 5.88112 8.49739L5.88064 8.49557Z" fill="white"/>
<path d="M12.0833 12.8346C12.5736 12.8346 12.9712 12.437 12.9712 11.9466C12.9712 11.4562 12.5736 11.0586 12.0833 11.0586C11.5928 11.0586 11.1953 11.4562 11.1953 11.9466C11.1953 12.437 11.5928 12.8346 12.0833 12.8346Z" fill="white"/>
<path d="M15.7259 9.06946C16.0103 9.06946 16.241 8.83095 16.241 8.53666C16.241 8.24242 16.0103 8.00391 15.7259 8.00391C15.4414 8.00391 15.2109 8.24242 15.2109 8.53666C15.2109 8.83095 15.4414 9.06946 15.7259 9.06946Z" fill="white"/>
<path d="M7.27285 10.882C7.5573 10.882 7.78789 10.6434 7.78789 10.3492C7.78789 10.055 7.5573 9.81641 7.27285 9.81641C6.9884 9.81641 6.75781 10.055 6.75781 10.3492C6.75781 10.6434 6.9884 10.882 7.27285 10.882Z" fill="white"/>
<path d="M11.0385 17.4172C11.3229 17.4172 11.5536 17.1787 11.5536 16.8844C11.5536 16.5901 11.3229 16.3516 11.0385 16.3516C10.754 16.3516 10.5234 16.5901 10.5234 16.8844C10.5234 17.1787 10.754 17.4172 11.0385 17.4172Z" fill="white"/>
</g>
</svg>
