<svg width="24" height="24" viewBox="0 0 24 24" fill="none" xmlns="http://www.w3.org/2000/svg">
<g clip-path="url(#clip0_8898_6724)">
<rect width="24" height="24" fill="#52F2B9"/>
<circle cx="12" cy="12" r="12" fill="#52F2B9"/>
<path d="M11.9994 7.35614C13.5222 7.35614 14.7566 6.60484 14.7566 5.67807C14.7566 4.7513 13.5222 4 11.9994 4C10.4766 4 9.24219 4.7513 9.24219 5.67807C9.24219 6.60484 10.4766 7.35614 11.9994 7.35614Z" fill="#0F0F0F"/>
<path d="M11.9994 20.0007C13.5222 20.0007 14.7566 19.2494 14.7566 18.3226C14.7566 17.3958 13.5222 16.6445 11.9994 16.6445C10.4766 16.6445 9.24219 17.3958 9.24219 18.3226C9.24219 19.2494 10.4766 20.0007 11.9994 20.0007Z" fill="#0F0F0F"/>
<path d="M8.1579 9.68055C8.91928 8.30058 8.91434 6.806 8.14686 6.3423C7.37938 5.8786 6.13999 6.62138 5.37861 8.00135C4.61722 9.38132 4.62217 10.8759 5.38965 11.3396C6.15713 11.8033 7.39652 11.0605 8.1579 9.68055Z" fill="#0F0F0F"/>
<path d="M18.617 15.9997C19.3783 14.6198 19.3738 13.1254 18.6069 12.662C17.8399 12.1987 16.6009 12.9417 15.8395 14.3217C15.0782 15.7016 15.0827 17.196 15.8496 17.6593C16.6166 18.1227 17.8556 17.3797 18.617 15.9997Z" fill="#0F0F0F"/>
<path d="M8.14686 17.6577C8.91434 17.194 8.91928 15.6994 8.1579 14.3194C7.39652 12.9395 6.15713 12.1967 5.38965 12.6604C4.62217 13.1241 4.61722 14.6187 5.37861 15.9987C6.13999 17.3786 7.37938 18.1214 8.14686 17.6577Z" fill="#0F0F0F"/>
<path d="M18.6147 11.338C19.3816 10.8746 19.3862 9.38024 18.6248 8.00027C17.8634 6.6203 16.6244 5.87727 15.8575 6.34065C15.0905 6.80404 15.086 8.29837 15.8474 9.67834C16.6087 11.0583 17.8477 11.8013 18.6147 11.338Z" fill="#0F0F0F"/>
</g>
<defs>
<clipPath id="clip0_8898_6724">
<rect width="24" height="24" fill="white"/>
</clipPath>
</defs>
</svg>
