<svg width="240" height="240" viewBox="0 0 240 240" fill="none" xmlns="http://www.w3.org/2000/svg">
<rect width="240" height="240" rx="120" fill="#E50571"/>
<path fill-rule="evenodd" clip-rule="evenodd" d="M120 45.091C78.6289 45.091 45.091 78.6289 45.091 120C45.091 161.372 78.6289 194.909 120 194.909C161.371 194.909 194.909 161.372 194.909 120C194.909 78.6289 161.371 45.091 120 45.091ZM40 120C40 75.8172 75.8172 40 120 40C164.183 40 200 75.8172 200 120C200 164.183 164.183 200 120 200C75.8172 200 40 164.183 40 120Z" fill="white"/>
<path fill-rule="evenodd" clip-rule="evenodd" d="M152.052 100.647L131.567 99.7983L145.479 84.7311L139.882 79.1334L124.797 93.0179L123.98 72.5264H116.063L115.215 93.0109L100.148 79.0988L94.5494 84.697L108.435 99.7813L87.9424 100.599V108.515L108.428 109.364L94.5154 124.431L100.114 130.03L114.966 116.357L115.612 149.543L103.764 150.41V157.783L115.791 158.696L116.015 170.223H123.932L124.165 158.713L136.317 157.791V150.418L124.35 149.543L125.021 116.373L139.847 130.063L145.446 124.465L131.561 109.381L152.052 108.563V100.647Z" fill="white"/>
</svg>
