<svg width="240" height="240" viewBox="0 0 240 240" fill="none" xmlns="http://www.w3.org/2000/svg">
<rect width="240" height="240" rx="120" fill="#E50571"/>
<path fill-rule="evenodd" clip-rule="evenodd" d="M168.724 59.889C176.834 65.7802 181.339 71.0724 182.741 76.3645C183.642 79.36 182.841 82.9547 180.839 85.6507C178.836 88.3466 175.633 89.8444 171.928 89.8444C170.527 89.8444 169.022 89.6296 167.622 89.2307C168.046 88.0956 168.515 86.9221 169.023 85.7486C169.424 85.8484 169.925 85.8484 170.425 85.8484C171.626 85.8484 173.028 85.6487 174.13 84.75C174.93 84.151 175.832 83.0526 175.732 81.0556C175.732 79.1584 174.23 76.762 171.126 73.8663C168.924 71.7694 165.92 69.4728 162.917 67.3759C154.306 61.6844 148.299 60.0868 145.596 62.7828C143.794 64.5801 143.994 66.7769 144.595 68.3745C143.341 69.1951 142.164 69.9239 141.087 70.567C138.491 66.6774 138.357 61.9858 140.591 57.7921C141.992 55.0961 144.195 53.2988 146.698 52.7995C147.699 52.5998 148.7 52.5 149.802 52.5C155.308 52.5 162.216 55.196 168.724 59.889ZM140.351 74.4223C143.554 72.7248 148.199 69.7723 153.505 65.5786C155.508 66.3774 158.111 67.7753 161.315 69.8722C165.119 72.3685 168.423 75.1644 170.526 77.3611C167.027 81.9464 164.726 88.2235 163.324 92.6159C170.916 102.546 175.431 114.942 175.431 128.387C175.431 161.038 148.9 187.499 116.162 187.499C83.4229 187.499 56.8916 161.038 56.8916 128.387C56.8916 95.7356 83.4229 69.275 116.162 69.275C124.758 69.275 132.939 71.1107 140.325 74.4118L140.351 74.4223ZM116.162 184.204C85.2251 184.204 60.1955 159.241 60.1955 128.387C60.1955 97.5329 85.2251 72.57 116.162 72.57C147.098 72.57 172.128 97.5329 172.128 128.387C172.128 159.241 146.998 184.204 116.162 184.204ZM172.828 81.1554C172.828 80.8558 172.728 80.3566 172.428 79.8574C171.727 80.8559 171.026 81.8544 170.425 83.0526C171.126 83.0526 171.927 82.8529 172.327 82.5534C172.528 82.3536 172.828 82.0541 172.828 81.1554ZM150.102 64.6799C148.8 64.4802 147.999 64.6799 147.699 64.9795C147.098 65.4788 146.998 66.1777 147.098 66.8766C148.099 66.1777 149.1 65.4787 150.102 64.6799ZM144.494 117.603C158.611 118.8 169.323 121.794 169.323 127.885C169.323 157.141 145.495 180.906 116.161 180.906C87.0969 180.906 63.3402 157.578 62.9038 128.694C62.8997 128.591 62.8976 128.489 62.8976 128.386C62.8976 128.336 62.898 128.286 62.8988 128.236C62.8981 128.119 62.8977 128.002 62.8977 127.885H62.9116C63.293 121.207 71.463 121.437 86.0249 123.094C92.7329 123.893 101.944 124.392 112.156 121.397C123.97 117.802 134.282 116.803 144.494 117.603ZM113.309 125.256L113.29 125.262C102.332 128.476 92.5048 127.921 85.5592 127.095C77.9638 126.231 72.774 125.853 69.5133 126.383C67.9363 126.64 67.371 127.032 67.2077 127.189L67.2024 127.194C67.1523 127.24 66.9256 127.447 66.9256 128.386C66.9256 129.596 67.5674 131.41 69.6259 133.567C71.6515 135.691 74.8051 137.868 79.0772 139.699C87.5993 143.353 100.108 145.427 115.395 143.27C126.74 141.653 133.779 138.902 140.657 136.214C143.259 135.197 145.837 134.189 148.617 133.255L148.629 133.251L148.641 133.247C151.381 132.345 154.009 131.684 156.328 131.126C156.745 131.025 157.149 130.929 157.539 130.836L157.571 130.828L157.58 130.826C159.401 130.392 160.93 130.027 162.261 129.624C163.929 129.118 164.762 128.695 165.144 128.391C165.163 128.375 165.18 128.361 165.194 128.349C165.169 127.965 164.741 126.55 160.644 124.894C156.771 123.329 151.052 122.202 144.166 121.617C134.478 120.861 124.674 121.798 113.328 125.25L113.309 125.256ZM133.582 103.225C138.559 103.225 142.592 99.2014 142.592 94.2382C142.592 89.2751 138.559 85.2517 133.582 85.2517C128.606 85.2517 124.571 89.2751 124.571 94.2382C124.571 99.2014 128.606 103.225 133.582 103.225ZM152.104 106.124C152.104 108.22 150.4 109.919 148.299 109.919C146.198 109.919 144.495 108.22 144.495 106.124C144.495 104.029 146.198 102.33 148.299 102.33C150.4 102.33 152.104 104.029 152.104 106.124Z" fill="white"/>
</svg>
