<svg width="24" height="24" viewBox="0 0 24 24" fill="none" xmlns="http://www.w3.org/2000/svg">
<g clipPath="url(#clip0_2323_13924)">
<mask id="mask0_2323_13924" style="mask-type:alpha" maskUnits="userSpaceOnUse" x="0" y="0" width="24" height="24">
<path d="M12 24C18.6274 24 24 18.6274 24 12C24 5.37259 18.6274 0 12 0C5.37259 0 0 5.37259 0 12C0 18.6274 5.37259 24 12 24Z" fill="#D9D9D9"/>
</mask>
<g mask="url(#mask0_2323_13924)">
<path d="M24 0H0V24H24V0Z" fill="#E50571"/>
<path d="M12.3802 18.0596C10.8848 18.0596 9.65914 17.7275 8.70327 17.0631C7.82545 16.453 7.26615 15.6026 7.02548 14.5122C6.98871 14.3455 7.09249 14.1832 7.25367 14.1404L9.32266 13.5913C9.50117 13.544 9.68031 13.6608 9.73018 13.843C9.83833 14.2383 9.98933 14.5604 10.1834 14.8091C10.4453 15.1254 10.7614 15.3548 11.1314 15.4971C11.5169 15.6237 11.9331 15.6869 12.3802 15.6869C13.0586 15.6869 13.5596 15.5683 13.8834 15.331C14.2071 15.078 14.369 14.7695 14.369 14.4058C14.369 14.042 14.2148 13.7652 13.9065 13.5753C13.5981 13.3697 13.1048 13.2036 12.4265 13.077L11.779 12.9584C10.9772 12.8003 10.245 12.5867 9.58205 12.3179C8.91908 12.0331 8.38724 11.6455 7.98639 11.1552C7.58559 10.6649 7.38519 10.0321 7.38519 9.2571C7.38519 8.08657 7.8014 7.19291 8.63391 6.57596C9.46647 5.94327 10.561 5.62695 11.9177 5.62695C13.1973 5.62695 14.261 5.91956 15.109 6.50478C15.8637 7.02572 16.3864 7.69071 16.6769 8.49985C16.7373 8.66795 16.6407 8.84838 16.4738 8.90103L14.4046 9.55431C14.2241 9.61129 14.0371 9.49566 13.9758 9.3123C13.8351 8.89138 13.6115 8.58035 13.3052 8.37922C12.9352 8.12612 12.4727 7.99959 11.9177 7.99959C11.3627 7.99959 10.9387 8.10241 10.6458 8.30804C10.3529 8.49783 10.2064 8.76673 10.2064 9.11478C10.2064 9.49436 10.3606 9.7791 10.669 9.96889C10.9772 10.1428 11.3934 10.2773 11.9177 10.3722L12.5652 10.4908C13.4285 10.649 14.2071 10.8625 14.9009 11.1314C15.61 11.3846 16.1651 11.7563 16.5659 12.2466C16.9821 12.7212 17.1903 13.3697 17.1903 14.1923C17.1903 15.426 16.7509 16.3829 15.8721 17.0631C15.0088 17.7275 13.8448 18.0596 12.3802 18.0596Z" fill="white"/>
</g>
</g>
<defs>
<clipPath id="clip0_2323_13924">
<rect width="24" height="24" fill="white"/>
</clipPath>
</defs>
</svg>
