<svg width="17" height="16" viewBox="0 0 17 16" fill="none" xmlns="http://www.w3.org/2000/svg">
<path d="M5.4018 4.80212C3.03324 5.34586 1.26667 7.46679 1.26667 10.0003C1.26667 12.9458 3.65448 15.3337 6.6 15.3337C9.13354 15.3337 11.2545 13.5671 11.7982 11.1985C11.8866 10.8134 11.9333 10.4123 11.9333 10.0003C11.9333 7.05481 9.54552 4.66699 6.6 4.66699C6.18802 4.66699 5.78695 4.71371 5.4018 4.80212Z" />
<path d="M5.96292 3.36371C6.17261 3.34383 6.38512 3.33366 6.6 3.33366C10.2819 3.33366 13.2667 6.31843 13.2667 10.0003C13.2667 10.2152 13.2565 10.4277 13.2366 10.6374C14.8473 9.7196 15.9333 7.98679 15.9333 6.00033C15.9333 3.05481 13.5455 0.666992 10.6 0.666992C8.61354 0.666992 6.88073 1.75301 5.96292 3.36371Z" />
</svg>
