<svg width="24" height="24" viewBox="0 0 24 24" fill="none" xmlns="http://www.w3.org/2000/svg">
<path fill-rule="evenodd" clip-rule="evenodd" d="M18.8022 13.3725C19.0305 13.8693 19.7026 14.0448 20.0894 13.6582L20.7977 12.9502C21.5302 12.218 22.718 12.218 23.4506 12.9502C24.1831 13.6825 24.1831 14.8697 23.4506 15.6019L17.7248 21.3251C16.3483 22.9607 14.2857 24 11.9801 24C9.57815 24 7.43982 22.8719 6.06644 21.117L0.549437 15.6025C-0.183145 14.8703 -0.183146 13.6831 0.549437 12.9508C1.28202 12.2186 2.46977 12.2186 3.20235 12.9508L3.90048 13.6486C4.27869 14.0267 4.93529 13.8566 5.15868 13.3709C5.20281 13.2749 5.22681 13.1718 5.22681 13.0662V4.49994C5.22681 3.46439 6.06668 2.62491 7.10268 2.62491C8.13873 2.62491 8.97859 3.46439 8.97859 4.49994V8.83359C8.97859 9.20639 9.36063 9.45942 9.71625 9.34707C9.94131 9.27597 10.1039 9.07113 10.1039 8.83525V1.87503C10.1039 0.839481 10.9437 2.71439e-07 11.9798 0C13.0158 -2.71439e-07 13.8557 0.839481 13.8557 1.87503V8.83505C13.8557 9.071 14.0183 9.27577 14.2433 9.34688C14.599 9.45916 14.9809 9.20619 14.9809 8.83339V4.49994C14.9809 3.46439 15.8208 2.62491 16.8568 2.62491C17.8929 2.62491 18.7327 3.46439 18.7327 4.49994V13.0617C18.7327 13.1695 18.7572 13.2745 18.8022 13.3725Z" fill="#FD4848"/>
<path d="M17.9823 17.25C17.9823 17.25 15.2947 21.0001 11.9794 21.0001C8.66412 21.0001 5.97656 17.25 5.97656 17.25C5.97656 17.25 8.66412 13.5 11.9794 13.5C15.2947 13.5 17.9823 17.25 17.9823 17.25Z" fill="#D5FF5C"/>
<path d="M14.7908 17.2496C14.7908 18.8026 13.5312 20.0616 11.9774 20.0616C10.4237 20.0616 9.16406 18.8026 9.16406 17.2496C9.16406 15.6965 10.4237 14.4375 11.9774 14.4375C13.5312 14.4375 14.7908 15.6965 14.7908 17.2496Z" stroke="#FD4848" stroke-width="0.5679"/>
<path d="M13.6647 17.2495C13.6647 18.1812 12.909 18.9365 11.9769 18.9365C11.0447 18.9365 10.2891 18.1812 10.2891 17.2495C10.2891 16.3178 11.0447 15.5625 11.9769 15.5625C12.909 15.5625 13.6647 16.3178 13.6647 17.2495Z" stroke="#FD4848" stroke-width="0.5679"/>
<path d="M15.9168 17.2496C15.9168 19.424 14.1533 21.1867 11.9779 21.1867C9.80257 21.1867 8.03906 19.424 8.03906 17.2496C8.03906 15.0752 9.80257 13.3125 11.9779 13.3125C14.1533 13.3125 15.9168 15.0752 15.9168 17.2496Z" stroke="#FD4848" stroke-width="0.5679"/>
<path d="M17.0429 17.2496C17.0429 20.0453 14.7755 22.3117 11.9785 22.3117C9.18148 22.3117 6.91406 20.0453 6.91406 17.2496C6.91406 14.4539 9.18148 12.1875 11.9785 12.1875C14.7755 12.1875 17.0429 14.4539 17.0429 17.2496Z" stroke="#FD4848" stroke-width="0.5679"/>
<path d="M12.5381 17.2495C12.5381 17.5599 12.2865 17.8115 11.9761 17.8115C11.6657 17.8115 11.4141 17.5599 11.4141 17.2495C11.4141 16.9391 11.6657 16.6875 11.9761 16.6875C12.2865 16.6875 12.5381 16.9391 12.5381 17.2495Z" fill="#162BEB" stroke="#FD4848" stroke-width="0.5679"/>
<path d="M11.9766 18C12.3908 18 12.7266 17.6642 12.7266 17.25C12.7266 16.8358 12.3908 16.5 11.9766 16.5C11.5624 16.5 11.2266 16.8358 11.2266 17.25C11.2266 17.6642 11.5624 18 11.9766 18Z" fill="#FD4848"/>
<path d="M6.24621 17.2952C6.23344 17.2788 6.22168 17.2636 6.21094 17.2496C6.22168 17.2356 6.23344 17.2204 6.24621 17.204C6.32446 17.1037 6.4404 16.9597 6.59 16.7865C6.88944 16.44 7.32249 15.9782 7.857 15.5169C8.93193 14.5892 10.3892 13.6875 11.9788 13.6875C13.5683 13.6875 15.0256 14.5892 16.1005 15.5169C16.635 15.9782 17.0682 16.44 17.3676 16.7865C17.5172 16.9597 17.6331 17.1037 17.7114 17.204C17.7241 17.2204 17.7359 17.2356 17.7467 17.2496C17.7359 17.2636 17.7241 17.2788 17.7114 17.2952C17.6331 17.3955 17.5172 17.5395 17.3676 17.7127C17.0682 18.0592 16.635 18.521 16.1005 18.9823C15.0256 19.91 13.5683 20.8117 11.9788 20.8117C10.3892 20.8117 8.93193 19.91 7.85707 18.9823C7.32249 18.521 6.88944 18.0592 6.59 17.7127C6.4404 17.5395 6.32447 17.3955 6.24621 17.2952Z" stroke="#D5FF5C" stroke-width="0.5679"/>
</svg>
