<svg width="16" height="16" viewBox="0 0 16 16" fill="none" xmlns="http://www.w3.org/2000/svg">
<path fill-rule="evenodd" clip-rule="evenodd" d="M5.99999 5.33366C5.99999 2.75633 8.08932 0.666992 10.6667 0.666992C11.2157 0.666992 11.744 0.762102 12.2351 0.937306C12.4504 1.01411 12.6113 1.19585 12.6615 1.41884C12.7117 1.64183 12.6441 1.87499 12.4825 2.03661L10.9868 3.54818C10.7747 3.76255 10.6686 3.86973 10.6186 3.98849C10.5485 4.15506 10.5491 4.34294 10.6201 4.5091C10.6707 4.62757 10.7774 4.73416 10.9907 4.94733C11.2045 5.16089 11.3113 5.26768 11.43 5.31824C11.5965 5.38915 11.7847 5.38934 11.9513 5.31877C12.0701 5.26845 12.1772 5.16188 12.3914 4.94875L13.9274 3.42013C14.0868 3.2607 14.316 3.19266 14.5366 3.23926C14.7572 3.28587 14.9393 3.44081 15.0206 3.6511C15.2228 4.17397 15.3333 4.74169 15.3333 5.33366C15.3333 7.91099 13.244 10.0003 10.6667 10.0003C10.2857 10.0003 9.91459 9.95454 9.55881 9.86788C9.3901 9.82678 9.28342 9.80092 9.20546 9.78525C9.19103 9.78235 9.17923 9.78016 9.16978 9.77852C9.16729 9.78072 9.16456 9.78315 9.16159 9.78583C9.12017 9.82324 9.06581 9.87731 8.96994 9.97318L4.80473 14.1384C3.99209 14.951 2.67455 14.951 1.86192 14.1384C1.04928 13.3258 1.04928 12.0082 1.86192 11.1956L6.02713 7.03038C6.123 6.9345 6.17707 6.88015 6.21448 6.83872C6.2249 6.82719 6.21897 6.81428 6.21506 6.79486C6.19939 6.7169 6.17354 6.61022 6.13244 6.4415C6.04577 6.08573 5.99999 5.71459 5.99999 5.33366Z" />
</svg>
