<svg width="16" height="16" viewBox="0 0 16 16" fill="none" xmlns="http://www.w3.org/2000/svg">
<path d="M11.1381 1.52864C10.8777 1.26829 10.4556 1.26829 10.1953 1.52864C9.93491 1.78899 9.93491 2.2111 10.1953 2.47145L11.7239 4.00004L2.66667 4.00004C2.29848 4.00004 2 4.29852 2 4.66671C2 5.0349 2.29848 5.33337 2.66667 5.33337L11.7239 5.33337L10.1953 6.86197C9.93491 7.12232 9.93491 7.54443 10.1953 7.80478C10.4556 8.06513 10.8777 8.06513 11.1381 7.80478L13.8047 5.13811C14.0651 4.87776 14.0651 4.45565 13.8047 4.1953L11.1381 1.52864Z" fill="white"/>
<path d="M5.80474 9.13811C6.06509 8.87776 6.06509 8.45565 5.80474 8.1953C5.54439 7.93495 5.12228 7.93495 4.86193 8.1953L2.19526 10.862C1.93491 11.1223 1.93491 11.5444 2.19526 11.8048L4.86193 14.4714C5.12228 14.7318 5.54439 14.7318 5.80474 14.4714C6.06509 14.2111 6.06509 13.789 5.80474 13.5286L4.27614 12H13.3333C13.7015 12 14 11.7016 14 11.3334C14 10.9652 13.7015 10.6667 13.3333 10.6667L4.27614 10.6667L5.80474 9.13811Z" fill="white"/>
</svg>
