<svg id="Layer_1" xmlns="http://www.w3.org/2000/svg" xmlns:xlink="http://www.w3.org/1999/xlink"
    viewBox="0 0 991.8 863">
    <defs>
       
        <linearGradient id="linear-gradient" x1="-76.3" y1="812.7" x2="1190.6" y2="150.2"
            gradientTransform="translate(0 -202)" gradientUnits="userSpaceOnUse">
            <stop offset="0" stop-color="#ffa4ff" />
            <stop offset="0" stop-color="#f8a6ff" />
            <stop offset=".2" stop-color="#dbb1ff" />
            <stop offset=".4" stop-color="#d1b6ff" />
            <stop offset=".9" stop-color="#00ffe5" />
        </linearGradient>
        <linearGradient id="linear-gradient-2" x1="440.7" y1="605" x2="571.2" y2="126.3"
            gradientTransform="translate(0 -202)" gradientUnits="userSpaceOnUse">
            <stop offset="0" stop-color="#16173e" stop-opacity=".3" />
            <stop offset=".3" stop-color="#16173e" stop-opacity=".2" />
            <stop offset=".9" stop-color="#16173e" stop-opacity="0" />
        </linearGradient>
        <linearGradient id="linear-gradient-3" x1="-34.3" y1="848.6" x2="1102" y2="345.7"
            gradientTransform="translate(0 -202)" gradientUnits="userSpaceOnUse">
            <stop offset="0" stop-color="#ffa4ff" />
            <stop offset="0" stop-color="#f8a6ff" />
            <stop offset=".2" stop-color="#dbb1ff" />
            <stop offset=".4" stop-color="#d1b6ff" />
            <stop offset=".9" stop-color="#00ffe5" />
        </linearGradient>
        <linearGradient id="linear-gradient-4" x1="382.2" y1="739.4" x2="556.3" y2="381.6"
            gradientTransform="translate(0 -202)" gradientUnits="userSpaceOnUse">
            <stop offset="0" stop-color="#16173e" stop-opacity=".3" />
            <stop offset=".3" stop-color="#16173e" stop-opacity=".2" />
            <stop offset=".9" stop-color="#16173e" stop-opacity="0" />
        </linearGradient>
        <linearGradient id="linear-gradient-5" x1="-83" y1="921" x2="937.3" y2="529.3"
            gradientTransform="translate(0 -202)" gradientUnits="userSpaceOnUse">
            <stop offset="0" stop-color="#ffa4ff" />
            <stop offset="0" stop-color="#f8a6ff" />
            <stop offset=".2" stop-color="#dbb1ff" />
            <stop offset=".4" stop-color="#d1b6ff" />
            <stop offset=".9" stop-color="#00ffe5" />
        </linearGradient>
    </defs>
    <path class="cls-1" style="fill:url(#linear-gradient)"
        d="M.4,16.7V312c2.2,262.8,223.2,487.5,495.7,487.5s493.6-212.5,495.6-475.3v-12.2c0,0,0-295.3,0-295.3,0,0-68.7-33.5-147,46.4-50.2,51.4-90.4,235.8-197.9,237.5-143.5,2.2-241.2-188.6-358-259.9C166.9-33.7,.4,16.7,.4,16.7Z" />
    <path class="cls-4" style="fill:url(#linear-gradient-2)"
        d="M.4,16.7V312c2.2,262.8,223.2,487.5,495.7,487.5s493.6-212.5,495.6-475.3v-12.2c0,0,0-295.3,0-295.3,0,0-68.7-33.5-147,46.4-50.2,51.4-90.4,235.8-197.9,237.5-143.5,2.2-241.2-188.6-358-259.9C166.9-33.7,.4,16.7,.4,16.7Z" />
    <path class="cls-2" style="fill:url(#linear-gradient-3)"
        d="M991.7,354.6v-13c0,0,0-200.7,0-200.7-28,4.7-62.4,18.3-98.8,51.9-56.3,52-101.3,238.6-221.9,240.3-161,2.2-270.6-190.8-401.6-262.9C178.5,120.1,65.6,125.9,0,135.3v206.2c2.2,281.2,223.3,521.5,495.9,521.5s493.7-227.3,495.8-508.4Z" />
    <path class="cls-3" style="fill:url(#linear-gradient-4)"
        d="M991.7,354.6v-13c0,0,0-200.7,0-200.7-28,4.7-62.4,18.3-98.8,51.9-56.3,52-101.3,238.6-221.9,240.3-161,2.2-270.6-190.8-401.6-262.9C178.5,120.1,65.6,125.9,0,135.3v206.2c2.2,281.2,223.3,521.5,495.9,521.5s493.7-227.3,495.8-508.4Z" />
    <path class="cls-5" style="fill:url(#linear-gradient-5)"
        d="M991.7,354.6v-13c0,0,0-35.4,0-35.4-21.4,8.2-44.8,21.3-68.9,42-60.6,52-109.1,238.6-238.9,240.3-173.3,2.2-291.3-190.8-432.3-262.9C169.8,283.7,71.3,280.9,0,286.6v55.1c2.2,281,223.3,521.3,495.9,521.3s493.8-227.3,495.8-508.4h0Z" />
</svg>