<svg width="10" height="16" viewBox="0 0 10 16" fill="none" xmlns="http://www.w3.org/2000/svg">
<path id="Solid" fill-rule="evenodd" clip-rule="evenodd" d="M5.51986 1.33329C5.51986 0.965103 5.22138 0.666626 4.85319 0.666626C4.485 0.666626 4.18652 0.965103 4.18652 1.33329V1.99996H3.51986C1.67891 1.99996 0.186523 3.49234 0.186523 5.33329C0.186523 7.17424 1.67891 8.66663 3.51986 8.66663H4.18652V12.6666H3.51986C2.41529 12.6666 1.51986 11.7712 1.51986 10.6666C1.51986 10.2984 1.22138 9.99996 0.85319 9.99996C0.485 9.99996 0.186523 10.2984 0.186523 10.6666C0.186523 12.5076 1.67891 14 3.51986 14H4.18652V14.6666C4.18652 15.0348 4.485 15.3333 4.85319 15.3333C5.22138 15.3333 5.51986 15.0348 5.51986 14.6666V14H6.18652C8.02747 14 9.51986 12.5076 9.51986 10.6666C9.51986 8.82568 8.02747 7.33329 6.18652 7.33329H5.51986V3.33329H6.18652C7.29109 3.33329 8.18652 4.22872 8.18652 5.33329C8.18652 5.70148 8.485 5.99996 8.85319 5.99996C9.22138 5.99996 9.51986 5.70148 9.51986 5.33329C9.51986 3.49234 8.02747 1.99996 6.18652 1.99996H5.51986V1.33329ZM4.18652 3.33329H3.51986C2.41529 3.33329 1.51986 4.22872 1.51986 5.33329C1.51986 6.43786 2.41529 7.33329 3.51986 7.33329H4.18652V3.33329ZM5.51986 8.66663V12.6666H6.18652C7.29109 12.6666 8.18652 11.7712 8.18652 10.6666C8.18652 9.56206 7.29109 8.66663 6.18652 8.66663H5.51986Z" />
</svg>
