<svg width="24" height="24" viewBox="0 0 24 24" fill="none" xmlns="http://www.w3.org/2000/svg">
<path d="M12 24C14.3734 24 16.6934 23.2962 18.6668 21.9776C20.6402 20.6591 22.1783 18.7849 23.0865 16.5922C23.9948 14.3995 24.2324 11.9867 23.7694 9.65892C23.3064 7.33115 22.1635 5.19295 20.4853 3.51472C18.807 1.83649 16.6689 0.693604 14.3411 0.230582C12.0133 -0.232441 9.60051 0.00519937 7.4078 0.913451C5.21508 1.8217 3.34094 3.35977 2.02237 5.33316C0.703789 7.30655 0 9.62663 0 12C1.4421e-05 15.1826 1.2643 18.2348 3.51473 20.4853C5.76517 22.7357 8.8174 24 12 24Z" fill="#26A17B"/>
<path d="M13.3574 13.0759V13.074C13.2745 13.0798 12.8463 13.1047 11.8932 13.1047C11.131 13.1047 10.5966 13.0836 10.4076 13.074V13.0759C7.47702 12.9467 5.29133 12.4372 5.29133 11.8256C5.29133 11.2161 7.47908 10.7047 10.4076 10.5756V12.5685C10.5987 12.582 11.1485 12.6148 11.9067 12.6148C12.8172 12.6148 13.2726 12.5762 13.3574 12.5685V10.5774C16.2822 10.7087 18.4623 11.2179 18.4623 11.8277C18.4623 12.4372 16.2803 12.9467 13.3574 13.0777V13.0759ZM13.3574 10.371V8.58843H17.438V5.87006H6.32915V8.58843H10.4095V10.371C7.09321 10.5234 4.60059 11.1795 4.60059 11.9666C4.60059 12.7537 7.09509 13.4096 10.4095 13.5639V19.2784H13.3595V13.5639C16.67 13.4115 19.1588 12.7556 19.1588 11.9685C19.1588 11.1832 16.67 10.5253 13.3595 10.3731" fill="white"/>
</svg>
