<svg width="40" height="41" viewBox="0 0 40 41" fill="none" xmlns="http://www.w3.org/2000/svg">
  <rect y="0.916199" width="40" height="40" rx="20" fill="white"/>
  <path fill-rule="evenodd" clip-rule="evenodd"
        d="M24.6566 10.5571C24.6566 12.0846 22.5273 13.323 19.9008 13.323C17.2743 13.323 15.1451 12.0846 15.1451 10.5571C15.1451 9.02948 17.2743 7.79114 19.9008 7.79114C22.5273 7.79114 24.6566 9.02948 24.6566 10.5571ZM24.6566 31.3978C24.6566 32.9254 22.5273 34.1637 19.9008 34.1637C17.2743 34.1637 15.1451 32.9254 15.1451 31.3978C15.1451 29.8702 17.2743 28.6319 19.9008 28.6319C22.5273 28.6319 24.6566 29.8702 24.6566 31.3978ZM13.2733 17.1517C14.5865 14.8772 14.578 12.4137 13.2542 11.6494C11.9304 10.8851 9.79271 12.1094 8.47946 14.3839C7.1662 16.6585 7.17472 19.122 8.49849 19.8863C9.82227 20.6506 11.96 19.4263 13.2733 17.1517ZM31.3027 22.0694C32.6256 22.8332 32.6334 25.2962 31.3201 27.5708C30.0069 29.8454 27.8699 31.0701 26.547 30.3063C25.2241 29.5425 25.2163 27.0794 26.5296 24.8049C27.8428 22.5303 29.9798 21.3056 31.3027 22.0694ZM13.2551 30.3056C14.5789 29.5413 14.5874 27.0778 13.2741 24.8032C11.9609 22.5286 9.82312 21.3043 8.49935 22.0686C7.17558 22.8329 7.16706 25.2964 8.48031 27.571C9.79357 29.8456 11.9313 31.0699 13.2551 30.3056ZM31.3213 14.3854C32.6345 16.66 32.6267 19.123 31.3039 19.8868C29.981 20.6506 27.844 19.4259 26.5307 17.1513C25.2175 14.8768 25.2253 12.4137 26.5481 11.6499C27.871 10.8861 30.008 12.1109 31.3213 14.3854Z"
        fill="#E6007A"/>
  <circle cx="20" cy="20.9162" r="18.75" stroke="url(#paint0_linear_14127_156919)" stroke-width="2.5"/>
  <defs>
    <linearGradient id="paint0_linear_14127_156919" x1="20.0001" y1="0.916199" x2="20.0001" y2="40.9162"
                    gradientUnits="userSpaceOnUse">
      <stop stop-color="#7AEDCF"/>
      <stop offset="0.201333" stop-color="#68CEFA"/>
      <stop offset="0.403244" stop-color="#689CF8"/>
      <stop offset="0.602076" stop-color="#AC57C0"/>
      <stop offset="0.801867" stop-color="#E65659"/>
      <stop offset="1" stop-color="#F2C241"/>
    </linearGradient>
  </defs>
</svg>
