	<svg width="40" height="40" viewBox="0 0 40 40" fill="none" xmlns="http://www.w3.org/2000/svg" >
		<path
			d="M0 20C0 8.95431 8.95431 0 20 0C31.0457 0 40 8.95431 40 20C40 31.0457 31.0457 40 20 40C8.95431 40 0 31.0457 0 20Z"
			fill="white"
		/>
		<path
			d="M32.1349 12.7447C31.7228 12.4314 31.2264 12.0009 30.3305 11.8885C29.4848 11.7822 28.6279 12.3274 28.0471 12.6893C27.4663 13.0504 26.3676 14.1146 25.9109 14.4357C25.455 14.7568 24.2935 15.0579 22.427 16.142C20.5605 17.2262 13.2187 21.7816 13.2187 21.7816L15.1265 21.8016L6.62314 26.0567H7.47364L6.25 26.96C6.25 26.96 7.32804 27.241 8.2406 26.6789L8.24378 26.933C8.24378 26.933 18.3766 23.0676 20.3401 24.0709L19.1491 24.4112C19.2525 24.4112 21.1819 24.5321 21.1819 24.5321C21.1819 24.5321 21.2439 25.6964 22.4055 26.4387C23.5671 27.181 23.5878 27.5829 23.5878 27.5829C23.5878 27.5829 22.9863 27.8239 22.9863 28.125C22.9863 28.125 23.8782 27.864 24.708 27.884C25.5378 27.904 26.2634 28.125 26.2634 28.125C26.2634 28.125 26.2013 27.8039 25.3922 27.5829C24.5839 27.3627 23.7954 26.5195 23.4008 26.0575C23.007 25.5955 22.742 24.7731 23.0714 23.95C23.3515 23.2516 24.3205 22.865 26.3246 21.8625C28.69 20.6805 29.2286 19.795 29.5604 19.1128C29.8921 18.4305 30.3902 17.0653 30.6647 16.4231C31.0163 15.6 31.4475 15.1587 31.8 14.8977C32.1524 14.6367 33.75 14.0545 33.75 14.0545C33.75 14.0545 32.5319 13.0458 32.1349 12.7447Z"
			fill="#1B2026"
		/>
		<circle cx="20" cy="20" r="18.75" stroke="url(#paint0_linear_14339_95151)" stroke-width="2.5" />
		<defs>
			<linearGradient
				id="paint0_linear_14339_95151"
				x1="20.0001"
				y1="0"
				x2="20.0001"
				y2="40"
				gradientUnits="userSpaceOnUse">
				<stop stop-color="#7AEDCF" />
				<stop offset="0.201333" stop-color="#68CEFA" />
				<stop offset="0.403244" stop-color="#689CF8" />
				<stop offset="0.602076" stop-color="#AC57C0" />
				<stop offset="0.801867" stop-color="#E65659" />
				<stop offset="1" stop-color="#F2C241" />
			</linearGradient>
		</defs>
	</svg>