<svg width="44" height="45" viewBox="0 0 44 45" fill="none" xmlns="http://www.w3.org/2000/svg">
<path fill-rule="evenodd" clip-rule="evenodd" d="M22 0.5C9.84974 0.5 0 10.3497 0 22.5C0 34.6503 9.84974 44.5 22 44.5C34.1503 44.5 44 34.6503 44 22.5C44 10.3497 34.1503 0.5 22 0.5ZM24 14.5C24 13.3954 23.1046 12.5 22 12.5C20.8954 12.5 20 13.3954 20 14.5V22.5C20 23.6046 20.8954 24.5 22 24.5C23.1046 24.5 24 23.6046 24 22.5V14.5ZM22 28.5C20.8954 28.5 20 29.3954 20 30.5C20 31.6046 20.8954 32.5 22 32.5H22.02C23.1246 32.5 24.02 31.6046 24.02 30.5C24.02 29.3954 23.1246 28.5 22.02 28.5H22Z" fill="#FBD634"/>
</svg>
