<svg xmlns="http://www.w3.org/2000/svg" width="896" height="896" viewBox="0 0 896 896" version="1.1"><path d="M 0 448.001 L 0 896.002 448.250 895.751 L 896.500 895.500 896.751 447.750 L 897.002 -0 448.501 -0 L 0 0 0 448.001 M 0.496 448.500 C 0.496 694.900, 0.610 795.551, 0.750 672.168 C 0.890 548.786, 0.890 347.186, 0.750 224.168 C 0.610 101.151, 0.496 202.100, 0.496 448.500 M 283.206 160.612 C 280.358 163.500, 278.683 166.604, 276.698 172.677 C 275.228 177.175, 273.248 185.050, 272.299 190.177 C 271.002 197.186, 270.565 205.084, 270.538 222 C 270.506 242.802, 270.717 245.565, 273.337 258.609 L 276.171 272.717 272.994 279.013 C 271.246 282.475, 268.330 289.851, 266.514 295.404 C 264.699 300.957, 262.246 310.179, 261.064 315.899 C 259.882 321.618, 258.643 329.821, 258.311 334.128 C 257.850 340.102, 257.327 342.068, 256.103 342.422 C 255.222 342.677, 252.250 343.195, 249.500 343.573 C 246.750 343.951, 243.290 344.874, 241.811 345.624 C 240.332 346.375, 238.419 347.991, 237.561 349.217 C 236.702 350.442, 236 352.634, 236 354.088 C 236 355.541, 236.905 357.881, 238.012 359.288 C 239.119 360.695, 241.256 362.090, 242.762 362.388 C 244.268 362.685, 248.425 362.377, 252 361.704 L 258.500 360.479 259.716 367.989 C 260.385 372.120, 261.216 376.693, 261.564 378.152 C 262.053 380.205, 261.778 380.919, 260.348 381.316 C 259.331 381.598, 254.976 382.581, 250.669 383.500 C 245.208 384.666, 241.937 385.978, 239.859 387.836 C 237.757 389.715, 236.852 391.474, 236.786 393.806 C 236.733 395.693, 237.560 398.267, 238.713 399.806 C 240.438 402.104, 241.451 402.493, 245.617 402.450 C 248.303 402.422, 254.015 401.400, 258.311 400.179 C 262.607 398.957, 266.543 398.217, 267.057 398.535 C 267.571 398.853, 269.499 402.375, 271.341 406.363 C 273.184 410.351, 276.336 416.184, 278.346 419.326 C 280.356 422.468, 282 425.283, 282 425.581 C 282 425.880, 277.894 432.912, 272.875 441.207 C 267.856 449.503, 261.851 460.387, 259.531 465.395 C 257.211 470.403, 253.043 480.125, 250.269 487 C 247.495 493.875, 243.867 503.550, 242.206 508.500 C 240.546 513.450, 238.022 521.344, 236.597 526.042 C 235.172 530.740, 232.864 540.415, 231.468 547.542 C 230.073 554.669, 228.271 566.122, 227.465 572.994 C 226.659 579.866, 226.003 592.016, 226.006 599.994 C 226.009 607.972, 226.662 618.775, 227.457 624 C 228.251 629.225, 230.305 638.225, 232.021 644 C 233.736 649.775, 237.105 658.661, 239.506 663.748 C 241.907 668.834, 246.437 676.934, 249.574 681.748 C 252.925 686.889, 259.246 694.419, 264.897 700 C 270.187 705.225, 276.088 710.773, 278.008 712.329 C 279.929 713.884, 284.555 716.711, 288.289 718.610 C 292.022 720.510, 299.089 723.408, 303.993 725.051 C 308.897 726.694, 317.323 728.939, 322.718 730.039 C 332.254 731.984, 335.885 732.032, 453.513 731.770 L 574.500 731.500 583.500 728.693 C 588.450 727.149, 596.355 724.191, 601.066 722.118 C 605.778 720.046, 612.303 716.618, 615.566 714.499 C 618.830 712.381, 626.001 706.115, 631.502 700.574 C 637.080 694.956, 643.950 686.741, 647.033 682 C 650.074 677.325, 653.971 670.800, 655.692 667.500 C 657.414 664.200, 660.438 656.841, 662.413 651.148 C 664.388 645.454, 666.998 636.229, 668.212 630.648 C 670.125 621.857, 670.420 617.490, 670.416 598 C 670.413 581.885, 669.938 572.512, 668.743 564.971 C 667.825 559.179, 665.691 548.604, 663.999 541.471 C 662.308 534.337, 658.905 522.251, 656.438 514.612 C 653.970 506.974, 650.109 495.949, 647.858 490.112 C 645.607 484.276, 640.483 472.750, 636.473 464.500 C 632.462 456.250, 625.775 444.128, 621.612 437.561 L 614.043 425.622 616.099 422.561 C 617.230 420.878, 620.439 414.775, 623.231 409 C 626.023 403.225, 628.454 398.321, 628.634 398.102 C 628.814 397.884, 633.395 398.896, 638.814 400.352 C 644.233 401.809, 649.841 403, 651.277 403 C 652.713 403, 655.084 401.972, 656.544 400.716 C 658.546 398.993, 659.200 397.502, 659.200 394.655 C 659.200 392.424, 658.465 390.066, 657.403 388.893 C 656.414 387.800, 654.232 386.288, 652.553 385.533 C 650.874 384.777, 646.068 383.379, 641.873 382.426 L 634.246 380.692 635.045 377.596 C 635.484 375.893, 636.369 371.238, 637.012 367.250 C 637.655 363.262, 638.481 360, 638.847 360 C 639.213 360, 641.085 360.460, 643.007 361.022 C 644.928 361.585, 648.498 362.094, 650.939 362.153 C 654.591 362.242, 655.789 361.785, 657.689 359.575 C 658.960 358.097, 660 355.664, 660 354.167 C 660 352.670, 659.298 350.442, 658.439 349.217 C 657.581 347.991, 655.628 346.342, 654.100 345.551 C 652.571 344.761, 648.323 343.592, 644.660 342.955 L 638 341.795 638 335.574 C 638 332.152, 637.279 325.111, 636.398 319.926 C 635.517 314.742, 633.445 306.225, 631.795 301 C 630.144 295.775, 626.969 287.076, 624.739 281.669 L 620.685 271.838 622.874 259.669 C 624.078 252.976, 625.495 243.675, 626.024 239 C 626.552 234.325, 626.986 225.550, 626.987 219.500 C 626.987 213.450, 626.323 204.085, 625.509 198.689 C 624.696 193.293, 623.110 184.968, 621.985 180.189 C 620.859 175.410, 618.710 169.047, 617.208 166.050 C 615.490 162.620, 613.259 159.887, 611.190 158.679 C 608.217 156.943, 607.308 156.874, 601.701 157.961 C 598.291 158.621, 589.200 161.189, 581.500 163.667 C 573.800 166.144, 562.775 170.248, 557 172.787 C 551.225 175.326, 541.866 179.826, 536.201 182.788 L 525.903 188.174 519.520 185.619 C 516.010 184.213, 508.044 181.728, 501.819 180.096 C 495.594 178.463, 486 176.336, 480.500 175.368 C 473.099 174.065, 464.913 173.597, 449 173.567 C 435.580 173.542, 424.681 174.018, 420 174.835 C 415.875 175.555, 409.168 176.805, 405.095 177.613 C 401.023 178.420, 393.148 180.594, 387.595 182.443 C 382.043 184.291, 376.028 186.400, 374.229 187.129 C 371.480 188.243, 370.602 188.231, 368.729 187.052 C 367.503 186.281, 363.800 184.187, 360.500 182.400 C 357.200 180.612, 348.868 176.694, 341.985 173.692 C 335.102 170.690, 322.277 165.896, 313.485 163.038 C 304.693 160.180, 295.147 157.590, 292.270 157.283 C 287.220 156.744, 286.909 156.858, 283.206 160.612" stroke="none" fill="#ffffff" fill-rule="evenodd"/><path d="M 284.116 160.750 C 282.456 162.316, 280.075 166.538, 278.587 170.556 C 277.149 174.437, 275.303 180.828, 274.484 184.757 C 273.664 188.686, 272.553 196.086, 272.014 201.201 C 271.475 206.315, 271.027 215.912, 271.017 222.526 C 271.008 229.141, 271.457 238.366, 272.016 243.026 C 272.575 247.687, 273.985 256.118, 275.150 261.763 L 277.266 272.026 273.642 279.955 C 271.649 284.315, 268.920 291.247, 267.578 295.358 C 266.236 299.470, 263.993 307.939, 262.593 314.180 C 261.193 320.421, 259.746 329.458, 259.377 334.263 C 259.007 339.068, 258.586 343, 258.440 343 C 258.295 343, 254.697 343.666, 250.444 344.479 C 246.191 345.293, 241.673 346.640, 240.403 347.472 C 239.080 348.338, 237.821 350.439, 237.455 352.387 C 237.092 354.323, 237.313 356.717, 237.969 357.943 C 238.603 359.127, 240.294 360.542, 241.728 361.087 C 243.587 361.793, 246.480 361.633, 251.823 360.528 C 255.943 359.677, 259.385 359.097, 259.473 359.240 C 259.560 359.383, 260.198 363.100, 260.890 367.500 C 261.582 371.900, 262.383 376.907, 262.669 378.627 C 263.178 381.684, 263.074 381.780, 258.095 382.877 C 255.293 383.495, 250.755 384.494, 248.012 385.097 C 245.268 385.700, 241.893 387.083, 240.512 388.170 C 238.509 389.745, 238 391.037, 238 394.550 C 238 398.141, 238.460 399.255, 240.493 400.587 C 242.054 401.610, 244.203 402.042, 246.243 401.743 C 248.034 401.480, 253.100 400.313, 257.500 399.148 C 261.900 397.984, 266.225 397.024, 267.111 397.015 C 268.156 397.005, 269.494 399.016, 270.919 402.739 C 272.127 405.896, 275.339 412.174, 278.057 416.691 C 280.776 421.207, 283 425.196, 283 425.553 C 283 425.911, 278.877 433.008, 273.837 441.323 C 268.798 449.638, 261.668 463.204, 257.993 471.471 C 254.319 479.737, 249.247 492.125, 246.723 499 C 244.200 505.875, 240.328 517.575, 238.120 525 C 235.912 532.425, 233.164 543.450, 232.014 549.500 C 230.864 555.550, 229.265 566.122, 228.462 572.994 C 227.658 579.866, 227 591.606, 227 599.085 C 227 606.563, 227.483 616.466, 228.074 621.091 C 228.665 625.716, 230.513 634.417, 232.182 640.427 C 233.851 646.437, 236.692 654.853, 238.495 659.129 C 240.299 663.406, 243.377 669.769, 245.335 673.271 C 247.293 676.773, 251.019 682.532, 253.614 686.069 C 256.210 689.606, 261.296 695.587, 264.917 699.359 C 268.537 703.132, 273.525 707.611, 276 709.312 C 278.475 711.013, 281.085 712.979, 281.799 713.680 C 282.514 714.382, 286.372 716.509, 290.374 718.408 C 294.375 720.307, 300.541 722.838, 304.075 724.032 C 307.609 725.227, 315.225 727.279, 321 728.593 L 331.500 730.982 450.500 730.967 C 527.113 730.958, 570.925 730.593, 573.500 729.944 C 575.700 729.390, 578.625 728.697, 580 728.406 C 581.375 728.114, 585.774 726.778, 589.774 725.437 C 593.775 724.095, 600.750 721.138, 605.274 718.864 C 609.799 716.591, 616.729 712.301, 620.676 709.332 C 624.624 706.363, 630.526 700.911, 633.793 697.217 C 637.060 693.523, 642.429 686.450, 645.724 681.500 C 649.019 676.550, 653.554 668.675, 655.803 664 C 658.051 659.325, 661.049 651.929, 662.464 647.565 C 663.880 643.200, 666.030 635.100, 667.243 629.565 C 669.160 620.819, 669.441 616.618, 669.389 597.500 C 669.349 582.604, 668.811 572.108, 667.724 564.994 C 666.840 559.216, 664.502 547.888, 662.528 539.820 C 660.553 531.752, 656.515 518.029, 653.553 509.325 C 650.591 500.621, 646.287 489, 643.989 483.500 C 641.691 478, 636.970 467.783, 633.498 460.795 C 630.027 453.807, 623.995 443.195, 620.093 437.211 C 616.192 431.228, 613 426.070, 613 425.749 C 613 425.428, 614.938 421.866, 617.306 417.833 C 619.675 413.800, 622.892 407.462, 624.456 403.750 C 626.687 398.454, 627.752 397.002, 629.400 397.008 C 630.555 397.012, 634.425 397.908, 638 398.999 C 641.575 400.090, 646.586 401.263, 649.136 401.605 C 653.026 402.127, 654.113 401.887, 655.886 400.114 C 657.233 398.767, 658 396.729, 658 394.500 C 658 392.357, 657.240 390.240, 656.039 389.039 C 654.961 387.961, 651.699 386.415, 648.789 385.605 C 645.880 384.794, 641.250 383.512, 638.500 382.757 C 635.278 381.871, 633.554 380.870, 633.652 379.941 C 633.736 379.149, 634.565 374.225, 635.494 369 C 636.423 363.775, 637.369 359.311, 637.596 359.079 C 637.823 358.848, 640.291 359.185, 643.080 359.829 C 645.870 360.473, 649.893 361, 652.020 361 C 654.882 361, 656.291 360.423, 657.443 358.777 C 658.299 357.555, 659 355.405, 659 354 C 659 352.595, 658.343 350.507, 657.540 349.360 C 656.737 348.214, 654.824 346.783, 653.290 346.181 C 651.755 345.579, 647.821 344.615, 644.546 344.039 C 641.272 343.464, 638.264 342.657, 637.863 342.246 C 637.462 341.836, 637.028 338.125, 636.899 334 C 636.770 329.875, 636.046 323.125, 635.289 319 C 634.533 314.875, 632.547 307, 630.877 301.500 C 629.206 296, 626.075 287.342, 623.920 282.259 C 621.764 277.177, 620 271.917, 620 270.571 C 620 269.225, 620.644 265.284, 621.431 261.812 C 622.218 258.340, 623.568 249.946, 624.431 243.158 C 625.294 236.370, 625.992 225.795, 625.982 219.658 C 625.972 213.521, 625.306 203.877, 624.503 198.226 C 623.700 192.576, 622.339 185.151, 621.480 181.726 C 620.621 178.302, 618.954 173.025, 617.776 170 C 616.598 166.975, 615.004 163.510, 614.235 162.301 C 613.466 161.091, 611.322 159.601, 609.471 158.991 C 606.825 158.117, 604.653 158.227, 599.303 159.504 C 595.561 160.398, 585.525 163.449, 577 166.284 C 567.375 169.486, 554.721 174.778, 543.613 180.248 L 525.727 189.056 515.873 185.552 C 510.453 183.624, 502.527 181.169, 498.260 180.096 C 493.992 179.023, 485.550 177.334, 479.500 176.344 C 471.378 175.014, 463.137 174.551, 448 174.575 C 431.293 174.602, 425.144 175.024, 414.769 176.856 C 407.767 178.093, 398.542 180.152, 394.269 181.433 C 389.996 182.713, 383.064 185.005, 378.865 186.525 L 371.229 189.288 360.365 183.755 C 354.389 180.712, 344.775 176.187, 339 173.701 C 333.225 171.215, 324.450 167.806, 319.500 166.126 C 314.550 164.445, 306.512 161.930, 301.638 160.535 C 296.764 159.141, 291.484 158, 289.904 158 C 288.144 158, 285.903 159.065, 284.116 160.750 M 295.640 182.269 C 294.261 183.648, 292.809 187.078, 291.936 191.019 C 290.907 195.665, 290.500 204.342, 290.500 221.666 C 290.500 234.957, 290.862 246.194, 291.304 246.637 C 291.747 247.080, 292.470 246.857, 292.912 246.142 C 293.354 245.428, 297.250 240.828, 301.569 235.921 C 305.889 231.015, 309.864 227, 310.402 227 C 310.940 227, 312.982 225.283, 314.940 223.184 C 316.898 221.084, 320.571 217.709, 323.103 215.684 C 325.635 213.658, 327.974 212, 328.301 212 C 328.629 212, 330.006 210.972, 331.363 209.715 C 332.719 208.458, 335.104 206.771, 336.664 205.965 C 338.224 205.159, 340.367 203.718, 341.426 202.761 C 342.486 201.805, 344.173 200.762, 345.176 200.444 C 346.179 200.126, 347 199.511, 347 199.078 C 347 198.644, 343.013 196.438, 338.140 194.173 C 333.267 191.909, 327.986 189.565, 326.405 188.964 C 324.824 188.363, 322.173 187.265, 320.515 186.524 C 318.857 185.784, 313.898 184.013, 309.497 182.589 C 305.095 181.165, 300.687 180, 299.701 180 C 298.716 180, 296.888 181.021, 295.640 182.269 M 590 181.430 C 587.525 182.118, 581.225 184.359, 576 186.409 C 570.775 188.459, 565.150 190.734, 563.500 191.463 C 561.850 192.193, 559.150 193.387, 557.500 194.118 C 555.850 194.849, 553.519 196.174, 552.321 197.062 C 550.293 198.564, 550.259 198.775, 551.835 200.088 C 552.766 200.865, 554.739 202.128, 556.220 202.895 C 557.700 203.663, 563.172 207.488, 568.379 211.395 C 573.585 215.303, 580.772 221.288, 584.349 224.695 C 587.925 228.103, 593.873 234.542, 597.566 239.006 C 602.485 244.952, 604.576 246.824, 605.390 246.011 C 606.137 245.264, 606.500 237.639, 606.500 222.701 C 606.500 208.363, 606.023 197.919, 605.153 193.212 C 604.250 188.324, 602.986 184.948, 601.314 182.962 C 599.879 181.256, 597.906 180.038, 596.661 180.089 C 595.472 180.139, 592.475 180.742, 590 181.430 M 420.500 193.957 C 414.450 194.963, 404.714 197.169, 398.864 198.858 C 393.014 200.548, 384.689 203.327, 380.364 205.034 C 376.039 206.742, 367.434 210.790, 361.241 214.031 C 355.049 217.271, 345.545 223.069, 340.122 226.914 C 334.698 230.759, 326.948 236.964, 322.898 240.703 C 318.849 244.441, 314.065 248.820, 312.268 250.434 C 310.471 252.048, 309 253.956, 309 254.676 C 309 255.395, 308.100 256.545, 307 257.232 C 305.900 257.919, 305 259, 305 259.634 C 305 260.267, 304.325 261.045, 303.500 261.362 C 302.675 261.678, 302 262.542, 302 263.280 C 302 264.019, 301.204 265.495, 300.230 266.561 C 299.257 267.628, 296.115 273.450, 293.249 279.500 C 290.382 285.550, 286.495 295.450, 284.611 301.500 C 282.727 307.550, 280.681 315.425, 280.065 319 C 279.449 322.575, 278.711 328.988, 278.426 333.250 C 278.031 339.168, 278.215 341.023, 279.204 341.096 C 279.917 341.149, 287.250 341.152, 295.500 341.104 C 303.750 341.055, 312.975 341.455, 316 341.993 C 319.025 342.531, 323.750 343.202, 326.500 343.485 C 329.250 343.767, 331.651 344.452, 331.835 345.005 C 332.020 345.559, 332.567 345.768, 333.051 345.468 C 333.535 345.169, 336.405 345.643, 339.427 346.522 C 343.133 347.599, 345.782 349.141, 347.561 351.254 C 349.698 353.794, 350.091 355.064, 349.630 357.945 C 349.317 359.900, 348.048 362.327, 346.811 363.338 C 344.955 364.854, 343.595 365.055, 339.031 364.487 C 335.989 364.108, 332.825 363.445, 332 363.013 C 331.175 362.582, 327.238 361.906, 323.250 361.513 C 319.262 361.119, 316 360.477, 316 360.086 C 316 359.695, 312.962 359.233, 309.250 359.060 C 305.538 358.886, 297.474 358.689, 291.332 358.622 C 285.189 358.555, 279.824 358.840, 279.410 359.255 C 278.995 359.671, 279.318 363.496, 280.126 367.755 C 280.935 372.015, 282.025 375.428, 282.548 375.341 C 283.072 375.253, 288.675 374.656, 295 374.014 C 301.325 373.373, 314.891 372.994, 325.148 373.174 C 341.811 373.465, 344.019 373.703, 345.898 375.405 C 347.419 376.784, 348 378.510, 348 381.655 C 348 384.538, 347.382 386.618, 346.164 387.836 C 344.561 389.439, 341.863 389.758, 324.951 390.346 C 314.294 390.717, 301.620 391.547, 296.787 392.190 C 291.708 392.867, 288 393.829, 288 394.472 C 288 395.084, 290.303 399.615, 293.117 404.542 C 295.932 409.469, 300.291 415.975, 302.804 419 C 305.317 422.025, 310.665 427.936, 314.687 432.135 C 321.211 438.946, 322 440.190, 322 443.663 C 322 445.803, 321.341 448.496, 320.536 449.645 C 319.731 450.795, 317.758 451.998, 316.153 452.319 C 314.547 452.641, 311.547 452.437, 309.485 451.868 C 307.423 451.299, 303.609 448.844, 301.011 446.413 L 296.285 441.993 294.614 444.247 C 293.695 445.486, 291.427 448.975, 289.575 452 C 287.722 455.025, 282.825 464.250, 278.692 472.500 C 274.559 480.750, 269.586 491.550, 267.640 496.500 C 265.694 501.450, 262.523 510.540, 260.593 516.700 C 258.662 522.860, 255.510 534.335, 253.589 542.200 C 251.667 550.065, 249.436 561.225, 248.629 567 C 247.823 572.775, 246.877 582.900, 246.527 589.500 C 246.167 596.275, 246.383 606.718, 247.023 613.485 C 247.646 620.076, 249.456 630.511, 251.045 636.673 C 252.717 643.159, 255.896 651.855, 258.594 657.326 C 261.158 662.523, 265.402 669.638, 268.025 673.137 C 270.649 676.637, 276.554 683.100, 281.148 687.500 C 285.741 691.900, 290.730 696.134, 292.233 696.910 C 293.736 697.685, 295.785 699.082, 296.785 700.015 C 297.786 700.947, 302.181 703.314, 306.552 705.275 C 310.923 707.236, 316.975 709.547, 320 710.410 C 324.484 711.690, 332.175 712.010, 361.642 712.145 C 395.630 712.300, 397.980 712.196, 401.068 710.392 C 402.875 709.337, 405.398 706.497, 406.676 704.080 C 407.954 701.663, 409 697.967, 409 695.866 C 409 693.765, 408.022 689.674, 406.826 686.773 C 405.303 683.079, 403.005 680.074, 399.150 676.738 C 396.124 674.118, 391.272 670.812, 388.367 669.391 C 384.520 667.509, 378.744 666.168, 367.096 664.454 C 358.301 663.159, 347.370 661.212, 342.803 660.125 C 338.236 659.039, 330 656.521, 324.500 654.529 C 319 652.538, 310.675 648.851, 306 646.338 C 301.325 643.824, 294.350 639.705, 290.500 637.184 C 286.650 634.663, 278.212 627.295, 271.750 620.810 C 265.288 614.325, 260 608.391, 260 607.624 C 260 606.857, 259.328 604.940, 258.506 603.364 C 257.685 601.789, 257.010 599.263, 257.006 597.750 C 257.003 596.237, 257.450 595, 258 595 C 258.550 595, 259 594.341, 259 593.535 C 259 592.730, 259.870 591.605, 260.934 591.035 C 261.998 590.466, 264.567 590, 266.642 590 C 270.159 590, 271.270 590.873, 282.958 602.825 C 289.856 609.878, 296.959 616.853, 298.741 618.325 C 300.524 619.796, 302.181 621, 302.424 621 C 302.667 621, 306.570 623.250, 311.098 626 C 315.626 628.750, 319.694 631, 320.138 631 C 320.582 631, 323.320 632.108, 326.223 633.463 C 329.125 634.818, 335.508 637.074, 340.407 638.476 C 345.305 639.879, 353.855 642.010, 359.407 643.213 C 367.413 644.948, 372.912 645.411, 386 645.450 L 402.500 645.500 410.146 641.762 C 415.488 639.151, 419.224 636.439, 422.544 632.762 C 425.158 629.868, 428.350 625.250, 429.638 622.500 C 431.442 618.650, 431.980 615.775, 431.980 610 C 431.980 604.159, 431.444 601.347, 429.553 597.287 C 428.218 594.419, 425.185 590.133, 422.813 587.761 C 420.441 585.390, 416.294 582.217, 413.598 580.710 C 410.749 579.118, 403.211 576.706, 395.598 574.949 C 388.394 573.287, 379.350 571.008, 375.500 569.885 C 371.650 568.762, 364.675 566.014, 360 563.780 C 355.325 561.545, 348.800 557.905, 345.500 555.691 C 342.200 553.477, 336.065 548.156, 331.866 543.868 C 327.578 539.489, 322.238 532.657, 319.685 528.285 C 317.184 524.003, 314.207 518.121, 313.069 515.213 C 311.931 512.305, 311 507.629, 311 504.821 C 311 500.457, 311.434 499.302, 313.991 496.858 C 316.040 494.900, 318.017 494, 320.268 494 C 322.076 494, 324.519 494.675, 325.697 495.501 C 326.876 496.326, 328.606 499.363, 329.543 502.251 C 330.480 505.138, 332.802 510.500, 334.704 514.167 C 336.605 517.834, 340.487 523.520, 343.330 526.802 C 346.174 530.084, 350.750 534.654, 353.500 536.958 C 356.250 539.261, 362.341 543.094, 367.036 545.475 C 371.731 547.857, 379.381 550.940, 384.036 552.326 C 388.691 553.713, 394.075 555.157, 396 555.535 L 399.500 556.223 396.879 553.361 C 395.438 551.788, 392.655 548.130, 390.695 545.233 C 388.735 542.336, 386.197 537.469, 385.055 534.418 C 383.913 531.366, 382.500 526.761, 381.913 524.185 C 381.327 521.608, 380.845 515, 380.841 509.500 C 380.836 502.320, 381.687 495.270, 383.859 484.500 C 385.523 476.250, 388.260 463.489, 389.942 456.143 C 391.624 448.796, 393 441.934, 393 440.893 C 393 439.852, 393.408 439, 393.906 439 C 394.405 439, 394.577 438.100, 394.290 437 C 394.002 435.900, 394.157 434.999, 394.633 434.998 C 395.110 434.996, 395.548 433.640, 395.607 431.984 C 395.666 430.328, 396.566 428.017, 397.607 426.849 C 398.648 425.680, 400.948 424.111, 402.718 423.362 C 405.263 422.285, 414.796 422, 448.319 422 C 474.429 422, 491.815 422.390, 493.601 423.015 C 495.195 423.574, 497.496 425.490, 498.713 427.274 C 499.931 429.058, 501.056 432.088, 501.213 434.009 C 501.371 435.929, 501.774 437.725, 502.109 438 C 502.443 438.275, 504.356 445.250, 506.359 453.500 C 508.362 461.750, 510 469.744, 510 471.264 C 510 472.784, 510.441 474.809, 510.980 475.764 C 511.519 476.719, 513.094 483.177, 514.480 490.115 C 515.866 497.053, 516.984 504.928, 516.965 507.615 C 516.946 510.302, 516.323 515.902, 515.581 520.061 C 514.839 524.219, 513.104 530.415, 511.725 533.830 C 510.345 537.245, 507.481 542.565, 505.358 545.653 C 503.236 548.741, 498.692 553.843, 495.261 556.991 C 491.830 560.139, 485.755 564.357, 481.761 566.365 C 477.767 568.373, 471.350 570.733, 467.500 571.609 C 463.650 572.486, 459.997 573.345, 459.381 573.520 C 458.609 573.738, 458.145 581.512, 457.881 598.668 C 457.672 612.326, 457.725 628.450, 458 634.500 L 458.500 645.500 465.988 645.500 L 473.476 645.500 475.154 640 C 476.076 636.975, 477.552 631.959, 478.434 628.853 C 479.498 625.106, 480.861 622.666, 482.484 621.603 C 483.829 620.721, 486.206 620, 487.765 620 C 489.325 620, 491.821 620.563, 493.311 621.250 C 495.073 622.063, 496.360 623.716, 496.993 625.980 C 497.772 628.767, 497.441 631.413, 495.334 639.255 C 493.178 647.279, 492.909 649.506, 493.851 651.572 C 494.483 652.959, 495 655.668, 495 657.593 C 495 659.974, 494.216 661.875, 492.545 663.545 C 491.195 664.895, 489.651 666, 489.113 666 C 488.575 666, 487.819 667.013, 487.434 668.250 C 487.048 669.487, 485.498 673.200, 483.989 676.500 C 482.480 679.800, 480.771 685.012, 480.190 688.082 C 479.595 691.231, 479.479 695.189, 479.924 697.165 C 480.359 699.091, 481.116 701.357, 481.607 702.201 C 482.098 703.044, 483.922 705.339, 485.661 707.300 C 487.457 709.327, 490.524 711.376, 492.766 712.048 C 495.318 712.813, 501.915 713.095, 511.448 712.849 C 523.996 712.524, 526.373 712.210, 527.453 710.734 C 528.150 709.780, 529.015 709, 529.374 709 C 529.734 709, 531.381 707.538, 533.035 705.750 C 534.688 703.962, 537.826 698.827, 540.007 694.338 C 542.188 689.849, 545.346 681.974, 547.025 676.838 C 548.704 671.702, 551.824 658.875, 553.959 648.334 C 556.489 635.841, 558.421 622.436, 559.507 609.834 C 560.625 596.869, 561.722 589.347, 562.837 587 C 563.752 585.075, 565.356 582.712, 566.403 581.750 C 567.450 580.788, 569.847 580, 571.730 580 C 574.219 580, 575.993 580.839, 578.226 583.072 L 581.297 586.144 580.685 596.822 C 580.348 602.695, 579.340 612.900, 578.445 619.500 C 577.550 626.100, 576.562 632.175, 576.250 633 C 575.938 633.825, 575.763 634.865, 575.861 635.311 C 575.960 635.757, 575.328 640.257, 574.457 645.311 C 573.586 650.365, 571.520 660.057, 569.865 666.848 C 568.210 673.640, 565.067 684.385, 562.880 690.725 C 560.694 697.066, 557.766 704.502, 556.373 707.250 L 553.841 712.247 566.242 711.834 L 578.642 711.421 587.464 707.188 C 592.315 704.860, 599.167 700.940, 602.690 698.478 C 606.213 696.015, 609.272 694, 609.487 694 C 609.702 694, 613.010 690.737, 616.838 686.750 C 620.666 682.762, 624.866 678.150, 626.172 676.500 C 627.477 674.850, 630.375 670.800, 632.612 667.500 C 634.849 664.200, 638.727 656.550, 641.230 650.500 C 643.734 644.450, 646.501 636.125, 647.379 632 C 648.258 627.875, 649.565 618.650, 650.285 611.500 C 651.179 602.610, 651.335 594.864, 650.777 587 C 650.329 580.675, 649.046 570.100, 647.927 563.500 C 646.808 556.900, 644.533 546.100, 642.871 539.500 C 641.209 532.900, 638.573 523.675, 637.013 519 C 635.453 514.325, 633.049 507.575, 631.671 504 C 630.293 500.425, 627.731 494.125, 625.979 490 C 624.226 485.875, 620.573 477.852, 617.861 472.170 C 615.149 466.489, 611.057 458.839, 608.768 455.170 C 606.479 451.502, 603.502 447.018, 602.152 445.208 L 599.698 441.915 597.099 444.356 C 595.670 445.698, 592.750 447.967, 590.610 449.398 C 587.796 451.281, 585.420 452, 582.015 452 C 578.727 452, 576.812 451.449, 575.655 450.171 C 574.667 449.080, 574 446.647, 574 444.138 C 574 440.198, 574.598 439.302, 583.497 429.901 C 588.720 424.382, 594.964 417.085, 597.373 413.684 C 599.782 410.283, 603.219 404.658, 605.011 401.185 C 606.858 397.607, 607.887 394.514, 607.385 394.048 C 606.898 393.596, 600.650 392.499, 593.500 391.610 C 586.350 390.721, 574.336 389.995, 566.802 389.997 C 553.783 390, 552.976 389.883, 550.552 387.635 C 548.746 385.962, 548 384.240, 548 381.746 C 548 379.766, 548.838 377.187, 549.912 375.861 L 551.823 373.500 572.162 373.292 C 583.348 373.177, 596.550 373.536, 601.500 374.089 C 606.450 374.642, 611.484 375.340, 612.687 375.640 C 614.546 376.103, 615.023 375.610, 615.872 372.342 C 616.421 370.229, 617.186 366.299, 617.570 363.608 L 618.270 358.716 598.885 359.302 C 583.895 359.755, 576.802 360.448, 567.599 362.357 C 560.875 363.751, 554.220 364.585, 552.303 364.274 C 549.838 363.874, 548.483 362.902, 547.357 360.723 C 546.452 358.973, 546.039 356.553, 546.367 354.915 C 546.676 353.370, 547.720 351.182, 548.687 350.053 C 549.653 348.924, 551.379 348, 552.522 348 C 553.665 348, 555.042 347.558, 555.582 347.018 C 556.123 346.477, 558.350 345.854, 560.532 345.633 C 562.715 345.412, 565.175 344.975, 566 344.661 C 566.825 344.348, 570.200 343.580, 573.500 342.955 C 576.800 342.330, 588.275 341.586, 599 341.300 C 609.725 341.015, 618.682 340.611, 618.905 340.403 C 619.127 340.195, 618.588 334.625, 617.706 328.027 C 616.659 320.190, 614.698 311.827, 612.051 303.912 C 609.823 297.247, 608 291.166, 608 290.397 C 608 289.629, 607.657 289, 607.237 289 C 606.817 289, 604.905 285.738, 602.987 281.750 C 601.069 277.762, 597.814 272.250, 595.754 269.500 C 593.694 266.750, 592.007 263.938, 592.004 263.250 C 592.002 262.563, 591.539 262, 590.975 262 C 590.412 262, 589.518 260.863, 588.990 259.474 C 588.462 258.085, 587.348 256.687, 586.515 256.367 C 585.682 256.048, 585 255.389, 585 254.905 C 585 254.420, 580.163 249.302, 574.250 243.532 C 568.337 237.761, 562.553 232.131, 561.395 231.020 C 560.237 229.909, 558.823 229, 558.252 229 C 557.681 229, 556.955 228.325, 556.638 227.500 C 556.322 226.675, 555.399 226, 554.588 226 C 553.777 226, 552.525 225.181, 551.807 224.179 C 551.088 223.178, 549.038 221.603, 547.250 220.679 C 545.462 219.756, 542.538 218.248, 540.750 217.328 C 538.962 216.409, 537.275 215.330, 537 214.931 C 536.725 214.532, 534.025 213.055, 531 211.649 C 527.975 210.243, 522.125 207.777, 518 206.170 C 513.875 204.562, 506.450 202.018, 501.500 200.515 C 496.550 199.012, 487.775 196.662, 482 195.293 C 473.043 193.169, 468.560 192.753, 451.500 192.465 C 435.583 192.197, 429.254 192.501, 420.500 193.957 M 339.173 269.705 C 335.345 270.074, 334.681 270.520, 333.406 273.570 C 332.614 275.466, 332.248 278.138, 332.591 279.508 C 332.935 280.879, 333.618 282, 334.108 282 C 334.599 282, 335 282.623, 335 283.384 C 335 284.147, 337.578 285.752, 340.750 286.963 C 343.913 288.170, 347.175 289.531, 348 289.986 C 348.825 290.441, 349.345 291.418, 349.155 292.157 C 348.965 292.896, 348.141 296.650, 347.324 300.500 C 346.410 304.808, 346.086 309.423, 346.481 312.500 C 346.834 315.250, 348.095 319.525, 349.282 322 C 350.468 324.475, 353.269 328.300, 355.506 330.500 C 357.742 332.700, 360.793 335.063, 362.286 335.750 C 363.779 336.438, 366.142 337.535, 367.537 338.189 C 368.932 338.843, 372.645 339.353, 375.787 339.322 C 378.929 339.292, 383.075 338.926, 385 338.508 C 386.925 338.091, 390.525 336.453, 393 334.868 C 395.475 333.283, 398.954 329.852, 400.731 327.243 C 402.509 324.634, 404.691 319.542, 405.582 315.926 L 407.200 309.352 412.673 309.806 C 416.084 310.089, 419.060 309.770, 420.573 308.961 C 421.908 308.247, 423 306.865, 423 305.890 C 423 304.915, 423.486 303.817, 424.081 303.450 C 424.688 303.075, 424.886 301.681, 424.532 300.270 C 424.185 298.889, 423.172 297.029, 422.281 296.138 C 421.390 295.247, 404.200 288.988, 384.081 282.228 C 363.961 275.469, 346.600 269.792, 345.500 269.613 C 344.400 269.434, 341.553 269.476, 339.173 269.705 M 550.704 270.471 C 549.715 271.196, 548.028 271.559, 546.954 271.278 C 545.879 270.997, 545 271.216, 545 271.765 C 545 272.314, 542.862 273.299, 540.250 273.954 C 537.638 274.610, 523.125 278.976, 508 283.658 C 492.875 288.339, 479.375 292.680, 478 293.304 C 476.625 293.928, 474.610 295.331, 473.523 296.421 C 472.251 297.697, 471.545 299.754, 471.545 302.189 C 471.545 304.471, 472.246 306.674, 473.308 307.737 C 474.653 309.081, 476.715 309.500, 481.990 309.500 L 488.909 309.500 489.544 313.500 C 489.893 315.700, 491.190 319.750, 492.427 322.500 C 493.664 325.250, 496.315 329.134, 498.319 331.131 C 500.322 333.128, 504.108 335.775, 506.731 337.013 C 509.981 338.548, 513.412 339.276, 517.500 339.299 C 520.800 339.317, 525.300 338.884, 527.500 338.335 C 529.700 337.786, 532.955 336.579, 534.734 335.651 C 536.513 334.724, 539.487 332.447, 541.343 330.591 C 543.198 328.735, 545.766 325.049, 547.049 322.400 C 548.710 318.968, 549.500 315.270, 549.795 309.541 C 550.119 303.255, 549.771 300.256, 548.199 295.801 L 546.187 290.102 554.104 287.465 C 558.783 285.907, 562.426 284.073, 563.011 282.980 C 563.555 281.963, 564 279.748, 564 278.057 C 564 276.059, 563.037 273.985, 561.250 272.135 C 559.485 270.308, 557.425 269.265, 555.500 269.221 C 553.850 269.184, 551.692 269.746, 550.704 270.471 M 437.500 319.885 C 435.300 320.898, 432.712 323.095, 431.750 324.768 C 430.679 326.629, 430.001 329.882, 430.004 333.154 C 430.006 336.634, 430.668 339.584, 431.901 341.605 C 432.942 343.312, 435.506 345.768, 437.598 347.061 C 440.585 348.907, 442.819 349.412, 448 349.412 C 453.181 349.412, 455.415 348.907, 458.402 347.061 C 460.494 345.768, 463.058 343.312, 464.099 341.605 C 465.326 339.593, 465.994 336.635, 465.996 333.200 C 465.998 330.286, 465.295 326.538, 464.434 324.872 C 463.495 323.057, 461.191 321.082, 458.684 319.943 C 455.948 318.701, 452.250 318.044, 448 318.044 C 443.801 318.044, 440.084 318.696, 437.500 319.885 M 442 353.044 C 439.525 353.385, 436.488 354.018, 435.250 354.449 C 434.012 354.880, 433 355.631, 433 356.117 C 433 356.602, 432.510 357, 431.911 357 C 431.312 357, 429.062 358.668, 426.911 360.706 C 424.760 362.744, 423 364.994, 423 365.706 C 423 366.418, 422.622 367, 422.161 367 C 421.699 367, 420.799 368.146, 420.161 369.547 C 419.522 370.948, 419 373.400, 419 374.996 C 419 376.660, 420.008 378.985, 421.365 380.448 C 422.942 382.150, 424.785 383, 426.900 383 C 428.644 383, 431.180 382.273, 432.535 381.385 C 433.891 380.497, 435 379.342, 435 378.818 C 435 378.294, 436.608 376.350, 438.573 374.496 C 440.537 372.643, 443.462 370.838, 445.073 370.484 C 446.683 370.130, 449.388 370.146, 451.085 370.519 C 452.959 370.930, 456.466 373.513, 460.018 377.098 C 464.855 381.981, 466.448 383, 469.241 383 C 471.098 383, 473.309 382.438, 474.154 381.750 C 475 381.063, 476.241 379.097, 476.913 377.381 C 477.968 374.685, 477.846 373.650, 476.007 369.738 C 474.837 367.249, 471.994 363.454, 469.690 361.304 C 467.385 359.155, 463.271 356.323, 460.547 355.011 C 457.769 353.673, 453.598 352.581, 451.047 352.524 C 448.546 352.469, 444.475 352.702, 442 353.044 M 412.140 441.331 C 411.532 442.064, 409.244 451.176, 407.054 461.581 C 404.865 471.987, 402.385 483.425, 401.543 487 C 400.701 490.575, 399.718 497.864, 399.358 503.197 C 398.920 509.701, 399.133 514.970, 400.006 519.197 C 400.723 522.664, 402.552 527.975, 404.071 531 C 405.590 534.025, 409.008 538.570, 411.666 541.101 C 414.325 543.631, 418.075 546.837, 420 548.225 C 421.925 549.612, 426.200 551.772, 429.500 553.023 C 434.595 554.956, 437.536 555.314, 449 555.400 L 462.500 555.500 469.357 552.148 C 473.243 550.248, 478.875 546.277, 482.357 542.981 C 486.073 539.464, 489.959 534.462, 492.193 530.319 C 494.587 525.881, 496.280 521.013, 497.005 516.486 C 497.620 512.644, 497.850 508.038, 497.516 506.250 C 497.183 504.462, 496.817 502.941, 496.705 502.869 C 496.592 502.797, 478.500 502.459, 456.500 502.119 C 423.482 501.608, 416.107 501.240, 414.250 500.009 C 412.496 498.847, 412 497.570, 412 494.214 C 412 490.977, 412.609 489.300, 414.455 487.455 L 416.909 485 456.062 485 C 486.960 485, 495.118 484.736, 494.757 483.750 C 494.506 483.063, 492.125 472.938, 489.465 461.250 L 484.630 440 448.938 440 C 420.441 440, 413.022 440.268, 412.140 441.331 M 419.045 668.704 C 420.834 670.742, 423.394 674.804, 424.735 677.731 C 426.075 680.659, 427.598 686.133, 428.120 689.896 C 428.828 695.009, 428.717 698.351, 427.681 703.119 C 426.918 706.629, 425.955 710.288, 425.540 711.250 C 424.841 712.872, 425.878 713, 439.753 713 C 447.986 713, 456.790 712.716, 459.319 712.370 L 463.918 711.739 462.367 708.120 C 461.514 706.129, 460.661 701.125, 460.471 697 C 460.281 692.875, 460.599 687.025, 461.177 684 C 461.755 680.975, 463.526 675.625, 465.114 672.112 C 466.701 668.598, 468 665.561, 468 665.362 C 468 665.163, 456.253 665, 441.896 665 L 415.793 665 419.045 668.704" stroke="none" fill="#30061d" fill-rule="evenodd"/><path d="M 477 506.436 C 477 509.004, 476.294 514.210, 475.431 518.005 C 474.449 522.320, 472.420 527.134, 470.014 530.857 C 467.870 534.175, 463.806 538.572, 460.833 540.792 C 457.900 542.983, 453.695 545.680, 451.488 546.786 C 449.281 547.893, 444.160 549.805, 440.107 551.036 C 435 552.587, 433.189 553.526, 434.205 554.095 C 435.012 554.546, 440.358 555.213, 446.086 555.577 C 453.030 556.018, 458 555.839, 461 555.040 C 463.475 554.380, 467.820 552.720, 470.655 551.350 C 473.491 549.979, 478.344 546.579, 481.441 543.794 C 484.537 541.009, 488.863 535.713, 491.054 532.026 C 493.461 527.974, 495.551 522.784, 496.336 518.910 C 497.051 515.385, 497.447 510.363, 497.217 507.750 L 496.799 503 489.149 502.986 C 484.942 502.979, 480.488 502.701, 479.250 502.370 C 477.152 501.807, 477 502.082, 477 506.436" stroke="none" fill="#930833" fill-rule="evenodd"/><path d="M 403.809 484.750 C 401.828 486.873, 400.988 489.275, 400.122 495.291 C 399.505 499.576, 399.013 505.876, 399.029 509.291 C 399.045 512.706, 399.875 518.492, 400.874 522.148 C 401.873 525.804, 403.881 530.827, 405.335 533.309 C 406.790 535.791, 410.572 540.137, 413.740 542.965 C 416.908 545.794, 422.200 549.424, 425.500 551.033 L 431.500 553.957 440 551.137 C 444.675 549.586, 450.075 547.518, 452 546.542 C 453.925 545.566, 457.900 542.977, 460.833 540.788 C 463.811 538.567, 467.866 534.180, 470.014 530.857 C 472.420 527.134, 474.449 522.320, 475.431 518.005 C 476.294 514.210, 477 509.057, 477 506.553 L 477 502 446.750 501.978 C 419.065 501.957, 416.300 501.801, 414.137 500.138 C 412.089 498.563, 411.849 497.731, 412.340 493.910 C 412.652 491.485, 413.202 487.813, 413.563 485.750 L 414.219 482 410.296 482 C 407.306 482, 405.765 482.653, 403.809 484.750" stroke="none" fill="#d91d4f" fill-rule="evenodd"/><path d="M 296.032 181.773 C 294.718 182.837, 293.240 185.934, 292.335 189.523 C 291.365 193.365, 290.634 202.708, 290.289 215.677 C 289.993 226.774, 290.065 238.361, 290.448 241.427 C 290.831 244.492, 291.449 246.986, 291.822 246.969 C 292.195 246.952, 293.932 245.040, 295.681 242.719 C 297.431 240.399, 302.325 234.973, 306.557 230.662 C 310.789 226.351, 317.667 220.110, 321.841 216.793 C 326.015 213.477, 333.457 208.055, 338.379 204.745 L 347.328 198.728 344.414 197.190 C 342.811 196.345, 337.450 193.878, 332.500 191.708 C 327.550 189.538, 318.642 186.016, 312.705 183.881 C 306.767 181.747, 301.080 180, 300.065 180 C 299.051 180, 297.236 180.798, 296.032 181.773 M 586 182.877 C 581.325 184.417, 575.025 186.712, 572 187.978 C 568.975 189.244, 564.165 191.341, 561.312 192.640 C 558.458 193.938, 555.829 195, 555.470 195 C 555.110 195, 553.746 195.842, 552.438 196.870 L 550.061 198.740 558.780 204.528 C 563.576 207.711, 570.650 212.904, 574.500 216.067 C 578.350 219.230, 583.536 223.772, 586.024 226.159 C 588.512 228.547, 593.637 234.240, 597.414 238.810 C 602.444 244.900, 604.576 246.824, 605.390 246.011 C 606.137 245.264, 606.500 237.639, 606.500 222.701 C 606.500 208.363, 606.023 197.919, 605.153 193.212 C 604.250 188.324, 602.986 184.948, 601.314 182.962 C 599.929 181.316, 597.862 180.017, 596.661 180.038 C 595.472 180.059, 590.675 181.337, 586 182.877 M 423 193.573 C 417.775 194.398, 408.358 196.434, 402.074 198.097 C 395.790 199.760, 386.565 202.704, 381.574 204.638 C 376.583 206.572, 367.898 210.576, 362.274 213.535 C 356.650 216.495, 348.100 221.582, 343.274 224.841 C 338.448 228.099, 332.700 232.208, 330.500 233.971 C 328.300 235.734, 323.350 240.174, 319.500 243.838 C 315.650 247.502, 309.281 254.775, 305.346 260 C 301.412 265.225, 296.061 273.775, 293.455 279 C 290.848 284.225, 286.981 294.054, 284.860 300.842 C 282.642 307.943, 280.367 318.050, 279.502 324.643 C 278.676 330.946, 278 337.204, 278 338.551 L 278 341 294.122 341 C 303.339 341, 314.596 341.646, 320.407 342.509 C 325.997 343.339, 333.704 344.905, 337.535 345.990 C 342.576 347.416, 345.290 348.833, 347.359 351.118 C 349.751 353.760, 350.123 354.864, 349.639 357.887 C 349.321 359.874, 348.097 362.288, 346.920 363.250 C 345.742 364.212, 343.944 365, 342.925 365 C 341.905 365, 336.526 364.119, 330.970 363.042 C 325.415 361.965, 314.340 360.341, 306.360 359.433 C 297.302 358.403, 289.437 358.042, 285.425 358.471 C 279.707 359.083, 279.001 359.398, 279.006 361.330 C 279.009 362.523, 279.415 365.075, 279.909 367 C 280.402 368.925, 281.069 371.680, 281.390 373.123 C 281.962 375.690, 282.077 375.725, 286.737 374.739 C 289.357 374.184, 303.262 373.679, 317.639 373.615 C 342.029 373.508, 343.919 373.627, 345.889 375.405 C 347.421 376.787, 348 378.502, 348 381.655 C 348 384.538, 347.382 386.618, 346.164 387.836 C 344.561 389.439, 341.863 389.758, 324.951 390.346 C 314.294 390.717, 301.620 391.547, 296.787 392.190 C 291.954 392.834, 288 393.747, 288 394.220 C 288 394.693, 288.923 396.889, 290.051 399.101 C 291.180 401.312, 293.730 405.682, 295.719 408.811 C 297.708 411.940, 301.898 417.650, 305.030 421.500 C 308.163 425.350, 312.791 430.402, 315.315 432.727 C 317.839 435.051, 320.376 437.834, 320.952 438.911 C 321.529 439.988, 322 442.373, 322 444.212 C 322 446.051, 321.341 448.496, 320.536 449.645 C 319.731 450.795, 317.758 451.998, 316.153 452.319 C 314.547 452.641, 311.547 452.437, 309.485 451.868 C 307.423 451.299, 303.597 448.833, 300.984 446.388 L 296.232 441.943 292.602 447.412 C 290.606 450.419, 286.484 457.520, 283.442 463.190 C 280.400 468.861, 275.845 478, 273.320 483.500 C 270.795 489, 267.622 496.425, 266.269 500 C 264.917 503.575, 262.296 511.315, 260.446 517.200 C 258.596 523.085, 255.509 534.335, 253.585 542.200 C 251.662 550.065, 249.418 561.450, 248.600 567.500 C 247.781 573.550, 246.839 583.675, 246.506 590 C 246.173 596.325, 246.380 606.675, 246.966 613 C 247.551 619.325, 249.185 629.225, 250.597 635 C 252.061 640.989, 255.237 649.876, 257.990 655.687 C 260.645 661.289, 264.306 668.039, 266.127 670.687 C 267.948 673.334, 273.035 679.248, 277.432 683.828 C 281.828 688.409, 289.042 694.546, 293.463 697.467 C 297.883 700.388, 303.750 703.901, 306.500 705.275 C 309.250 706.648, 314.585 708.723, 318.355 709.886 C 324.806 711.875, 327.375 712, 361.855 711.996 C 396.084 711.993, 398.705 711.867, 401.613 710.094 C 403.326 709.050, 405.688 706.209, 406.863 703.782 C 408.039 701.355, 408.996 697.598, 408.990 695.434 C 408.985 693.270, 407.928 689.250, 406.642 686.500 C 405.355 683.750, 402.294 679.656, 399.838 677.402 C 397.383 675.148, 393.377 672.147, 390.937 670.733 C 388.497 669.320, 384.700 667.690, 382.500 667.111 C 380.300 666.532, 373.325 665.343, 367 664.467 C 360.675 663.592, 351.225 661.955, 346 660.831 C 340.775 659.706, 331.775 657.099, 326 655.038 C 320.225 652.977, 312.604 649.826, 309.065 648.037 C 305.526 646.249, 298.551 642.270, 293.565 639.197 C 287.072 635.195, 281.024 630.145, 272.250 621.398 C 265.513 614.681, 260 608.662, 260 608.021 C 260 607.381, 259.325 606.182, 258.500 605.357 C 257.614 604.471, 257 602.027, 257 599.383 C 257 595.966, 257.580 594.329, 259.455 592.455 C 261.278 590.631, 262.984 590, 266.092 590 C 270.147 590, 270.694 590.426, 283.888 603.854 C 294.599 614.755, 299.525 618.951, 307 623.540 C 312.225 626.748, 321.342 631.327, 327.260 633.715 C 333.178 636.102, 343.528 639.367, 350.260 640.969 C 356.992 642.571, 366.521 644.412, 371.436 645.060 C 376.351 645.708, 385.351 646.046, 391.436 645.812 C 401.696 645.417, 403.056 645.118, 410.146 641.705 C 415.559 639.100, 419.181 636.487, 422.544 632.762 C 425.158 629.868, 428.350 625.250, 429.638 622.500 C 431.442 618.650, 431.980 615.775, 431.980 610 C 431.980 604.159, 431.444 601.347, 429.553 597.287 C 428.218 594.419, 425.185 590.133, 422.813 587.761 C 420.441 585.390, 416.307 582.224, 413.628 580.727 C 410.707 579.094, 402.835 576.624, 393.972 574.558 C 385.840 572.663, 375.751 569.959, 371.551 568.549 C 367.350 567.139, 361.120 564.577, 357.707 562.856 C 354.293 561.135, 348.800 557.917, 345.500 555.706 C 342.200 553.495, 336.088 548.213, 331.919 543.969 C 327.609 539.582, 322.353 532.854, 319.738 528.376 C 317.208 524.044, 314.207 518.121, 313.069 515.213 C 311.890 512.199, 311 507.615, 311 504.552 C 311 499.779, 311.344 498.888, 314.077 496.589 C 315.984 494.984, 318.370 494, 320.354 494 C 322.115 494, 324.519 494.675, 325.697 495.501 C 326.876 496.326, 328.606 499.363, 329.543 502.251 C 330.480 505.138, 332.771 510.425, 334.635 514 C 336.499 517.575, 340.381 523.265, 343.262 526.644 C 346.143 530.023, 350.750 534.668, 353.500 536.966 C 356.250 539.265, 362.341 543.094, 367.036 545.475 C 371.731 547.857, 379.381 550.940, 384.036 552.326 C 388.691 553.713, 394.004 555.152, 395.843 555.524 L 399.186 556.200 394.416 550.350 C 391.793 547.132, 388.198 541.350, 386.429 537.500 C 384.659 533.650, 382.661 527.812, 381.988 524.528 C 381.316 521.243, 380.801 514.043, 380.844 508.528 C 380.901 501.198, 381.849 494.061, 384.367 482 C 386.262 472.925, 389.467 457.850, 391.491 448.500 C 393.515 439.150, 395.694 430.415, 396.335 429.090 C 396.976 427.764, 398.770 425.739, 400.322 424.590 C 403.065 422.559, 404.339 422.492, 445.822 422.202 C 469.295 422.038, 489.908 422.161, 491.628 422.475 C 493.349 422.788, 495.923 424.126, 497.349 425.448 C 499.479 427.421, 500.739 431.039, 504.400 445.676 C 506.851 455.479, 510.078 469.125, 511.569 476 C 513.061 482.875, 514.875 491.650, 515.601 495.500 C 516.327 499.350, 516.923 504.750, 516.925 507.500 C 516.928 510.250, 516.323 515.902, 515.581 520.061 C 514.839 524.219, 513.104 530.415, 511.725 533.830 C 510.345 537.245, 507.481 542.565, 505.358 545.653 C 503.236 548.741, 498.692 553.843, 495.261 556.991 C 491.830 560.139, 485.755 564.354, 481.761 566.357 C 477.767 568.360, 471.350 570.741, 467.500 571.648 C 463.650 572.555, 459.932 573.444, 459.237 573.622 C 458.244 573.878, 458.031 581.573, 458.237 609.723 L 458.500 645.500 465.401 645.799 C 469.196 645.964, 472.717 645.683, 473.223 645.177 C 473.730 644.670, 475.211 640.065, 476.514 634.944 C 477.817 629.823, 479.743 624.482, 480.793 623.075 C 481.844 621.668, 484.062 620.127, 485.723 619.650 C 487.925 619.019, 489.701 619.239, 492.279 620.462 C 494.366 621.452, 496.320 623.359, 497.047 625.114 C 498.106 627.670, 497.893 629.571, 495.530 638.655 C 493.321 647.146, 492.998 649.701, 493.890 651.658 C 494.501 652.998, 495 655.668, 495 657.593 C 495 659.913, 494.223 661.868, 492.693 663.398 C 491.424 664.666, 489.948 665.884, 489.413 666.102 C 488.877 666.321, 486.944 669.869, 485.118 673.986 C 483.291 678.103, 481.211 684.273, 480.495 687.696 C 479.735 691.324, 479.504 695.301, 479.940 697.233 C 480.351 699.056, 481.171 701.436, 481.762 702.524 C 482.352 703.611, 484.335 705.935, 486.168 707.689 C 488.001 709.442, 490.767 711.355, 492.315 711.939 C 493.863 712.522, 500.388 712.995, 506.815 712.989 C 513.242 712.983, 520.236 712.691, 522.357 712.341 C 525.195 711.872, 527.648 710.304, 531.638 706.408 C 535.470 702.667, 538.109 698.819, 540.624 693.306 C 542.582 689.013, 545.503 681.450, 547.113 676.500 C 548.723 671.550, 551.391 661.025, 553.041 653.110 C 554.690 645.196, 556.670 634.396, 557.439 629.110 C 558.208 623.825, 559.351 612.975, 559.979 605 C 560.606 597.025, 561.313 589.540, 561.550 588.367 C 561.786 587.193, 563.290 584.831, 564.891 583.117 C 567.129 580.721, 568.653 580, 571.478 580 C 574.207 580, 575.906 580.753, 578.077 582.923 C 580.640 585.486, 581 586.565, 581 591.679 C 581 594.887, 580.321 603.359, 579.490 610.506 C 578.660 617.653, 576.859 630.384, 575.488 638.799 C 574.117 647.213, 571.613 659.745, 569.925 666.647 C 568.237 673.549, 565.067 684.385, 562.880 690.725 C 560.694 697.066, 557.766 704.502, 556.373 707.250 L 553.841 712.247 566.242 711.834 C 578.379 711.430, 578.828 711.332, 587.386 707.225 C 592.195 704.918, 599.452 700.733, 603.512 697.927 C 607.572 695.120, 614.405 689.147, 618.697 684.653 C 622.989 680.159, 628.711 673.157, 631.412 669.093 C 634.114 665.030, 638.221 657.384, 640.538 652.102 C 642.855 646.821, 645.671 638.675, 646.796 634 C 647.922 629.325, 649.394 620.367, 650.068 614.093 C 650.813 607.158, 651.057 597.356, 650.690 589.093 C 650.359 581.617, 649.174 570.325, 648.059 564 C 646.943 557.675, 644.705 547.088, 643.085 540.474 C 641.465 533.860, 638.765 524.314, 637.087 519.261 C 635.408 514.207, 632.390 505.894, 630.381 500.786 C 628.372 495.679, 623.592 484.750, 619.759 476.500 C 615.927 468.250, 609.885 457.055, 606.334 451.622 L 599.877 441.743 597.189 444.270 C 595.710 445.659, 592.750 447.967, 590.610 449.398 C 587.796 451.281, 585.420 452, 582.015 452 C 578.727 452, 576.812 451.449, 575.655 450.171 C 574.665 449.077, 574 446.646, 574 444.118 C 574 440.175, 574.583 439.280, 582.750 430.690 C 587.563 425.629, 593.688 418.565, 596.363 414.994 C 599.038 411.423, 602.784 405.407, 604.688 401.626 C 606.593 397.845, 607.779 394.406, 607.325 393.984 C 606.871 393.563, 600.380 392.494, 592.901 391.609 C 585.421 390.724, 573.407 390, 566.202 390 C 553.816 390, 552.964 389.871, 550.552 387.635 C 548.746 385.962, 548 384.240, 548 381.746 C 548 379.768, 548.838 377.186, 549.910 375.861 L 551.819 373.500 571.660 373.181 C 582.572 373.005, 596 373.366, 601.500 373.981 C 607 374.597, 612.264 375.326, 613.198 375.601 C 614.486 375.981, 615.134 375.185, 615.883 372.301 C 616.426 370.210, 617.176 366.363, 617.549 363.750 L 618.227 359 604.186 359 C 596.463 359, 586.625 359.470, 582.322 360.044 C 578.020 360.618, 570 361.975, 564.500 363.058 C 557.806 364.377, 553.508 364.754, 551.500 364.200 C 549.708 363.704, 547.958 362.255, 547.155 360.600 C 546.355 358.954, 546.059 356.499, 546.424 354.552 C 546.762 352.750, 547.818 350.631, 548.770 349.844 C 549.721 349.058, 552.075 347.896, 554 347.263 C 555.925 346.630, 562.450 345.126, 568.500 343.921 C 576.713 342.285, 584.504 341.608, 599.250 341.248 C 618.601 340.776, 619 340.723, 618.982 338.633 C 618.972 337.460, 618.301 331.837, 617.490 326.137 C 616.672 320.381, 614.240 310.458, 612.020 303.817 C 609.821 297.241, 605.893 287.729, 603.291 282.680 C 600.689 277.631, 596.521 270.651, 594.030 267.168 C 591.538 263.686, 589.050 260.070, 588.500 259.132 C 587.950 258.195, 585.700 255.419, 583.500 252.964 C 581.300 250.509, 575.900 245.075, 571.500 240.890 C 567.100 236.704, 562.538 232.384, 561.363 231.290 C 560.188 230.196, 558.501 229.022, 557.613 228.682 C 556.726 228.341, 556 227.599, 556 227.031 C 556 226.464, 555.554 226, 555.010 226 C 554.465 226, 551.120 224.015, 547.575 221.588 C 544.031 219.162, 540.204 216.882, 539.072 216.523 C 537.939 216.163, 536.393 215.251, 535.637 214.495 C 534.882 213.739, 529.499 211.085, 523.676 208.598 C 517.854 206.111, 507.813 202.477, 501.364 200.522 C 494.915 198.567, 485.332 196.038, 480.069 194.902 C 472.871 193.348, 465.793 192.741, 451.500 192.454 C 437.834 192.179, 429.833 192.493, 423 193.573 M 334.683 271.165 C 333.872 272.449, 332.910 274.501, 332.545 275.724 C 332.157 277.026, 332.558 279.374, 333.514 281.388 C 334.811 284.122, 336.310 285.271, 340.823 286.993 C 343.945 288.184, 347.175 289.531, 348 289.986 C 348.825 290.441, 349.345 291.418, 349.155 292.157 C 348.965 292.896, 348.141 296.650, 347.324 300.500 C 346.410 304.808, 346.086 309.423, 346.481 312.500 C 346.834 315.250, 348.105 319.525, 349.305 322 C 350.504 324.475, 353.064 328.221, 354.993 330.323 C 356.922 332.426, 360.975 335.351, 364 336.823 C 368.523 339.025, 370.832 339.490, 377 339.444 C 382.329 339.405, 385.823 338.793, 389.070 337.330 C 391.583 336.198, 395.342 333.523, 397.422 331.386 C 399.502 329.249, 402.006 325.925, 402.986 324 C 403.966 322.075, 405.287 317.989, 405.920 314.921 L 407.071 309.341 412.609 309.801 C 416.054 310.086, 419.053 309.775, 420.547 308.975 C 421.867 308.268, 423.422 306.250, 424.004 304.489 C 424.710 302.350, 424.734 300.431, 424.078 298.705 C 423.538 297.284, 422.166 295.624, 421.029 295.015 C 419.892 294.407, 402.883 288.485, 383.231 281.856 C 360.788 274.285, 345.391 269.622, 341.829 269.316 C 336.703 268.877, 336.015 269.055, 334.683 271.165 M 550.500 269.715 C 549.400 269.980, 547.150 270.802, 545.500 271.540 C 543.850 272.279, 530.350 276.708, 515.500 281.383 C 500.650 286.058, 485.819 290.643, 482.542 291.573 C 478.900 292.606, 475.449 294.397, 473.668 296.178 C 471.182 298.664, 470.840 299.628, 471.343 302.727 C 471.668 304.726, 472.639 307.068, 473.502 307.931 C 474.625 309.054, 477.038 309.500, 481.990 309.500 L 488.909 309.500 489.544 313.500 C 489.893 315.700, 491.205 319.789, 492.459 322.586 C 493.713 325.384, 496.445 329.379, 498.530 331.464 C 500.615 333.549, 504.386 336.188, 506.911 337.328 C 510.229 338.827, 513.577 339.405, 519 339.415 C 524.977 339.426, 527.634 338.905, 532.086 336.845 C 535.159 335.423, 539.258 332.676, 541.195 330.738 C 543.132 328.801, 545.786 325.030, 547.093 322.358 C 548.798 318.871, 549.574 315.307, 549.841 309.725 C 550.101 304.300, 549.710 300.410, 548.547 296.853 C 547.630 294.050, 547.118 291.136, 547.408 290.378 C 547.699 289.620, 548.468 289, 549.116 289 C 549.764 289, 552.985 288.019, 556.274 286.820 C 561.202 285.023, 562.497 284.055, 563.643 281.312 C 564.408 279.481, 564.751 276.857, 564.406 275.480 C 564.060 274.104, 562.521 272.083, 560.984 270.989 C 559.448 269.895, 556.911 269.052, 555.346 269.116 C 553.781 269.180, 551.600 269.449, 550.500 269.715 M 439.542 318.729 C 438.465 319.003, 436.529 319.918, 435.241 320.762 C 433.952 321.606, 432.246 323.558, 431.449 325.099 C 430.652 326.640, 430.002 330.286, 430.004 333.200 C 430.006 336.635, 430.674 339.593, 431.901 341.605 C 432.942 343.312, 435.506 345.768, 437.598 347.061 C 440.585 348.907, 442.819 349.412, 448 349.412 C 453.181 349.412, 455.415 348.907, 458.402 347.061 C 460.494 345.768, 463.058 343.312, 464.099 341.605 C 465.326 339.593, 465.994 336.635, 465.996 333.200 C 465.998 330.286, 465.295 326.538, 464.434 324.872 C 463.495 323.057, 461.191 321.082, 458.684 319.943 C 455.840 318.652, 452.419 318.074, 448 318.138 C 444.425 318.190, 440.619 318.456, 439.542 318.729 M 442 352.754 C 440.075 352.941, 437.049 353.764, 435.276 354.582 C 433.503 355.399, 429.968 357.966, 427.420 360.284 C 424.872 362.603, 421.935 366.170, 420.893 368.210 C 419.852 370.251, 419 373.228, 419 374.825 C 419 376.423, 419.933 378.916, 421.073 380.365 C 422.690 382.422, 424.017 383, 427.118 383 C 430.016 383, 431.688 382.357, 433.295 380.624 C 434.508 379.317, 436.934 376.659, 438.687 374.717 C 440.440 372.775, 443.252 370.884, 444.937 370.514 C 446.622 370.144, 449.371 370.142, 451.046 370.510 C 452.880 370.913, 456.415 373.531, 459.929 377.090 C 464.915 382.138, 466.294 383, 469.383 383 C 471.651 383, 473.736 382.264, 474.975 381.025 C 476.061 379.939, 477.218 377.978, 477.547 376.667 C 477.876 375.357, 477.472 372.672, 476.649 370.702 C 475.826 368.733, 473.206 365.001, 470.826 362.410 C 468.326 359.687, 464.018 356.521, 460.620 354.908 C 456.521 352.962, 453.339 352.162, 450.120 352.265 C 447.579 352.347, 443.925 352.567, 442 352.754 M 411.525 443.250 C 410.732 445.038, 408.492 454.375, 406.548 464 C 404.604 473.625, 402.718 482.625, 402.358 484 L 401.704 486.500 404.166 484.250 C 405.787 482.769, 407.889 482, 410.314 482 C 413.593 482, 414 482.280, 414 484.535 C 414 486.732, 414.258 486.932, 415.934 486.035 C 417.172 485.373, 431.796 485, 456.541 485 C 487.060 485, 495.116 484.736, 494.751 483.750 C 494.496 483.063, 492.109 472.938, 489.448 461.250 L 484.608 440 448.788 440 L 412.968 440 411.525 443.250 M 419.045 668.704 C 420.834 670.742, 423.376 674.765, 424.695 677.645 C 426.013 680.524, 427.549 685.716, 428.107 689.181 C 428.820 693.614, 428.789 697.391, 428 701.920 C 427.384 705.460, 426.467 709.127, 425.964 710.068 C 425.250 711.402, 425.539 711.911, 427.274 712.376 C 428.498 712.704, 432.875 712.977, 437 712.981 C 441.125 712.986, 448.838 712.702, 454.139 712.351 L 463.778 711.713 462.279 708.124 C 461.454 706.150, 460.544 701.103, 460.256 696.908 C 459.943 692.345, 460.242 687.114, 461 683.890 C 461.697 680.925, 463.557 675.625, 465.133 672.112 C 466.710 668.598, 468 665.561, 468 665.362 C 468 665.163, 456.253 665, 441.896 665 L 415.793 665 419.045 668.704 M 389.750 731.750 C 422.887 731.896, 477.112 731.896, 510.250 731.750 C 543.387 731.604, 516.275 731.484, 450 731.484 C 383.725 731.484, 356.612 731.604, 389.750 731.750" stroke="none" fill="#fff5e7" fill-rule="evenodd"/><path d="" stroke="none" fill="#3c061f" fill-rule="evenodd"/><path d="" stroke="none" fill="#fbfaf7" fill-rule="evenodd"/></svg>