<svg width="24" height="24" viewBox="0 0 24 24" fill="none" xmlns="http://www.w3.org/2000/svg">
<g clip-path="url(#clip0_7913_16061)">
<path d="M12 24C18.65 24 24 18.65 24 12C24 5.34996 18.65 0 12 0C5.34996 0 0 5.34996 0 12C0 18.65 5.34996 24 12 24Z" fill="black"/>
<path fill-rule="evenodd" clip-rule="evenodd" d="M7.40485 15.3674C7.44947 15.318 7.50328 15.2779 7.56365 15.2511C7.62401 15.2231 7.68832 15.2084 7.75525 15.207H18.7513C18.7972 15.207 18.8432 15.2217 18.8812 15.2485C18.9206 15.2752 18.9508 15.3113 18.9692 15.3554C18.9875 15.3995 18.9941 15.4463 18.9862 15.4931C18.9784 15.5399 18.9574 15.584 18.9272 15.6188L16.5951 18.2549C16.5505 18.3044 16.4967 18.3445 16.4364 18.3713C16.376 18.3993 16.3117 18.414 16.2448 18.4154H5.24212C5.19619 18.4154 5.15026 18.4007 5.1122 18.3739C5.07414 18.3472 5.04265 18.3111 5.02427 18.267C5.0059 18.2229 5.00065 18.1761 5.00721 18.1293C5.01378 18.0825 5.03608 18.0384 5.06758 18.0036L7.40485 15.3674ZM18.9364 13.1818C18.9679 13.2165 18.9888 13.2606 18.9967 13.3074C19.0046 13.3542 18.998 13.4023 18.9797 13.4451C18.9613 13.4892 18.9311 13.5253 18.8917 13.5521C18.8537 13.5788 18.8077 13.5922 18.7605 13.5935L7.76181 13.6029C7.69619 13.6015 7.63057 13.5868 7.57021 13.5588C7.50984 13.5307 7.45603 13.4919 7.41141 13.4424L5.06364 10.8156C5.03215 10.7809 5.01115 10.7368 5.00328 10.69C4.9954 10.6432 5.00196 10.5951 5.02034 10.5523C5.03871 10.5082 5.06889 10.4721 5.10826 10.4453C5.14632 10.4186 5.19225 10.4052 5.23818 10.4039L16.2382 10.3945C16.3038 10.3959 16.3694 10.4106 16.4298 10.4386C16.4902 10.4667 16.544 10.5055 16.5886 10.5549L18.9364 13.1818ZM7.40485 5.74245C7.44947 5.69299 7.50328 5.65288 7.56365 5.62615C7.62401 5.59807 7.68832 5.58337 7.75525 5.58203L18.7579 5.59139C18.8038 5.59139 18.8497 5.60609 18.8878 5.63283C18.9259 5.65957 18.9574 5.69566 18.9757 5.73977C18.9941 5.78389 19.0007 5.83068 18.9928 5.87747C18.9849 5.92425 18.9639 5.96837 18.9324 6.00313L16.5951 8.62995C16.5505 8.67941 16.4967 8.71951 16.4364 8.74625C16.376 8.77432 16.3117 8.78903 16.2448 8.79036H5.24212C5.19619 8.79036 5.15026 8.77566 5.1122 8.74892C5.07414 8.72219 5.04265 8.68609 5.02427 8.64198C5.0059 8.59786 5.00065 8.55108 5.00721 8.50429C5.01509 8.4575 5.03608 8.41339 5.06758 8.37863L7.40485 5.74245Z" fill="url(#paint0_linear_7913_16061)"/>
</g>
<defs>
<linearGradient id="paint0_linear_7913_16061" x1="5.42311" y1="18.6981" x2="18.8152" y2="5.55117" gradientUnits="userSpaceOnUse">
<stop stop-color="#9945FF"/>
<stop offset="0.14" stop-color="#8A53F4"/>
<stop offset="0.42" stop-color="#6377D6"/>
<stop offset="0.79" stop-color="#24B0A7"/>
<stop offset="0.99" stop-color="#00D18C"/>
<stop offset="1" stop-color="#00D18C"/>
</linearGradient>
<clipPath id="clip0_7913_16061">
<rect width="24" height="24" fill="white"/>
</clipPath>
</defs>
</svg>
