<svg width="40" height="40" viewBox="0 0 40 40" fill="none" xmlns="http://www.w3.org/2000/svg">
<g id="Wallets/Phantom">
<path id="Vector" fill-rule="evenodd" clip-rule="evenodd" d="M15.9629 28.6977C13.6737 32.2057 9.83763 36.6452 4.73328 36.6452C2.3203 36.6452 7.70498e-05 35.652 1.85464e-09 31.337C-0.000192618 20.3472 15.0035 3.33507 28.9247 3.33484C36.8441 3.33468 40 8.82932 40 15.0691C40 23.0784 34.8027 32.2365 29.6367 32.2365C27.9971 32.2365 27.1927 31.3362 27.1927 29.9085C27.1927 29.536 27.2544 29.1323 27.3784 28.6977C25.6148 31.7087 22.2119 34.5033 19.0256 34.5033C16.7054 34.5033 15.5299 33.044 15.5299 30.9949C15.5299 30.2498 15.6845 29.474 15.9629 28.6977ZM26.2959 11.7846C25.0358 11.7869 24.1767 12.8575 24.1794 14.3848C24.1821 15.9121 25.045 17.0103 26.3051 17.0081C27.5348 17.0059 28.3935 15.9047 28.3908 14.3774C28.3881 12.8501 27.5256 11.7825 26.2959 11.7846ZM32.9802 11.7774C31.72 11.7796 30.861 12.8502 30.8637 14.3775C30.8664 15.9049 31.7289 17.003 32.9894 17.0008C34.2191 16.9987 35.0778 15.8975 35.0751 14.3701C35.0724 12.8428 34.2099 11.7752 32.9802 11.7774Z" fill="#AB9FF2"/>
</g>
</svg>
