<svg width="18" height="18" viewBox="0 0 18 18" fill="none" xmlns="http://www.w3.org/2000/svg">
<path fill-rule="evenodd" clip-rule="evenodd" d="M14.1017 10.0294C14.2729 10.402 14.777 10.5336 15.067 10.2436L15.5983 9.71264C16.1477 9.16348 17.0385 9.16348 17.5879 9.71264C18.1374 10.2619 18.1374 11.1522 17.5879 11.7015L13.2936 15.9939C12.2613 17.2205 10.7142 18 8.98507 18C7.18361 18 5.57986 17.154 4.54983 15.8377L0.412078 11.7019C-0.137359 11.1527 -0.137359 10.2623 0.412077 9.71309C0.961514 9.16392 1.85233 9.16392 2.40177 9.71309L2.92536 10.2364C3.20902 10.52 3.70146 10.3924 3.86901 10.0281C3.90211 9.95614 3.92011 9.87888 3.92011 9.79969V3.37495C3.92011 2.59829 4.55001 1.96868 5.32701 1.96868C6.10405 1.96868 6.73394 2.59829 6.73394 3.37495V6.62519C6.73394 6.90479 7.02047 7.09457 7.28718 7.0103C7.45598 6.95698 7.57789 6.80335 7.57789 6.62643V1.40627C7.57789 0.629611 8.20778 2.03579e-07 8.98482 0C9.76185 -2.03579e-07 10.3917 0.629611 10.3917 1.40627V6.62629C10.3917 6.80325 10.5137 6.95683 10.6825 7.01016C10.9492 7.09437 11.2357 6.90464 11.2357 6.62504V3.37495C11.2357 2.59829 11.8656 1.96868 12.6426 1.96868C13.4197 1.96868 14.0496 2.59829 14.0496 3.37495V9.79626C14.0496 9.8771 14.0679 9.9559 14.1017 10.0294Z" fill="#FD4848"/>
<path d="M13.4866 12.9378C13.4866 12.9378 11.4709 15.7503 8.98443 15.7503C6.49793 15.7503 4.48227 12.9378 4.48227 12.9378C4.48227 12.9378 6.49793 10.1252 8.98443 10.1252C11.4709 10.1252 13.4866 12.9378 13.4866 12.9378Z" fill="#D5FF5C"/>
<path d="M11.0948 12.9377C11.0948 14.1025 10.1501 15.0467 8.98472 15.0467C7.81942 15.0467 6.87473 14.1025 6.87473 12.9377C6.87473 11.7729 7.81942 10.8286 8.98472 10.8286C10.1501 10.8286 11.0948 11.7729 11.0948 12.9377Z" stroke="#FD4848" stroke-width="0.5679"/>
<path d="M10.2506 12.9376C10.2506 13.6364 9.68386 14.2029 8.98472 14.2029C8.28563 14.2029 7.71887 13.6364 7.71887 12.9376C7.71887 12.2388 8.28563 11.6724 8.98472 11.6724C9.68386 11.6724 10.2506 12.2388 10.2506 12.9376Z" stroke="#FD4848" stroke-width="0.5679"/>
<path d="M11.9389 12.9377C11.9389 14.5685 10.6163 15.8905 8.98472 15.8905C7.35321 15.8905 6.03058 14.5685 6.03058 12.9377C6.03058 11.3069 7.35321 9.98486 8.98472 9.98486C10.6163 9.98486 11.9389 11.3069 11.9389 12.9377Z" stroke="#FD4848" stroke-width="0.5679"/>
<path d="M12.7831 12.938C12.7831 15.0347 11.0825 16.7345 8.98475 16.7345C6.88703 16.7345 5.18646 15.0347 5.18646 12.938C5.18646 10.8411 6.88703 9.14136 8.98475 9.14136C11.0825 9.14136 12.7831 10.8411 12.7831 12.938Z" stroke="#FD4848" stroke-width="0.5679"/>
<path d="M9.40605 12.9376C9.40605 13.1704 9.21732 13.3591 8.98455 13.3591C8.75172 13.3591 8.56299 13.1704 8.56299 12.9376C8.56299 12.7048 8.75172 12.5161 8.98455 12.5161C9.21732 12.5161 9.40605 12.7048 9.40605 12.9376Z" fill="#162BEB" stroke="#FD4848" stroke-width="0.5679"/>
<path d="M8.98408 13.5003C9.29474 13.5003 9.54659 13.2484 9.54659 12.9378C9.54659 12.6271 9.29474 12.3752 8.98408 12.3752C8.67341 12.3752 8.42157 12.6271 8.42157 12.9378C8.42157 13.2484 8.67341 13.5003 8.98408 13.5003Z" fill="#FD4848"/>
<path d="M4.68533 12.9719C4.67575 12.9596 4.66693 12.9482 4.65887 12.9377C4.66693 12.9272 4.67575 12.9158 4.68533 12.9035C4.74402 12.8283 4.83097 12.7202 4.94317 12.5904C5.16775 12.3305 5.49254 11.9841 5.89342 11.6381C6.69962 10.9424 7.79259 10.2661 8.98477 10.2661C10.1769 10.2661 11.2699 10.9424 12.0761 11.6381C12.477 11.9841 12.8018 12.3305 13.0264 12.5904C13.1385 12.7202 13.2255 12.8282 13.2842 12.9035C13.2938 12.9158 13.3026 12.9272 13.3107 12.9377C13.3026 12.9482 13.2938 12.9596 13.2842 12.9719C13.2255 13.0471 13.1385 13.1551 13.0264 13.285C12.8018 13.5449 12.477 13.8913 12.0761 14.2372C11.2699 14.933 10.1769 15.6093 8.98477 15.6093C7.79259 15.6093 6.69962 14.933 5.89347 14.2372C5.49254 13.8913 5.16775 13.5449 4.94317 13.285C4.83097 13.1551 4.74402 13.0471 4.68533 12.9719Z" stroke="#D5FF5C" stroke-width="0.5679"/>
</svg>
